<svg width="82" height="56" fill="none" xmlns="http://www.w3.org/2000/svg"><g filter="url(#filter0_d_3016_476)"><path d="M7.96 3.68h54.903a.92.92 0 010 1.841H7.96v-1.84zm4.908 6.135h54.596a1.227 1.227 0 010 2.454H12.868V9.815zm4.907 6.748H73.6v26.378H17.775V16.563z" fill="#2ECC71"/><rect x="8.573" y="3.681" width="33.126" height=".613" rx=".307" transform="rotate(90 8.573 3.68)" fill="#2ECC71"/><rect x="13.481" y="9.815" width="34.353" height=".613" rx=".307" transform="rotate(90 13.48 9.815)" fill="#2ECC71"/><path fill-rule="evenodd" clip-rule="evenodd" d="M5.136.084C4.9.213 4.5.607 4.385.824c-.09.17-.106 2.584-.106 16.446 0 11.846.023 16.29.084 16.408.122.237.52.638.75.758.302.156 2.017.147 2.178-.012.105-.104.117-1.622.117-15.605s.011-15.5.117-15.605c.106-.105 2.795-.116 28.487-.116 25.691 0 28.381.01 28.487.116.087.086.117.267.117.696 0 .835-.046.812 1.564.812 1.11 0 1.35-.02 1.448-.116.1-.1.117-.372.117-1.85 0-1.135-.03-1.79-.084-1.896-.122-.237-.52-.638-.75-.758-.173-.09-4.579-.104-30.914-.102C13.783.002 5.244.025 5.136.084zm4.916 6.273c-.36.184-.756.543-.9.815-.09.17-.105 2.572-.104 16.386l.002 16.186.203.369c.152.275.298.42.576.57.345.186.437.202 1.242.203.693.001.894-.022.987-.114.106-.105.117-1.623.117-15.605 0-13.983.012-15.5.117-15.606.106-.105 2.796-.116 28.487-.116 25.692 0 28.381.011 28.487.116.084.083.117.26.117.623 0 .75-.026.738 1.565.738 1.11 0 1.35-.02 1.447-.116.164-.163.175-3.326.012-3.634-.148-.279-.546-.635-.916-.819l-.314-.155-30.413.003-30.414.003-.298.153zm4.656 6.344c-.38.226-.592.436-.752.746-.138.266-.142.694-.142 16.444 0 13.797.015 16.2.105 16.37.178.337.593.675 1.016.828.4.145.69.146 30.612.146 29.922 0 30.211-.001 30.61-.146.424-.153.839-.491 1.017-.828.09-.17.105-2.573.105-16.37 0-15.75-.003-16.178-.141-16.444-.16-.31-.373-.52-.753-.746l-.26-.155H14.969l-.261.155zm59.326 3.06c.105.105.117 1.482.117 14.056 0 12.573-.012 13.95-.117 14.055-.106.105-2.796.116-28.487.116-25.692 0-28.381-.011-28.487-.116-.106-.105-.117-1.482-.117-14.055 0-12.574.011-13.951.117-14.056.106-.105 2.795-.116 28.487-.116 25.691 0 28.38.011 28.487.116zM20.188 19.01c-.174.172-.174 2.696 0 2.868.174.172 2.87.172 3.044 0 .173-.172.173-2.696 0-2.868-.098-.097-.344-.116-1.522-.116s-1.424.019-1.522.116zm5.656-.03c-.563.307-1.005 1.022-1.006 1.628-.002 1.019-.685 2.088-1.638 2.566-.483.242-1.233.444-1.649.444-.509 0-1.002.377-1.323 1.011-.155.307-.157.376-.157 5.168 0 4.648.006 4.874.147 5.255.08.219.223.479.317.578.253.27.832.535 1.166.535.366 0 1.15.194 1.504.372.804.405 1.634 1.64 1.634 2.432 0 .473.217 1.124.463 1.385.093.1.328.26.521.358l.351.177h4.802c4.266 0 4.815-.013 4.919-.116.174-.172.174-2.696 0-2.868-.104-.103-.565-.116-3.952-.116H28.11l-.18-.178a.988.988 0 01-.23-.388c-.08-.33-.513-1.145-.82-1.543-.418-.545-1.454-1.512-1.913-1.788a6.245 6.245 0 00-.918-.425c-.282-.101-.555-.24-.606-.307-.071-.094-.093-.874-.093-3.306 0-2.433.022-3.21.093-3.3.051-.066.253-.172.449-.236 1.166-.383 2.317-1.288 3.105-2.442.425-.622.559-.873.716-1.341.065-.196.172-.398.238-.449.093-.071 1.004-.092 3.974-.092 3.404 0 3.867-.014 3.97-.116.175-.172.175-2.696 0-2.868-.103-.103-.658-.116-5.008-.114-3.418.002-4.938.027-5.042.084zm17.952-.014c-.123.034-.542.133-.931.22-1.786.4-3.994 1.641-5.316 2.988-.724.736-1.847 2.386-2.145 3.15-.62 1.592-.766 2.117-.894 3.239-.256 2.24.104 4.245 1.12 6.256.54 1.068 1.126 1.86 2.05 2.776 1.109 1.098 2.166 1.82 3.472 2.366.266.112.601.254.745.317.845.367 2.133.562 3.724.564 1.26.001 1.78-.058 2.756-.313.825-.215.97-.265 1.395-.479.214-.107.43-.194.48-.194.105 0 .906-.465 1.677-.974.67-.441 2.037-1.782 2.639-2.586 1.04-1.39 1.835-3.387 2.02-5.076.22-2.016-.049-3.936-.785-5.61a12.504 12.504 0 01-.21-.515c-.196-.52-1.555-2.445-2.11-2.99-.79-.776-2.107-1.679-3.136-2.151-1.251-.574-1.79-.758-2.715-.927-.517-.095-3.537-.143-3.836-.06zm11.402.044c-.097.097-.117.334-.117 1.434 0 1.1.02 1.337.117 1.434.104.102.568.116 3.967.117 2.117 0 3.894.029 3.948.063.108.068.46.78.46.931 0 .152.84 1.37 1.2 1.74.71.73 1.613 1.321 2.43 1.589.195.064.397.17.448.235.072.091.094.868.094 3.301 0 2.43-.022 3.212-.094 3.307-.05.069-.289.193-.53.276-.953.331-2.141 1.248-2.907 2.243-.306.398-.739 1.213-.82 1.543a.988.988 0 01-.23.388l-.18.178H59.15c-3.387 0-3.848.013-3.952.116-.173.172-.173 2.696 0 2.868.104.103.653.116 4.92.116h4.8l.352-.177c.194-.098.428-.259.522-.358.221-.236.463-.898.464-1.273 0-.343.145-.853.36-1.27.187-.363.918-1.096 1.272-1.274.354-.178 1.138-.372 1.504-.372.334 0 .913-.265 1.167-.535.093-.1.236-.36.316-.578.14-.38.147-.606.147-5.16 0-4.564-.006-4.78-.147-5.163-.144-.39-.485-.82-.784-.985-.082-.045-.316-.105-.521-.133-1.27-.174-1.858-.414-2.448-.999-.529-.524-.865-1.264-.866-1.91-.002-.647-.454-1.428-.984-1.704-.168-.087-1.019-.104-5.08-.104-4.334 0-4.89.013-4.994.116zm12.664 0c-.098.097-.117.334-.117 1.434 0 1.1.019 1.337.117 1.434.174.172 2.869.172 3.043 0 .174-.172.174-2.696 0-2.868-.098-.097-.344-.116-1.522-.116-1.177 0-1.423.019-1.521.116zm-20.863 3.117c.418.067.962.238 1.87.586.64.246 2.127 1.32 2.51 1.812.1.13.287.353.415.495.586.655 1.31 2.154 1.516 3.137.042.203.092.91.11 1.573.035 1.303.001 1.528-.431 2.839-.56 1.7-2.158 3.477-3.92 4.36-1.286.645-3.086.932-4.565.728-1.847-.255-3.246-.95-4.589-2.28-1.103-1.094-1.709-2.208-2.153-3.963-.096-.38-.115-.732-.089-1.684.034-1.22.098-1.704.298-2.237.443-1.18.615-1.5 1.27-2.367.79-1.045 1.704-1.78 2.95-2.369.684-.324 1.59-.614 1.94-.62.143-.004.328-.036.41-.072.18-.08 1.836-.039 2.458.062zM20.19 37.904c-.099.097-.118.334-.118 1.434 0 1.1.02 1.337.117 1.434.174.172 2.87.172 3.044 0 .173-.172.173-2.696 0-2.868-.098-.097-.344-.116-1.522-.116s-1.424.019-1.522.116zm47.673 0c-.098.097-.117.334-.117 1.434 0 1.1.019 1.337.117 1.434.174.172 2.869.172 3.043 0 .174-.172.174-2.696 0-2.868-.098-.097-.344-.116-1.522-.116-1.177 0-1.423.019-1.521.116z" fill="#000"/></g><defs><filter id="filter0_d_3016_476" x=".279" y="0" width="81" height="55.235" filterUnits="userSpaceOnUse" color-interpolation-filters="sRGB"><feFlood flood-opacity="0" result="BackgroundImageFix"/><feColorMatrix in="SourceAlpha" values="0 0 0 0 0 0 0 0 0 0 0 0 0 0 0 0 0 0 127 0" result="hardAlpha"/><feOffset dy="4"/><feGaussianBlur stdDeviation="2"/><feComposite in2="hardAlpha" operator="out"/><feColorMatrix values="0 0 0 0 0 0 0 0 0 0 0 0 0 0 0 0 0 0 0.25 0"/><feBlend in2="BackgroundImageFix" result="effect1_dropShadow_3016_476"/><feBlend in="SourceGraphic" in2="effect1_dropShadow_3016_476" result="shape"/></filter></defs></svg>