<svg width="63" height="63" fill="none" xmlns="http://www.w3.org/2000/svg"><path fill="#2ECC71" d="M15.884 4.633h31.105v37.724H15.884z"/><path d="M23.973 11.13a5.51 5.51 0 00-5.504 5.504 5.51 5.51 0 005.504 5.504 5.51 5.51 0 005.504-5.504 5.51 5.51 0 00-5.504-5.504zm0 7.339a1.837 1.837 0 01-1.835-1.835c0-1.011.823-1.835 1.835-1.835s1.835.824 1.835 1.835a1.837 1.837 0 01-1.835 1.835zm14.677 7.338a5.51 5.51 0 00-5.504 5.504 5.51 5.51 0 005.504 5.504 5.51 5.51 0 005.504-5.504 5.51 5.51 0 00-5.504-5.504zm0 7.339a1.837 1.837 0 01-1.834-1.835c0-1.011.823-1.834 1.834-1.834 1.012 0 1.835.823 1.835 1.834a1.837 1.837 0 01-1.835 1.835zm1.018-21.708a1.835 1.835 0 00-2.544.51L22.447 33.962a1.834 1.834 0 103.053 2.035l14.677-22.015a1.834 1.834 0 00-.509-2.545z" fill="#000"/><path d="M60.788 36.815h-9.295V1.835A1.835 1.835 0 0049.658 0H12.965a1.835 1.835 0 00-1.834 1.835v34.98H1.835c-1.754 0-2.509 2.245-1.102 3.302L30.21 62.255c.653.49 1.55.49 2.204 0L61.89 40.117c1.403-1.053.658-3.302-1.102-3.302zM31.313 58.494l-23.98-18.01h5.633A1.835 1.835 0 0014.8 38.65V3.67h33.024v34.98c0 1.013.821 1.835 1.834 1.835h5.633L31.31 58.494z" fill="#000"/><path d="M31.105 57.578l21.78-16.38H9.325l21.78 16.38z" fill="#2ECC71"/></svg>