<svg width="62" height="62" fill="none" xmlns="http://www.w3.org/2000/svg"><path fill-rule="evenodd" clip-rule="evenodd" d="M1.15.154C.787.337.322.812.144 1.18L0 1.48v28.67c.002 25.356.012 28.702.093 28.933.305.877.82 1.659 1.355 2.06.346.26 1.004.602 1.469.764.231.08 3.577.091 28.93.092L60.515 62l.3-.144c.382-.185.847-.65 1.032-1.033.206-.426.204-1.101-.004-1.521-.249-.502-.659-.886-1.128-1.057-.323-.118-.62-.12-28.488-.12-25.521 0-28.171-.009-28.257-.095-.085-.084-.096-.51-.096-3.78 0-3.268.011-3.695.096-3.78.082-.082.358-.094 2.104-.094 1.849 0 2.036-.01 2.336-.12a1.969 1.969 0 001.276-1.818A1.97 1.97 0 008.41 46.62c-.3-.11-.487-.12-2.336-.12-1.746 0-2.022-.012-2.104-.094-.084-.084-.095-.421-.095-2.8 0-1.488.022-2.739.048-2.78.026-.04.223-.13.437-.198.213-.068.444-.162.511-.209.815-.56 1.135-1.47.821-2.329-.216-.592-.666-1.002-1.332-1.215-.214-.069-.41-.158-.437-.199-.026-.04-.047-1.291-.048-2.779 0-2.38.01-2.716.095-2.8.082-.083.358-.095 2.104-.095 1.849 0 2.036-.01 2.336-.12a1.969 1.969 0 001.276-1.818 1.97 1.97 0 00-1.276-1.818c-.3-.11-.487-.119-2.336-.119-1.746 0-2.022-.012-2.104-.095-.084-.084-.095-.421-.095-2.8 0-1.488.022-2.739.048-2.78.026-.04.223-.13.437-.198.666-.213 1.116-.623 1.332-1.216.314-.859-.006-1.769-.82-2.328a2.814 2.814 0 00-.512-.21c-.214-.067-.41-.157-.437-.198-.026-.04-.047-1.291-.048-2.779 0-2.379.01-2.716.095-2.8.082-.083.358-.095 2.104-.095 1.849 0 2.036-.01 2.336-.12a1.969 1.969 0 001.276-1.817A1.97 1.97 0 008.41 7.872c-.3-.11-.487-.119-2.336-.119-1.746 0-2.022-.012-2.104-.095-.084-.084-.096-.447-.096-3.073 0-2.813-.006-2.997-.119-3.305C3.584.81 3.2.4 2.698.152 2.288-.051 1.555-.05 1.15.154z" fill="#000"/><path fill-rule="evenodd" clip-rule="evenodd" d="M44.238 16.142c-.498.19-.943.643-1.13 1.153-.214.588-.098 1.404.258 1.802.216.242.246.272.458.446.368.304.47.315 3.251.349 2.38.029 2.604.04 2.622.134.027.14-18.163 18.333-18.33 18.333-.075 0-.923-.802-2.32-2.195a324.319 324.319 0 00-2.353-2.333c-.221-.2-.754-.376-1.14-.376-.385 0-.918.176-1.139.376-.199.18-9.927 9.91-10.107 10.108-.38.42-.497 1.39-.232 1.915.186.367.65.831 1.017 1.017.525.266 1.496.149 1.915-.231.083-.076 2.014-1.998 4.29-4.27 2.651-2.648 4.18-4.132 4.256-4.132.074 0 .929.808 2.32 2.194 1.21 1.207 2.27 2.257 2.353 2.333.22.2.753.377 1.14.377.385 0 .918-.176 1.139-.377.083-.076 4.603-4.587 10.043-10.025 6.607-6.604 9.926-9.881 9.994-9.868.093.018.105.243.134 2.622.034 2.782.045 2.883.349 3.252.48.582.96.834 1.587.834a1.97 1.97 0 001.818-1.276c.115-.316.119-.504.119-5.526V17.58l-.181-.372c-.278-.569-.608-.892-1.095-1.07-.316-.115-.496-.119-5.534-.113-4.915.005-5.223.012-5.502.118z" fill="#2ECC71"/></svg>