<svg width="66" height="57" fill="none" xmlns="http://www.w3.org/2000/svg"><path fill-rule="evenodd" clip-rule="evenodd" d="M17.385.029c-.027.026-.33.07-.671.099-.342.028-.804.079-1.026.113-.616.096-2.826.663-3.066.787-.076.04-.316.126-.531.193a7.541 7.541 0 00-.872.354c-.265.129-.518.234-.563.234-.045 0-.28.113-.524.251l-1.09.618C8.507 2.98 6.95 4.057 6.825 4.21c-.019.023-.2.173-.403.334a14.286 14.286 0 00-1.619 1.562c-.167.196-.368.42-.448.5-.243.24-.715.858-1.288 1.685-.503.729-1.558 2.651-1.808 3.297-.39 1.005-.645 1.788-.768 2.36C.08 15.867 0 16.585 0 18.404c0 2.716.311 4.296 1.394 7.079.231.594 1.154 2.283 1.592 2.913.438.631 1.451 1.906 1.68 2.114.059.054.243.258.409.454.246.29 25.927 25.133 26.495 25.63.252.22.84.405 1.291.405.303 0 .498-.047.832-.201.406-.187 1.37-1.102 13.724-13.035 7.308-7.058 13.423-12.994 13.59-13.19.166-.196.34-.394.386-.44.76-.775 2.422-3.448 2.89-4.65.774-1.99 1.05-3.02 1.318-4.93.1-.716.1-3.71 0-4.426-.138-.979-.286-1.777-.41-2.213-.246-.861-.343-1.174-.444-1.432a51.081 51.081 0 01-.277-.737c-.499-1.355-2.228-4.205-3.077-5.068-.046-.047-.22-.246-.386-.442a14.369 14.369 0 00-1.618-1.563 10.974 10.974 0 01-.517-.433c-.361-.34-1.468-1.094-2.447-1.665-.565-.329-2.017-1.042-2.408-1.182-.14-.05-.406-.15-.591-.222-.838-.325-1.964-.656-2.73-.802-1.45-.276-2.19-.338-4.043-.338-.982 0-2.043.034-2.358.075-.976.128-1.79.267-2.292.392-.234.058-2.13.682-2.68.881-.585.213-2.352 1.107-2.943 1.49-.593.383-1.81 1.25-1.999 1.425-.052.048-.26.218-.462.38-.203.16-.504.416-.67.568-.165.152-.35.277-.412.277s-.278-.154-.48-.342a15.014 15.014 0 00-.734-.634 14.34 14.34 0 01-.456-.373c-.325-.298-1.483-1.076-2.372-1.595-.564-.329-2.017-1.042-2.408-1.182-.14-.05-.42-.156-.625-.235-.774-.3-.886-.335-2.089-.656-.447-.119-1.302-.268-2.257-.392-.64-.083-3.96-.15-4.03-.081zm3.795 3.978c.89.158 1.14.21 1.617.339.278.075.672.18.876.232 1.261.325 4.159 1.867 5.023 2.673.149.139.436.385.637.546.202.16.833.74 1.402 1.286.57.547 1.117 1.033 1.216 1.08.099.047.35.123.556.17.346.076.413.07.81-.062.237-.08.5-.188.586-.24.085-.051.647-.568 1.248-1.148s1.26-1.185 1.461-1.347c.203-.16.46-.377.572-.48.257-.236 1.27-.899 1.888-1.235 1.282-.697 1.233-.675 2.426-1.088.525-.182 1.78-.499 2.527-.637l.64-.119c.148-.027 1.043-.05 1.988-.05.945 0 1.84.023 1.988.05.148.028.437.08.64.119.695.129 2.027.46 2.379.59.193.072.465.171.604.221.952.341 2.68 1.308 3.68 2.061.554.416 1.943 1.76 2.49 2.408.633.749 1.769 2.595 2.061 3.348.465 1.197.649 1.8.849 2.785.043.215.094.45.112.52.25.975.23 3.706-.036 4.915-.035.16-.085.41-.11.553-.043.245-.122.525-.457 1.627-.076.25-.208.593-.294.76a5.75 5.75 0 00-.247.56c-.157.442-1.244 2.176-1.845 2.943-.436.557-1.776 1.943-2.946 3.047-.368.347-.792.76-.944.917-.151.158-.576.568-.943.911-.368.344-.792.754-.944.911-.151.158-.576.568-.943.911-.368.344-.792.754-.944.912-.151.157-.576.567-.945.91a38.3 38.3 0 00-1.01.975c-.188.193-.613.603-.944.911-.332.309-.757.72-.944.911-.187.193-.612.603-.943.912-.332.308-.757.718-.944.91-.187.193-.612.603-.943.912-.332.309-.756.719-.944.911-.187.193-.641.632-1.008.976a34.67 34.67 0 00-.944.914c-.151.157-.576.567-.943.91-.368.344-.792.754-.944.912a33.71 33.71 0 01-.943.911c-.368.344-.792.753-.944.91-.387.4-1.314 1.292-1.665 1.602a9 9 0 00-.564.555 6.507 6.507 0 01-.64.585c-.204.16-.631.544-.95.853-.319.31-.644.596-.724.637-.133.069-.912-.667-10.484-9.902a4373.993 4373.993 0 00-10.766-10.368c-1.008-.927-4.172-4.075-4.482-4.46-1.09-1.35-1.994-3.007-2.485-4.552-.553-1.74-.661-2.461-.661-4.426 0-1.728.087-2.47.427-3.644l.24-.846c.127-.46.275-.8.85-1.945.784-1.563 1.49-2.504 2.896-3.856 1.385-1.333 2.243-1.927 4.027-2.788 1.244-.6 1.649-.729 3.9-1.239.158-.036.386-.067.506-.07.12-.002.278-.03.353-.062.177-.076 3.466-.032 3.942.052z" fill="#000"/><path fill-rule="evenodd" clip-rule="evenodd" d="M18.784 6.746c-.077.029-.337.054-.577.057-.24.002-.572.03-.736.061-1.487.287-2.114.443-3.404.844-1.222.38-3.169 1.464-4.317 2.401-1.877 1.533-3.333 3.889-3.706 5.996-.1.572-.097 2.698.006 3.334.142.875.296 1.595.427 1.988.337 1.02.672 1.901.866 2.28.058.113.175.35.26.527 1.039 2.145 2.35 4.056 4.548 6.63.617.721 2.38 2.625 2.527 2.727.023.016.183.174.356.35.172.178.33.336.35.352.02.016.179.174.352.35.172.178.424.414.56.527.135.112.387.35.56.526.174.177.458.44.631.585.174.145.458.407.631.583.409.415 7.49 6.324 7.992 6.669a23 23 0 011.19.935c.445.37.981.791 1.193.936.21.145.652.487.98.76.329.274.77.616.98.76.21.145.72.541 1.132.88.413.34.864.668 1.002.73.248.111.255.111.5.001.138-.062.557-.364.933-.671.375-.308.854-.678 1.064-.822.21-.145.682-.514 1.049-.82.367-.305.84-.673 1.051-.818.211-.145.748-.566 1.192-.936a23 23 0 011.19-.935c.502-.345 7.584-6.254 7.992-6.669.174-.176.458-.438.631-.583.174-.145.458-.408.63-.585a9.46 9.46 0 01.562-.526 9.26 9.26 0 00.56-.526c.173-.177.33-.335.351-.351.02-.016.178-.174.35-.351.173-.177.333-.335.356-.351.147-.102 1.911-2.006 2.528-2.728 2.176-2.547 3.528-4.518 4.547-6.63.086-.176.203-.413.26-.525.195-.38.53-1.261.867-2.281.13-.393.284-1.113.426-1.988.104-.636.107-2.762.006-3.334-.373-2.107-1.828-4.463-3.705-5.996-1.148-.937-3.09-2.017-4.317-2.401-2.477-.775-3.707-.977-5.944-.975-2.058 0-3.587.19-5.012.617-1.23.369-1.421.444-2.348.919-.85.434-1.371.791-2.34 1.6-1.043.872-1.517 1.354-2.346 2.391-.463.578-.683.804-.782.804-.099 0-.318-.226-.781-.804-.83-1.037-1.303-1.52-2.347-2.39-1.167-.976-2.066-1.54-3.263-2.045-.826-.35-2.41-.774-3.387-.907-1.19-.163-3.997-.276-4.276-.172z" fill="#2ECC71"/></svg>