<svg width="58" height="62" fill="none" xmlns="http://www.w3.org/2000/svg"><path fill-rule="evenodd" clip-rule="evenodd" d="M5.96.15c-.53.276-.473.196-4.118 5.647L0 8.551v.523c0 .598.138.955.502 1.297.365.344.662.453 1.235.453.457 0 .543-.019.786-.174.15-.095.364-.277.474-.403.111-.127.89-1.26 1.733-2.518C6.47 5.13 6.516 5.067 6.658 5.122c.095.036.103.487.103 5.768v5.729l.186.392c.287.6.85.948 1.534.948.47 0 .823-.156 1.194-.528.575-.575.527.195.527-8.46V1.347l-.147-.29a2.202 2.202 0 00-.91-.911C8.864.003 8.807-.002 7.545 0 6.294.004 6.226.011 5.96.15zM19.237.056a27 27 0 01-.43.131c-1.554.46-2.845 1.711-3.33 3.224-.239.749-.235.65-.235 6.305 0 5.873-.015 5.569.322 6.562.204.6.487 1.049.999 1.58.698.726 1.386 1.175 2.12 1.388.153.044.357.104.455.134.232.07 3.652.07 3.885 0 .098-.03.302-.09.454-.134.672-.194 1.758-.857 2.204-1.345.224-.245.87-1.238.87-1.337 0-.048.043-.173.097-.277.27-.522.271-.562.271-6.579V3.987l-.154-.459c-.374-1.114-.973-1.97-1.789-2.554-.727-.52-1.142-.708-2.006-.908-.338-.078-3.494-.086-3.733-.009zm17.31.091c-.544.267-.381.045-4.129 5.632-1.617 2.411-1.687 2.525-1.839 2.96-.124.356-.12.514.026.91.15.412.466.785.893 1.056.262.167 1.267.17 1.536.005.39-.24.717-.672 2.318-3.074 1.227-1.841 1.68-2.475 1.757-2.46.097.019.107.412.137 5.617.022 3.665.056 5.67.098 5.812.172.568.506.982.989 1.223.382.192 1.03.181 1.418-.022.492-.259.768-.56.937-1.022.118-.323.12-.523.12-7.806 0-7.2-.004-7.487-.116-7.796A1.692 1.692 0 0039.625.115c-.276-.1-.49-.117-1.55-.115-1.168.002-1.245.01-1.528.148zM49.72.091c-1.13.318-1.63.587-2.297 1.23-.725.698-1.174 1.386-1.386 2.122-.044.152-.104.357-.134.455-.03.098-.055 2.736-.055 5.863v5.685l.154.459c.353 1.051.931 1.928 1.625 2.464.435.336 1.217.749 1.663.878.152.044.357.104.455.134.232.07 3.652.07 3.884 0 .098-.03.303-.09.455-.134 1.399-.404 2.85-1.857 3.253-3.256.044-.152.104-.357.134-.455.03-.098.055-2.678.055-5.733 0-5.967.015-5.655-.322-6.649-.212-.622-.497-1.066-1.035-1.61C55.393.76 54.746.392 53.605.086c-.432-.116-3.468-.112-3.885.005zM22.44 3.537c.463.163.727.379.888.725l.148.319v5.136c-.001 5.037-.004 5.141-.127 5.413-.168.372-.335.542-.701.714-.29.137-.377.146-1.48.146-1.48 0-1.678-.055-2.127-.598-.359-.435-.357-.414-.357-5.675 0-5.443-.014-5.272.453-5.767.396-.419.706-.498 1.982-.503.799-.003 1.117.019 1.321.09zm30.66.034c.372.168.661.453.837.825l.146.308V9.69c.001 5.627.024 5.339-.468 5.831-.42.42-.634.47-2.016.47-1.103-.001-1.19-.01-1.48-.146-.365-.173-.532-.343-.7-.715-.124-.272-.126-.377-.127-5.4-.002-4.18.014-5.159.082-5.32.121-.29.623-.761.92-.867.189-.067.553-.091 1.393-.094 1.017-.003 1.166.01 1.414.122zM3.873 21.25c-1.13.318-1.631.586-2.298 1.229C.85 23.178.4 23.867.188 24.602c-.044.152-.104.357-.134.455-.03.098-.054 2.737-.054 5.864v5.684l.154.46c.352 1.05.93 1.928 1.625 2.464.434.335 1.217.748 1.663.877.152.044.356.104.454.134.233.071 3.653.071 3.885 0 .098-.03.302-.09.455-.133 1.387-.396 2.858-1.869 3.254-3.257.043-.152.103-.357.133-.455.03-.098.054-2.678.054-5.733 0-5.918.013-5.63-.298-6.585-.42-1.286-1.726-2.539-3.113-2.983-.694-.223-.84-.236-2.476-.229-1.116.005-1.73.033-1.918.086zm30.637-.019c-.559.134-.76.206-1.229.437-.27.134-.675.385-.9.558-.404.313-1.01 1.043-1.305 1.575-.184.334-.436 1.085-.505 1.508-.064.4-.064 10.731 0 11.133.168 1.034.714 2.09 1.446 2.792.32.308 1.325.99 1.458.99.049 0 .174.044.277.098.456.236.805.272 2.657.272.99 0 1.881-.025 1.98-.055.097-.03.302-.09.454-.134 1.179-.34 2.28-1.305 2.902-2.544.286-.568.345-.733.433-1.204.094-.5.135-10.816.044-11.256-.372-1.818-1.23-2.99-2.734-3.733-.479-.237-.672-.304-1.276-.444-.359-.083-3.35-.077-3.702.007zm-13.306.569c-.33.174-.532.386-1.024 1.079-.631.89-4.671 6.978-4.808 7.246-.358.702-.008 1.669.79 2.176.243.154.328.173.785.173.586 0 .946-.14 1.285-.502.105-.113.943-1.335 1.862-2.715 1.24-1.866 1.696-2.506 1.774-2.49.097.018.107.418.136 5.739.024 4.416.05 5.772.11 5.948.134.392.48.757.948 1.003.743.39 1.834.011 2.232-.776l.151-.298V22.875l-.13-.26a1.844 1.844 0 00-.805-.817c-.282-.144-.33-.148-1.66-.145-1.318.002-1.38.008-1.646.148zm30.632-.01c-.599.323-.657.401-3.581 4.796l-2.406 3.615v.523c0 .433.026.575.149.814.176.346.463.63.817.807.35.175 1.187.184 1.463.016.427-.26.87-.841 2.438-3.195 1.228-1.843 1.681-2.476 1.759-2.461.097.018.106.423.135 5.832.035 6.54-.008 6.009.526 6.543.374.375.725.53 1.202.53.62 0 1.241-.42 1.566-1.06l.148-.29v-7.624c0-8.654.048-7.884-.528-8.46-.495-.495-.628-.528-2.136-.525-1.22.003-1.316.011-1.552.139zM7.111 24.7c.422.122.787.441.98.854l.143.308v4.995c.002 4.88-.001 5.003-.124 5.332a1.64 1.64 0 01-.832.874c-.154.064-.521.086-1.453.086-1.18-.001-1.262-.009-1.554-.146-.366-.173-.533-.343-.701-.715-.123-.272-.126-.376-.127-5.4-.001-4.204.014-5.158.083-5.32.12-.283.51-.652.868-.82.285-.135.384-.146 1.343-.146.77 0 1.122.024 1.374.098zm30.612.001c.523.152.849.491.998 1.038.11.406.118.696.118 5.136 0 4.398-.008 4.733-.115 5.125-.063.23-.18.492-.26.581-.464.52-.646.568-2.106.568-1.105-.001-1.19-.01-1.48-.147-.343-.163-.666-.472-.764-.733-.045-.118-.066-1.869-.066-5.417V25.61l.175-.273c.397-.62.7-.725 2.12-.73.785-.004 1.12.02 1.38.095zm-18.61 17.92a24.22 24.22 0 01-.43.13c-.736.213-1.422.662-2.12 1.387-.512.531-.795.98-.999 1.58-.337.994-.322.687-.322 6.587 0 3.021.024 5.573.054 5.671.03.098.09.303.134.455.044.153.197.514.34.804.53 1.07 1.164 1.706 2.234 2.235.948.47 1.302.529 3.136.529 1.61 0 1.715-.013 2.626-.322.664-.226 1.089-.508 1.748-1.162.521-.516.638-.673.918-1.23.177-.351.348-.735.381-.854.065-.23.179-2.021.165-2.583a64.423 64.423 0 01-.007-1.184l.001-1.215v-2.46l-.001-1.215c-.001-.465.002-.998.007-1.184.014-.535-.1-2.223-.165-2.46a2.564 2.564 0 00-.16-.413.91.91 0 01-.103-.285c0-.146-.693-1.157-1.012-1.475a4.982 4.982 0 00-1.907-1.16l-.676-.233-1.844.004c-1.014.002-1.913.026-1.997.053zm15.116.033a2.973 2.973 0 00-.473.177.89.89 0 01-.282.1c-.133 0-1.137.682-1.458.99-.732.703-1.278 1.758-1.445 2.793-.066.401-.066 10.732 0 11.133.246 1.524 1.279 2.924 2.674 3.627.251.127.718.297 1.037.378.536.136.7.147 2.109.147 1.443 0 1.69-.021 2.359-.202.586-.159 1.612-.771 2.087-1.246.674-.675 1.145-1.626 1.384-2.796.09-.44.05-10.756-.044-11.257-.088-.47-.147-.635-.433-1.203-.623-1.24-1.723-2.204-2.902-2.544a41.257 41.257 0 01-.455-.135c-.281-.086-3.825-.053-4.158.038zm-28.168.526a1.702 1.702 0 00-.7.49c-.044.05-.909 1.323-1.92 2.828A711.424 711.424 0 01.948 50.19C.125 51.39 0 51.658 0 52.217c0 .53.14.873.5 1.227.317.312.46.39.916.495.294.067.381.065.633-.021.403-.137.726-.308.86-.456.141-.156.82-1.147 2.382-3.476.906-1.35 1.257-1.828 1.334-1.813.097.018.107.428.136 5.862l.03 5.843.133.246c.167.309.467.595.802.762.2.1.373.13.755.13.795 0 1.252-.3 1.577-1.032l.144-.325V44.404l-.152-.29c-.258-.493-.56-.769-1.02-.938-.29-.105-.481-.12-1.5-.115-.98.005-1.218.024-1.469.12zm45.849 0a1.703 1.703 0 00-.7.49c-.045.05-.91 1.323-1.92 2.828a713.146 713.146 0 01-2.493 3.691c-.823 1.2-.949 1.468-.949 2.027 0 .53.14.873.5 1.227.318.312.461.39.917.495.366.084.633.03 1.152-.237.313-.16.372-.235 1.336-1.667 2.496-3.708 2.618-3.882 2.722-3.862.096.018.105.452.134 5.862l.03 5.843.133.246c.168.309.468.595.803.762.201.101.372.13.777.13.51 0 .528-.005.91-.262.327-.219.421-.325.588-.66l.2-.4v-15.29l-.151-.29c-.259-.493-.56-.769-1.021-.938-.289-.105-.481-.12-1.5-.115-.98.005-1.217.024-1.468.12zm-29.293 2.955c.372.168.542.335.714.702l.145.307v5.123c.001 5.651.024 5.32-.397 5.786-.375.415-.704.502-1.915.502-1.278 0-1.587-.075-1.996-.485-.503-.503-.484-.282-.484-5.865 0-5.527-.025-5.234.48-5.742.438-.44.486-.451 1.916-.453 1.139 0 1.287.011 1.537.125zm15.185-.034c.482.168.77.497.922 1.055.107.392.115.726.115 5.125 0 4.44-.007 4.73-.118 5.135-.096.354-.165.476-.386.684-.417.395-.749.466-2.07.443-1.073-.019-1.094-.022-1.453-.205-.266-.136-.418-.266-.564-.484l-.2-.298v-5.254c0-4.313.015-5.29.085-5.452.12-.282.503-.639.799-.744.373-.132 2.493-.136 2.87-.005z" fill="#000"/><rect x="19.175" y="3.835" width="3.835" height="11.505" rx="1.918" fill="#2ECC71"/><rect x="49.856" y="3.835" width="3.835" height="11.505" rx="1.918" fill="#2ECC71"/><rect x="34.515" y="24.928" width="3.835" height="11.505" rx="1.918" fill="#2ECC71"/><rect x="34.515" y="46.66" width="3.835" height="11.505" rx="1.918" fill="#2ECC71"/><rect x="19.175" y="46.66" width="3.835" height="11.505" rx="1.918" fill="#2ECC71"/><rect x="3.835" y="24.928" width="3.835" height="11.505" rx="1.918" fill="#2ECC71"/></svg>