<svg width="62" height="62" fill="none" xmlns="http://www.w3.org/2000/svg"><rect x="2.717" y="2.718" width="28.534" height="46.197" rx="2" fill="#2ECC71"/><rect x="59.106" y="2.718" width="21.74" height="44.159" rx="2" transform="rotate(90 59.106 2.718)" fill="#2ECC71"/><path d="M7.084 22.413a.898.898 0 001.273 0 .9.9 0 000-1.273l-2.186-2.186 2.186-2.186a.9.9 0 00-1.273-1.273l-2.823 2.822a.9.9 0 000 1.274l2.823 2.822zm8.934-3.46l-2.186 2.187a.9.9 0 001.273 1.273l2.823-2.823a.9.9 0 000-1.273l-2.823-2.823a.9.9 0 10-1.273 1.273l2.186 2.186zm-6.265 3.661a.9.9 0 001.167-.509l2.217-5.645a.9.9 0 00-1.675-.658l-2.218 5.645a.9.9 0 00.509 1.167zm-4.346 5.345h6.066a.9.9 0 000-1.801H5.407a.9.9 0 100 1.8zm20.035-1.801H14.778a.9.9 0 000 1.8h10.664a.9.9 0 100-1.8zM5.407 31.756h2.584a.9.9 0 000-1.801H5.407a.9.9 0 100 1.8zm16.741-1.801a.9.9 0 100 1.8h1.573a.9.9 0 100-1.8h-1.573zm-2.37.9a.9.9 0 00-.9-.9H11.15a.9.9 0 100 1.8h7.728a.9.9 0 00.9-.9zm5.898 0a.9.9 0 00.9.9h2.947a.9.9 0 100-1.8h-2.947a.9.9 0 00-.9.9zm-4.903-11.179h3.108a.9.9 0 100-1.801h-3.108a.9.9 0 100 1.8zm6.59 0h18.965a.9.9 0 100-1.801H27.362a.9.9 0 100 1.8zm16.084 2.16h-7.682a.9.9 0 000 1.801h7.682a.9.9 0 000-1.8zm-10.563 0h-2.64a.9.9 0 100 1.801h2.64a.9.9 0 100-1.8zm-12.111 1.801h6.47a.9.9 0 000-1.8h-6.47a.9.9 0 100 1.8zM18.89 33.72h-6.065a.9.9 0 100 1.8h6.064a.9.9 0 000-1.8zm-8.823 0h-4.66a.9.9 0 100 1.8h4.66a.9.9 0 100-1.8zm19.816 0h-7.922a.9.9 0 100 1.8h7.922a.9.9 0 000-1.8zm10.714-4.624h-4.332a.9.9 0 000 1.8h4.332a.9.9 0 100-1.8zm7.518 1.8h6.116a.9.9 0 100-1.8h-6.116a.9.9 0 100 1.8zm-3.058-1.8h-1.402a.9.9 0 100 1.8h1.402a.9.9 0 100-1.8zm-8.792 11.611h4.332a.9.9 0 100-1.8h-4.332a.9.9 0 000 1.8zm11.85 0h6.116a.9.9 0 100-1.8h-6.116a.9.9 0 100 1.8zm-4.459 0h1.4a.9.9 0 100-1.8h-1.4a.9.9 0 100 1.8zm-3.059 8.011h-4.332a.9.9 0 000 1.8h4.332a.9.9 0 100-1.8zm13.633 0h-6.115a.9.9 0 100 1.8h6.116a.9.9 0 100-1.8zm-9.173 0h-1.402a.9.9 0 100 1.8h1.402a.9.9 0 100-1.8z" fill="#000"/><path d="M57.553 0H3.963A3.967 3.967 0 000 3.962v43.562a3.967 3.967 0 003.962 3.962h3.389a.9.9 0 100-1.8H3.962a2.164 2.164 0 01-2.161-2.162v-3.416h32.8v1.552h-.715c-.976 0-1.77.794-1.77 1.77v2.255H12.824a.9.9 0 000 1.8h8.656v3.23h-2.718a3.292 3.292 0 00-3.288 3.288v1.945c0 .827.673 1.5 1.5 1.5h27.498c.828 0 1.5-.673 1.5-1.5v-1.945a3.292 3.292 0 00-3.288-3.288h-2.718v-1.139H56.61c.976 0 1.77-.794 1.77-1.77v-.424a3.968 3.968 0 003.066-3.858l.069-43.562A3.966 3.966 0 0057.552 0zM33.917 41.965v-4.316H56.58v4.316H33.917zm2.484-6.116v-1.894h17.694v1.894H36.401zm17.694 7.916v1.895H36.401v-1.895h17.694zm-30.814 7.72h8.835v.321c0 .976.794 1.77 1.77 1.77h4.28v1.139H23.28v-3.23zm19.404 5.03c.82 0 1.488.668 1.488 1.488v1.645h-26.9v-1.645c0-.82.669-1.488 1.49-1.488h23.922zm13.895-4.74H33.917v-4.314H56.58v4.315zm3.066-4.251a2.16 2.16 0 01-1.266 1.964V47.43c0-.976-.794-1.77-1.77-1.77h-.714v-1.552h3.75v3.416zm0-5.216h-1.295c.018-.102.03-4.688.03-4.688 0-.977-.795-1.771-1.771-1.771h-.714v-1.894h.714c.976 0 1.77-.795 1.77-1.771v-4.376c0-.976-.794-1.77-1.77-1.77h-5.085a.9.9 0 000 1.8h5.055v4.316H33.917v-4.316h12.006a.9.9 0 100-1.8H33.886c-.976 0-1.77.794-1.77 1.77v4.376c0 .976.794 1.77 1.77 1.77h.714v1.895h-.714c-.976 0-1.77.794-1.77 1.77 0 0 .011 4.587.03 4.689H1.8V12.246h57.845v30.062zm0-31.862H1.867V3.962c0-1.192.97-2.161 2.162-2.161h53.455c1.192 0 2.162.97 2.162 2.161v6.484z" fill="#000"/><path d="M6.64 3.456a2.645 2.645 0 00-2.642 2.641A2.645 2.645 0 006.64 8.74a2.646 2.646 0 002.642-2.643A2.645 2.645 0 006.64 3.456zm0 3.483a.843.843 0 010-1.683.843.843 0 010 1.683zm6.726-3.483a2.645 2.645 0 00-2.642 2.641 2.646 2.646 0 002.642 2.643 2.645 2.645 0 002.642-2.643 2.645 2.645 0 00-2.642-2.641zm0 3.483a.842.842 0 11.002-1.685.842.842 0 01-.002 1.685zm6.727-3.483a2.645 2.645 0 00-2.642 2.641 2.645 2.645 0 002.642 2.643 2.646 2.646 0 002.642-2.643 2.645 2.645 0 00-2.642-2.641zm0 3.483a.843.843 0 010-1.683.843.843 0 010 1.683z" fill="#000"/></svg>