<svg width="30" height="31" fill="none" xmlns="http://www.w3.org/2000/svg"><path fill-rule="evenodd" clip-rule="evenodd" d="M13.884.028c-.014.015-.165.034-.336.042-.311.015-.61.049-.935.106l-.337.06c-.09.015-.229.041-.31.058l-.281.059a5.43 5.43 0 00-.246.058l-.225.057c-.22.054-1.394.45-1.596.538-.074.033-.2.087-.281.12-.158.067-.945.452-1.062.52-.039.023-.172.096-.295.163-.383.206-1.553.973-1.618 1.059a.973.973 0 01-.112.09 1.119 1.119 0 00-.113.089.886.886 0 01-.112.088 1.1 1.1 0 00-.14.119 1.196 1.196 0 01-.141.118c-.055.04-.13.106-.17.148a1.436 1.436 0 01-.168.149c-.054.04-.227.207-.384.372a3.655 3.655 0 01-.368.352.46.46 0 00-.133.14 3.24 3.24 0 01-.307.358 4.462 4.462 0 00-.326.374 1.475 1.475 0 01-.141.178c-.04.04-.103.12-.14.177a1.176 1.176 0 01-.113.148 1.162 1.162 0 00-.113.148 1.16 1.16 0 01-.084.118 1.16 1.16 0 00-.085.119.963.963 0 01-.085.118c-.033.027-.473.73-.65 1.04a16.517 16.517 0 00-1.12 2.384 27.93 27.93 0 00-.512 1.679l-.054.236a5.248 5.248 0 00-.055.259l-.056.296c-.016.085-.042.232-.056.325l-.057.355a8.486 8.486 0 00-.1.984c-.008.179-.026.338-.04.353-.036.037-.036 1.889 0 1.926.014.015.032.174.04.353.014.328.046.643.1.984l.057.355c.014.093.04.24.056.325l.056.296c.014.077.04.197.056.266l.055.237c.051.229.428 1.465.51 1.671.03.078.082.21.114.296.14.368.411.963.671 1.472.253.494.904 1.59.985 1.656.01.008.048.062.085.119.037.056.075.11.085.118.009.008.047.061.084.118.037.057.088.124.113.148.024.024.075.091.112.148.038.057.1.137.14.177.04.041.104.12.142.177.141.212 1.318 1.45 1.519 1.598.054.04.13.106.168.148.039.042.114.108.169.148.054.04.117.092.14.118.023.026.087.08.14.119.055.039.106.079.113.088.008.01.059.05.113.09a.758.758 0 01.112.09c.029.037.7.498 1.041.714.34.215 1.606.898 1.821.982a9.8 9.8 0 01.26.107c.267.113 1.5.539 1.723.594.058.015.16.04.225.058a8.704 8.704 0 00.534.118c.082.017.22.043.31.059l.337.059c.325.057.624.09.935.106.17.008.322.027.336.042.036.037 1.796.037 1.831 0 .015-.015.166-.034.337-.042.31-.015.61-.049.935-.106l.337-.06a13.183 13.183 0 001.062-.232 24.73 24.73 0 001.596-.538 15.517 15.517 0 001.68-.826c.47-.266 1.512-.95 1.575-1.036a.975.975 0 01.113-.09.959.959 0 00.112-.089c.008-.01.059-.05.113-.088.054-.04.117-.093.14-.119.024-.026.087-.079.141-.118.054-.04.13-.106.169-.148.039-.042.115-.109.169-.149.054-.04.214-.194.355-.343.142-.148.295-.293.341-.322a.458.458 0 00.133-.14 3.74 3.74 0 01.335-.388 5.06 5.06 0 00.354-.403c.038-.057.101-.137.141-.178.04-.04.103-.12.14-.177a1.18 1.18 0 01.113-.148c.025-.024.075-.09.113-.148.037-.057.075-.11.084-.118.01-.008.047-.062.084-.119.038-.056.076-.11.086-.118.082-.068.81-1.299 1.007-1.7.063-.13.133-.27.154-.311.065-.124.432-.951.494-1.117l.115-.296c.081-.206.459-1.442.51-1.671l.055-.237c.017-.069.042-.192.057-.273l.056-.296c.016-.081.04-.224.055-.318l.056-.355c.055-.341.087-.656.101-.984.008-.179.026-.338.04-.353.036-.037.036-1.889 0-1.926-.014-.015-.032-.174-.04-.353a8.497 8.497 0 00-.1-.984l-.057-.355a13.576 13.576 0 00-.112-.621 6.284 6.284 0 00-.055-.259l-.055-.236a27.877 27.877 0 00-.511-1.68l-.114-.295c-.14-.368-.412-.963-.672-1.472-.252-.494-.903-1.59-.984-1.656a1.011 1.011 0 01-.085-.118 1.165 1.165 0 00-.085-.119 1.164 1.164 0 01-.084-.118 1.16 1.16 0 00-.113-.148 1.178 1.178 0 01-.113-.148 1.408 1.408 0 00-.14-.177 1.418 1.418 0 01-.141-.178 3.998 3.998 0 00-.309-.355 4.022 4.022 0 01-.309-.355.68.68 0 00-.225-.237 3.981 3.981 0 01-.338-.325 3.943 3.943 0 00-.337-.325 1.418 1.418 0 01-.169-.148 1.37 1.37 0 00-.169-.148 1.14 1.14 0 01-.14-.118 1.129 1.129 0 00-.141-.119 1.104 1.104 0 01-.113-.088 1.125 1.125 0 00-.112-.09.964.964 0 01-.113-.089 15.097 15.097 0 00-3.256-1.862A25.469 25.469 0 0018.394.47c-.058-.015-.16-.04-.225-.058a14.09 14.09 0 00-.844-.177l-.337-.059a7.318 7.318 0 00-.935-.106c-.17-.008-.322-.027-.337-.042-.035-.037-1.795-.037-1.83 0zM10.231 7.42c.458.167.813.53.928.95l.073.268c.032.115.018.51-.024.695-.082.357-.416.79-.747.965-.307.163-.51.21-.892.21-.305 0-.509-.033-.639-.105a.418.418 0 00-.121-.05c-.057 0-.292-.187-.457-.364a1.284 1.284 0 01-.325-.575 32.51 32.51 0 00-.064-.239c-.032-.114-.023-.342.023-.612.03-.177.224-.589.336-.712.156-.175.616-.456.747-.456a.226.226 0 00.106-.03c.023-.015.22-.028.436-.028.359 0 .414.007.62.083zm8.802 4.229c.417.094.48.116.801.286.358.19.476.278.748.564.505.531.846 1.258.972 2.07.079.51.087.829.09 3.593l.004 2.884h-2.896l-.019-2.558c-.017-2.401-.033-2.919-.102-3.21-.165-.698-.413-1.008-.968-1.212-.144-.053-.658-.06-.808-.013l-.182.058c-.258.083-.618.405-.794.71-.237.411-.22.158-.235 3.37l-.014 2.855h-2.954l.008-.828c.004-.455.014-2.465.022-4.466.011-2.785.007-3.665-.019-3.75-.03-.096-.027-.118.018-.17.05-.058.085-.06 1.443-.06 1.257 0 1.398.006 1.444.05.046.044.052.103.052.592 0 .442.007.542.039.542.021 0 .061-.037.089-.081a.782.782 0 01.096-.126c.025-.024.076-.09.114-.148a1.03 1.03 0 01.28-.296c.055-.04.128-.103.164-.14.148-.154.929-.51 1.121-.51a.259.259 0 00.122-.03c.055-.039 1.176-.019 1.364.024zm-7.992.178c.043.05.046.404.04 4.637l-.008 4.582H8.12l-.007-4.6c-.004-2.53-.001-4.616.006-4.636.01-.029.326-.037 1.444-.037 1.352 0 1.434.003 1.478.054z" fill="#000"/></svg>