<svg width="30" height="32" fill="none" xmlns="http://www.w3.org/2000/svg"><path fill-rule="evenodd" clip-rule="evenodd" d="M15 31.066c8.284 0 15-6.78 15-15.145C30 7.557 23.284.776 15 .776c-8.284 0-15 6.78-15 15.145 0 8.364 6.716 15.145 15 15.145z" fill="#2ECC71"/><path d="M7.372 11.065a.815.815 0 00-.252-.675L5.252 8.065v-.347h5.798l4.482 10.156 3.94-10.156H25v.347l-1.597 1.582a.49.49 0 00-.177.463v11.623a.49.49 0 00.177.462l1.56 1.582v.348h-7.844v-.348l1.616-1.62c.159-.164.159-.212.159-.463v-9.395l-4.492 11.787h-.606l-5.23-11.787v7.9c-.043.332.064.666.29.907l2.101 2.633v.347H5v-.347l2.1-2.633c.225-.241.326-.578.272-.907v-9.134z" fill="#252525"/></svg>