<svg width="30" height="31" fill="none" xmlns="http://www.w3.org/2000/svg"><path fill-rule="evenodd" clip-rule="evenodd" d="M13.845.028c-.015.015-.166.034-.337.042a7.32 7.32 0 00-.935.106l-.337.06c-.09.015-.228.041-.31.058l-.28.059a5.43 5.43 0 00-.247.058l-.225.057c-.22.054-1.394.45-1.596.538a15.103 15.103 0 00-3.255 1.862.973.973 0 01-.113.09.959.959 0 00-.112.089c-.008.01-.059.05-.113.088-.054.04-.117.093-.14.119a1.196 1.196 0 01-.141.118c-.054.04-.13.106-.169.148a1.421 1.421 0 01-.169.148 3.95 3.95 0 00-.337.325 3.973 3.973 0 01-.338.325.68.68 0 00-.225.237 4.03 4.03 0 01-.31.355 4.007 4.007 0 00-.308.355 1.458 1.458 0 01-.141.178c-.04.04-.103.12-.14.177a1.176 1.176 0 01-.113.148 1.163 1.163 0 00-.113.148c-.037.057-.075.11-.084.118-.01.008-.047.062-.084.119a1.01 1.01 0 01-.086.118c-.072.059-.725 1.156-1.021 1.716a17.902 17.902 0 00-.749 1.708c-.084.213-.46 1.448-.511 1.679l-.055.236c-.016.065-.04.182-.055.259l-.056.296c-.016.085-.042.232-.056.325l-.056.355a8.486 8.486 0 00-.101.984c-.008.179-.026.338-.04.353-.036.037-.036 1.889 0 1.926.014.015.032.174.04.353.014.328.046.643.1.984l.057.355c.014.093.04.24.056.325l.056.296c.014.077.04.197.056.266l.055.237c.051.229.429 1.465.51 1.671l.115.296a16.344 16.344 0 001.655 3.128 1.1 1.1 0 01.086.119c.037.056.075.11.084.118a1 1 0 01.084.118c.037.057.088.124.113.148.024.024.075.091.113.148.037.057.1.137.14.177.04.041.103.121.141.178.038.057.185.225.326.374.142.149.28.31.307.358a.46.46 0 00.133.14c.046.029.212.187.369.352.157.165.33.332.383.372.054.04.13.107.169.15.039.041.115.107.169.147.054.04.117.092.14.118.024.026.087.08.141.119.054.039.105.079.113.088.007.01.058.05.112.09a.855.855 0 01.113.09c.028.037.698.498 1.04.714.34.215 1.606.898 1.821.982a9.8 9.8 0 01.26.107c.267.113 1.5.539 1.723.594.058.015.16.04.225.058a8.704 8.704 0 00.535.118c.08.017.22.043.309.059l.337.059c.325.057.624.09.935.106.17.008.322.027.337.042.035.037 1.795.037 1.83 0 .015-.015.166-.034.337-.042.311-.015.61-.049.935-.106l.337-.06a13.183 13.183 0 001.062-.232 24.73 24.73 0 001.596-.538c.074-.032.2-.087.281-.12a15.102 15.102 0 002.975-1.742.975.975 0 01.112-.09c.054-.039.105-.079.113-.089a.886.886 0 01.112-.088 1.1 1.1 0 00.14-.119c.024-.026.087-.079.141-.118.055-.04.13-.106.17-.148.038-.042.114-.109.168-.148.054-.04.206-.186.337-.325.132-.139.284-.285.338-.325a.68.68 0 00.225-.237c.038-.057.177-.217.31-.355a4.13 4.13 0 00.308-.355c.038-.057.101-.137.141-.178.04-.04.103-.12.14-.177a1.18 1.18 0 01.113-.148c.025-.024.076-.09.113-.148.037-.057.075-.11.084-.118.01-.008.047-.062.085-.119.037-.056.075-.11.085-.118.082-.068.811-1.299 1.007-1.7.063-.13.133-.27.154-.311.066-.124.432-.951.495-1.117l.114-.296c.082-.206.459-1.442.51-1.671l.055-.237c.017-.069.042-.192.057-.273l.056-.296c.016-.081.04-.224.055-.318l.057-.355a8.47 8.47 0 00.1-.984c.008-.179.026-.338.04-.353.036-.037.036-1.889 0-1.926-.014-.015-.032-.174-.04-.353a8.475 8.475 0 00-.1-.984l-.056-.355a13.576 13.576 0 00-.113-.621 6.284 6.284 0 00-.055-.259l-.054-.236a27.877 27.877 0 00-.512-1.68 16.51 16.51 0 00-1.12-2.383c-.177-.31-.617-1.013-.65-1.04a1.011 1.011 0 01-.085-.118 1.165 1.165 0 00-.085-.119 1.164 1.164 0 01-.084-.118 1.16 1.16 0 00-.113-.148 1.178 1.178 0 01-.112-.148 1.408 1.408 0 00-.14-.177 1.42 1.42 0 01-.142-.178 3.998 3.998 0 00-.309-.355 4.022 4.022 0 01-.309-.355.68.68 0 00-.225-.237 3.981 3.981 0 01-.338-.325 3.943 3.943 0 00-.337-.325 1.418 1.418 0 01-.169-.148 1.37 1.37 0 00-.169-.148 1.14 1.14 0 01-.14-.118 1.129 1.129 0 00-.14-.119 1.104 1.104 0 01-.113-.088 1.125 1.125 0 00-.113-.09.964.964 0 01-.112-.089 15.097 15.097 0 00-3.256-1.862A25.469 25.469 0 0018.353.47c-.058-.015-.16-.04-.225-.058a14.09 14.09 0 00-.844-.177l-.337-.059a7.318 7.318 0 00-.935-.106c-.17-.008-.322-.027-.336-.042-.036-.037-1.796-.037-1.831 0zm4.459 8.252c.147.014.318.038.38.054.26.065 1.284.673 1.516.9a.19.19 0 00.113.053c.032 0 .311-.092.62-.204.722-.26.768-.279.993-.398a1.52 1.52 0 01.285-.121c.085-.02.093-.016.074.033a1.08 1.08 0 00-.036.114 5.92 5.92 0 01-.402.72 2.006 2.006 0 00-.112.153 2.548 2.548 0 01-.217.259c-.135.142-.261.345-.261.42 0 .017.063.03.143.03.1 0 .293-.052.645-.177.5-.177.618-.205.618-.146 0 .075-.125.277-.26.42a2.63 2.63 0 00-.218.259c-.038.057-.25.293-.47.524-.22.232-.429.478-.464.547-.049.097-.069.201-.085.437-.042.63-.1 1.156-.16 1.465l-.056.296a6.16 6.16 0 01-.057.273 144.44 144.44 0 00-.11.473c-.05.22-.273.962-.343 1.14l-.114.295c-.142.373-.264.623-.54 1.102-.226.393-.31.534-.328.547-.01.008-.074.101-.142.207-.067.106-.13.2-.14.207-.01.008-.047.062-.085.119a1.164 1.164 0 01-.112.148c-.025.024-.076.09-.113.147a2.502 2.502 0 01-.225.267 2.74 2.74 0 00-.225.266 3.31 3.31 0 01-.506.532c-.054.04-.155.133-.225.207a2.05 2.05 0 01-.225.207c-.054.04-.105.08-.112.09a1.367 1.367 0 01-.113.088.983.983 0 00-.112.09c-.096.128-1.215.79-1.568.927l-.26.107c-.248.105-.83.304-1.048.358-.058.015-.16.04-.225.058-.57.15-1.552.267-2.243.267-.475 0-1.313-.075-1.646-.148a27.908 27.908 0 00-.28-.059 5.257 5.257 0 01-.254-.059 11.575 11.575 0 00-.225-.057 12.213 12.213 0 01-1.113-.399c-.084-.04-.247-.116-.363-.168-.6-.272-1.041-.52-1.041-.588 0-.043.179-.067.703-.094.78-.04 1.394-.125 1.772-.248l.253-.08a2.42 2.42 0 00.232-.086l.281-.12c.297-.125.52-.243.851-.448.37-.23.442-.285.429-.326-.005-.015-.129-.071-.275-.125a10.97 10.97 0 01-.421-.162 11.335 11.335 0 00-.264-.108c-.166-.066-.26-.121-.573-.342-.636-.448-1.047-.953-1.229-1.508-.036-.11-.036-.134-.002-.17.088-.092.25-.12.697-.12.27 0 .443-.012.443-.03 0-.033-.175-.13-.281-.158-.069-.018-.59-.332-.62-.372a.862.862 0 00-.112-.092 1.129 1.129 0 01-.14-.118 1.15 1.15 0 00-.14-.12 1.421 1.421 0 01-.156-.13 1.465 1.465 0 01-.125-.164 1.141 1.141 0 00-.114-.148 3.33 3.33 0 01-.362-.592c-.224-.605-.332-1.008-.36-1.341-.017-.202.004-.236.119-.199.211.07.826.267.93.3.065.019.131.026.148.015.047-.03.038-.117-.018-.182a1.951 1.951 0 01-.119-.16 1.768 1.768 0 00-.169-.207 1.756 1.756 0 01-.169-.207 1.515 1.515 0 00-.106-.145c-.108-.117-.388-.79-.461-1.113a4.112 4.112 0 01.004-1.7l.055-.237c.012-.057.044-.164.071-.237.129-.355.143-.384.186-.384.014 0 .18.163.37.362.19.2.39.396.444.436.054.04.18.16.281.266.1.107.227.226.281.266a1.1 1.1 0 01.14.119c.024.026.087.08.142.118.054.04.104.08.112.09.008.01.096.076.197.147a2 2 0 01.197.149c.037.053.761.488 1.098.659.672.34.749.372 1.63.658.085.028.212.061.281.074.07.013.184.04.253.058.264.07.811.15 1.07.157l.21.005.016-.665c.01-.367.031-.72.048-.784.018-.066.044-.172.059-.237.066-.293.26-.719.489-1.076.146-.228.469-.587.64-.713.054-.04.104-.08.112-.09.087-.112.631-.405.928-.499.116-.037.25-.08.298-.094.047-.015.186-.028.309-.028s.242-.014.265-.03c.024-.017.11-.023.197-.014l.422.042z" fill="#000"/></svg>