<svg width="82" height="56" viewBox="0 0 82 56" fill="none" xmlns="http://www.w3.org/2000/svg">
<g filter="url(#filter0_d_3016_476)">
<path d="M7.95999 3.68066H62.8634C63.3715 3.68066 63.7835 4.09264 63.7835 4.60083C63.7835 5.10903 63.3716 5.521 62.8634 5.521H7.95999V3.68066Z" fill="#2ECC71"/>
<path d="M12.8676 9.81519H67.4642C68.1418 9.81519 68.6911 10.3645 68.6911 11.0421C68.6911 11.7197 68.1418 12.269 67.4642 12.269H12.8676V9.81519Z" fill="#2ECC71"/>
<path d="M17.7751 16.563H73.5986V42.9411H17.7751V16.563Z" fill="#2ECC71"/>
<rect x="8.57338" y="3.68066" width="33.126" height="0.613444" rx="0.306722" transform="rotate(90 8.57338 3.68066)" fill="#2ECC71"/>
<rect x="13.4809" y="9.81519" width="34.3529" height="0.613444" rx="0.306722" transform="rotate(90 13.4809 9.81519)" fill="#2ECC71"/>
<path fill-rule="evenodd" clip-rule="evenodd" d="M5.13593 0.0837085C4.89965 0.212652 4.49971 0.607083 4.3847 0.824596C4.29479 0.994651 4.2793 3.40767 4.2793 17.2703C4.2793 29.1164 4.30187 33.5603 4.36273 33.6779C4.48534 33.9148 4.88281 34.316 5.11358 34.4358C5.41512 34.5924 7.13039 34.5832 7.29085 34.4243C7.39647 34.3196 7.40787 32.8018 7.40787 18.8191C7.40787 4.83638 7.41927 3.31858 7.52489 3.21385C7.63089 3.10882 10.3204 3.09789 36.012 3.09789C61.7035 3.09789 64.393 3.10882 64.499 3.21385C64.5855 3.29961 64.616 3.48096 64.616 3.90979C64.616 4.74537 64.5704 4.72168 66.1803 4.72168C67.2902 4.72168 67.5299 4.70249 67.6276 4.60572C67.7273 4.50682 67.7446 4.23366 67.7446 2.75565C67.7446 1.62092 67.7158 0.965866 67.6612 0.86032C67.5386 0.623396 67.1411 0.222172 66.9103 0.102381C66.7378 0.0128517 62.3322 -0.00176191 35.9971 0.000157111C13.7832 0.0017809 5.24372 0.024957 5.13593 0.0837085ZM10.0523 6.3569C9.69269 6.54091 9.29566 6.90043 9.15205 7.17212C9.06206 7.34225 9.04687 9.74449 9.04836 23.5576L9.05014 39.7437L9.25343 40.1126C9.40501 40.3876 9.55146 40.5327 9.82901 40.6829C10.1735 40.8693 10.266 40.8845 11.0712 40.8861C11.7644 40.8874 11.9649 40.8642 12.0582 40.7718C12.1638 40.6671 12.1752 39.1493 12.1752 25.1666C12.1752 11.1839 12.1866 9.6661 12.2922 9.56137C12.3982 9.45634 15.0878 9.44541 40.7793 9.44541C66.4708 9.44541 69.1604 9.45634 69.2664 9.56137C69.35 9.64426 69.3834 9.82184 69.3834 10.1835C69.3834 10.9341 69.3569 10.9216 70.9477 10.9216C72.0576 10.9216 72.2972 10.9024 72.3949 10.8056C72.5594 10.6426 72.5695 7.48041 72.4066 7.17212C72.259 6.89297 71.8608 6.53699 71.4907 6.35343L71.1771 6.19785L40.7637 6.20109L10.3502 6.20434L10.0523 6.3569ZM14.7079 12.701C14.3278 12.9271 14.1158 13.1372 13.9557 13.4466C13.8177 13.7133 13.814 14.1412 13.814 29.8911C13.814 43.6884 13.8295 46.091 13.9194 46.261C14.0975 46.5978 14.5122 46.9359 14.9354 47.0892C15.3351 47.2339 15.6244 47.2353 45.5466 47.2353C75.4689 47.2353 75.7581 47.2339 76.1579 47.0892C76.5811 46.9359 76.9958 46.5978 77.1739 46.261C77.2638 46.091 77.2793 43.6884 77.2793 29.8911C77.2793 14.1412 77.2756 13.7133 77.1375 13.4466C76.9775 13.1372 76.7655 12.9271 76.3854 12.701L76.1247 12.5459H45.5466H14.9686L14.7079 12.701ZM74.0337 15.7613C74.1393 15.8659 74.1507 17.2429 74.1507 29.8165C74.1507 42.3901 74.1393 43.7671 74.0337 43.8718C73.9277 43.9768 71.2382 43.9877 45.5466 43.9877C19.8551 43.9877 17.1656 43.9768 17.0596 43.8718C16.954 43.7671 16.9426 42.3901 16.9426 29.8165C16.9426 17.2429 16.954 15.8659 17.0596 15.7613C17.1656 15.6562 19.8551 15.6453 45.5466 15.6453C71.2382 15.6453 73.9277 15.6562 74.0337 15.7613ZM20.1882 19.0088C20.0144 19.1811 20.0144 21.7046 20.1882 21.8769C20.3623 22.0494 23.0575 22.0494 23.2317 21.8769C23.4054 21.7046 23.4054 19.1811 23.2317 19.0088C23.1335 18.9116 22.8876 18.8929 21.7099 18.8929C20.5322 18.8929 20.2863 18.9116 20.1882 19.0088ZM25.8441 18.9786C25.2809 19.286 24.8389 20.0007 24.8377 20.6065C24.8356 21.6258 24.1532 22.6947 23.1997 23.1726C22.7167 23.4146 21.9668 23.6166 21.5512 23.6166C21.0423 23.6166 20.5486 23.9942 20.2282 24.6285C20.0732 24.9351 20.0711 25.004 20.0711 29.7962C20.0711 34.4445 20.0775 34.6702 20.2179 35.0509C20.2986 35.2696 20.441 35.5298 20.5345 35.6291C20.788 35.8986 21.3671 36.164 21.7014 36.164C22.067 36.164 22.8509 36.3582 23.2049 36.5363C24.0087 36.9408 24.8385 38.1759 24.8385 38.9677C24.8385 39.4407 25.0564 40.092 25.3018 40.3528C25.3952 40.4521 25.6298 40.6131 25.823 40.7106L26.1744 40.8878H30.9761C35.242 40.8878 35.7909 40.8749 35.8949 40.7718C36.0687 40.5996 36.0687 38.076 35.8949 37.9038C35.7915 37.8014 35.3299 37.7878 31.9435 37.7878H28.1093L27.9294 37.6097C27.8306 37.5116 27.7267 37.3373 27.6986 37.2222C27.6181 36.8919 27.1856 36.077 26.8795 35.6789C26.461 35.1344 25.4249 34.1667 24.9658 33.8915C24.743 33.758 24.3299 33.5662 24.0478 33.4655C23.7657 33.3647 23.493 33.2268 23.4418 33.1591C23.3707 33.065 23.3487 32.2845 23.3487 29.8534C23.3487 27.4199 23.3706 26.6431 23.4418 26.5524C23.493 26.4872 23.6951 26.3813 23.891 26.317C25.0567 25.9345 26.208 25.0291 26.9963 23.875C27.4213 23.2527 27.555 23.002 27.7116 22.5337C27.7771 22.3377 27.8845 22.1359 27.9504 22.0851C28.0426 22.014 28.9543 21.9928 31.924 21.9928C35.3281 21.9928 35.7915 21.9793 35.8949 21.8769C36.0687 21.7046 36.0687 19.1811 35.8949 19.0088C35.7908 18.9057 35.2357 18.8931 30.8855 18.8951C27.4677 18.8967 25.9482 18.9219 25.8441 18.9786ZM43.7961 18.9654C43.6732 18.9992 43.2542 19.0981 42.865 19.1852C41.0794 19.585 38.8707 20.8261 37.5488 22.1725C36.8255 22.9091 35.7023 24.5594 35.404 25.3239C34.7832 26.9146 34.6383 27.4396 34.5102 28.5618C34.2544 30.8026 34.6136 32.8075 35.6309 34.8184C36.1708 35.8856 36.7557 36.6776 37.6807 37.5942C38.7886 38.6919 39.8465 39.4132 41.1517 39.9604C41.418 40.072 41.7533 40.2143 41.8966 40.2766C42.742 40.6435 44.0301 40.8386 45.6211 40.8407C46.8811 40.8423 47.401 40.7834 48.3773 40.5282C49.2022 40.3126 49.3461 40.2631 49.7722 40.0492C49.9855 39.9421 50.2011 39.8545 50.2512 39.8545C50.3567 39.8545 51.1577 39.3898 51.9293 38.8809C52.5984 38.4396 53.9662 37.0992 54.5679 36.2951C55.608 34.9051 56.4025 32.9077 56.5871 31.2189C56.8074 29.2035 56.539 27.2835 55.8031 25.6094C55.7407 25.4674 55.6459 25.2352 55.5926 25.0936C55.397 24.5749 54.038 22.6487 53.4835 22.1043C52.6926 21.328 51.3761 20.4251 50.3468 19.9529C49.0959 19.3791 48.5578 19.1954 47.6324 19.0256C47.1147 18.9307 44.0949 18.8833 43.7961 18.9654ZM55.1984 19.0088C55.1007 19.1057 55.0813 19.3431 55.0813 20.4429C55.0813 21.5426 55.1007 21.78 55.1984 21.8769C55.3018 21.9793 55.7658 21.993 59.1649 21.9939C61.2822 21.9946 63.0587 22.0229 63.1128 22.0568C63.2211 22.1249 63.5732 22.8374 63.5732 22.9885C63.5732 23.1398 64.4135 24.3582 64.7731 24.7282C65.4829 25.4585 66.3859 26.0491 67.2023 26.317C67.3982 26.3813 67.6003 26.4872 67.6515 26.5524C67.7227 26.6431 67.7446 27.4199 67.7446 29.8534C67.7446 32.2838 67.7226 33.0653 67.6515 33.1604C67.6003 33.2289 67.362 33.3531 67.1219 33.4364C66.1682 33.7671 64.9798 34.6836 64.214 35.6789C63.9079 36.0767 63.4753 36.8916 63.3947 37.2222C63.3666 37.3373 63.2627 37.5116 63.1639 37.6097L62.984 37.7878H59.1497C55.7634 37.7878 55.3018 37.8014 55.1984 37.9038C55.0246 38.076 55.0246 40.5996 55.1984 40.7718C55.3024 40.8749 55.8513 40.8878 60.1172 40.8878H64.9189L65.2703 40.7106C65.4635 40.6131 65.6981 40.4521 65.7915 40.3528C66.0131 40.1173 66.2546 39.4553 66.2556 39.0805C66.2565 38.737 66.401 38.2273 66.6154 37.8109C66.8028 37.447 67.5344 36.7145 67.8884 36.5363C68.2424 36.3582 69.0263 36.164 69.3919 36.164C69.7262 36.164 70.3053 35.8986 70.5588 35.6291C70.6522 35.5298 70.7947 35.2696 70.8754 35.0509C71.0158 34.6705 71.0222 34.445 71.0222 29.8903C71.0222 25.3272 71.016 25.1109 70.8747 24.7277C70.7305 24.3371 70.3896 23.9088 70.091 23.7434C70.0091 23.698 69.7745 23.6379 69.5696 23.6098C68.2994 23.4355 67.712 23.1958 67.1219 22.6112C66.5931 22.0872 66.2573 21.3466 66.2556 20.7002C66.2538 20.0544 65.8021 19.2727 65.2715 18.9973C65.1041 18.9104 64.2533 18.8929 60.1929 18.8929C55.8582 18.8929 55.3024 18.9058 55.1984 19.0088ZM67.8616 19.0088C67.764 19.1057 67.7446 19.3431 67.7446 20.4429C67.7446 21.5426 67.764 21.78 67.8616 21.8769C68.0358 22.0494 70.731 22.0494 70.9051 21.8769C71.0789 21.7046 71.0789 19.1811 70.9051 19.0088C70.807 18.9116 70.5611 18.8929 69.3834 18.8929C68.2057 18.8929 67.9598 18.9116 67.8616 19.0088ZM46.9992 22.1258C47.4167 22.1932 47.9606 22.3637 48.8684 22.7119C49.5094 22.9577 50.9964 24.0311 51.3787 24.524C51.4797 24.6541 51.6664 24.8769 51.7936 25.019C52.3797 25.6737 53.1045 27.1732 53.3097 28.1558C53.3521 28.3588 53.4017 29.0666 53.4198 29.7288C53.4554 31.0319 53.4213 31.2567 52.9889 32.5677C52.4283 34.2676 50.8307 36.0448 49.0685 36.9288C47.7835 37.5733 45.983 37.8602 44.5038 37.6562C42.6569 37.4014 41.2583 36.7061 39.9151 35.3752C38.8116 34.2819 38.2063 33.1679 37.7622 31.4134C37.666 31.0332 37.6474 30.6811 37.6735 29.7288C37.7069 28.5089 37.7713 28.025 37.9713 27.4916C38.4138 26.3116 38.5856 25.9913 39.2401 25.1253C40.0303 24.0797 40.9452 23.3451 42.1905 22.7561C42.875 22.4324 43.7818 22.1421 44.1304 22.1353C44.2744 22.1324 44.4591 22.1002 44.541 22.0638C44.7211 21.9835 46.3767 22.0254 46.9992 22.1258ZM20.1882 37.9038C20.0905 38.0006 20.0711 38.2381 20.0711 39.3378C20.0711 40.4375 20.0905 40.675 20.1882 40.7718C20.3623 40.9443 23.0575 40.9443 23.2317 40.7718C23.4054 40.5996 23.4054 38.076 23.2317 37.9038C23.1335 37.8066 22.8876 37.7878 21.7099 37.7878C20.5322 37.7878 20.2863 37.8066 20.1882 37.9038ZM67.8616 37.9038C67.764 38.0006 67.7446 38.2381 67.7446 39.3378C67.7446 40.4375 67.764 40.675 67.8616 40.7718C68.0358 40.9443 70.731 40.9443 70.9051 40.7718C71.0789 40.5996 71.0789 38.076 70.9051 37.9038C70.807 37.8066 70.5611 37.7878 69.3834 37.7878C68.2057 37.7878 67.9598 37.8066 67.8616 37.9038Z" fill="black"/>
</g>
<defs>
<filter id="filter0_d_3016_476" x="0.279297" y="0" width="81" height="55.2354" filterUnits="userSpaceOnUse" color-interpolation-filters="sRGB">
<feFlood flood-opacity="0" result="BackgroundImageFix"/>
<feColorMatrix in="SourceAlpha" type="matrix" values="0 0 0 0 0 0 0 0 0 0 0 0 0 0 0 0 0 0 127 0" result="hardAlpha"/>
<feOffset dy="4"/>
<feGaussianBlur stdDeviation="2"/>
<feComposite in2="hardAlpha" operator="out"/>
<feColorMatrix type="matrix" values="0 0 0 0 0 0 0 0 0 0 0 0 0 0 0 0 0 0 0.25 0"/>
<feBlend mode="normal" in2="BackgroundImageFix" result="effect1_dropShadow_3016_476"/>
<feBlend mode="normal" in="SourceGraphic" in2="effect1_dropShadow_3016_476" result="shape"/>
</filter>
</defs>
</svg>
