<svg width="306" height="330" fill="none" xmlns="http://www.w3.org/2000/svg"><path d="M153.085 329.393c-39.172 0-78.174-7.031-107.98-21.234C16.153 294.378.144 275.957.144 256.41c0-19.546 16.01-37.968 44.963-51.749 59.61-28.405 156.519-28.405 215.958 0 28.954 13.781 44.793 32.062 44.793 51.749 0 19.547-16.009 37.968-44.963 51.749-29.635 14.203-68.807 21.234-107.809 21.234zm-.17-145.122c-38.832 0-77.834 7.031-107.468 21.234-28.613 13.641-44.282 31.781-44.282 50.905 0 19.266 15.669 37.265 44.282 50.906 59.269 28.265 155.667 28.265 214.936 0 28.613-13.641 44.282-31.781 44.282-50.906 0-19.265-15.669-37.264-44.282-50.905-29.635-14.203-68.466-21.234-107.468-21.234z" fill="#2ECC71"/><path d="M230.238 293.113c-42.579 20.39-111.727 20.39-154.476 0-42.578-20.39-42.578-53.296 0-73.686 42.579-20.39 111.727-20.39 154.476 0 42.578 20.39 42.578 53.436 0 73.686z" fill="#0F632D"/><path d="M222.573 54.055L110.676.76c-1.873-.843-3.406-.984-4.769-.422l-7.664 3.657 4.939 2.53v216.278c0 4.5 3.236 9.703 7.324 11.671l110.534 52.734-1.533 4.64 7.664-3.656c1.533-.703 2.555-2.39 2.555-4.922V65.727c.17-4.5-3.066-9.703-7.153-11.672z" fill="#1E7742"/><path d="M214.738 291.566L103.012 238.13c-4.087-1.969-7.323-7.172-7.323-11.672V9.056c0-4.5 3.236-6.468 7.323-4.64L214.909 57.71c4.087 1.97 7.323 7.172 7.323 11.672v217.542c0 4.5-3.406 6.61-7.494 4.641z" fill="#38E57E"/><path d="M222.232 287.066L95.689 226.739V8.915l126.543 60.327v217.824z" fill="#2ECC71"/><path opacity=".4" d="M201.965 291.285L89.047 237.427c-4.258-1.969-6.813-5.765-6.813-9.843V22.838c0-2.813 3.747-4.64 6.813-3.235l112.918 53.859c4.258 1.968 6.812 5.765 6.812 9.843v204.887c0 2.672-3.917 4.5-6.812 3.093z" fill="#EFEFEF"/><path d="M204.179 292.129c-.851 0-1.703-.141-2.555-.563L88.706 237.708c-4.428-2.11-7.153-6.047-7.153-10.125V22.837c0-1.547.851-2.812 2.555-3.515a6.047 6.047 0 014.939 0L201.965 73.18c4.428 2.11 7.153 6.047 7.153 10.125V288.19c0 1.547-.851 2.813-2.554 3.516-.682.281-1.533.422-2.385.422zM86.662 19.462a5.32 5.32 0 00-2.044.422c-1.192.563-2.043 1.688-2.043 2.813v204.886c0 3.937 2.554 7.453 6.642 9.422l112.918 53.858c1.193.562 2.725.562 4.088 0 1.192-.563 2.044-1.688 2.044-2.812V83.164c0-3.937-2.555-7.453-6.643-9.422L88.706 19.884a5.32 5.32 0 00-2.044-.422z" fill="#EFEFEF"/><path d="M167.221 40.274L150.53 32.26c-.511-.281-1.022-.984-1.022-1.688 0-.562.511-.843 1.022-.703l16.691 8.016c.511.281 1.022.984 1.022 1.687 0 .703-.511.985-1.022.703z" fill="#1C7540"/><path opacity=".2" d="M174.034 163.881c2.214 1.125 4.087 0 4.087-2.531V85.695c0-2.531-1.873-5.484-4.087-6.61l-91.63-43.732c-.17.843-.34 1.828-.34 2.671v81.983l91.97 43.874z" fill="#041860"/><path d="M105.227 135.897v1.828c-1.874-.703-4.428-1.125-7.324-.843-10.389.562-22.481 7.453-26.91 15.187-1.192 2.109-1.873 4.078-1.703 5.906l-2.043-.563 2.214 2.813c1.873 2.39 5.62 3.797 10.9 3.375 10.389-.563 22.481-7.453 26.91-15.187 2.214-3.797 2.214-7.172.34-9.563l-2.384-2.953z" fill="#F4A856"/><path d="M105.056 145.46c-4.598 7.734-16.52 14.484-26.91 15.187-10.388.562-15.157-5.063-10.559-12.797 4.599-7.734 16.52-14.484 26.91-15.187 10.389-.703 14.988 5.062 10.559 12.797z" fill="#FCCC6B"/><path d="M105.056 145.46c-4.598 7.734-16.52 14.484-26.91 15.187-10.388.562-15.157-5.063-10.559-12.797 4.599-7.734 16.52-14.484 26.91-15.187 10.389-.703 14.988 5.062 10.559 12.797z" fill="url(#paint0_radial_3016_72)"/><path d="M92.794 154.319c-4.088 2.39-9.027 3.937-13.455 4.218-4.258.282-7.664-.703-9.367-2.812-1.703-2.109-1.703-5.062.17-8.156 3.747-6.469 13.966-12.234 22.822-12.797 4.258-.281 7.664.703 9.368 2.813 1.703 2.109 1.703 5.062-.171 8.156-1.873 3.234-5.45 6.187-9.367 8.578zM79.85 139.132c-4.087 2.25-7.494 5.203-9.367 8.437-1.874 3.094-1.874 5.906-.34 7.875 1.702 1.968 4.768 2.953 9.026 2.672 8.686-.563 18.734-6.188 22.481-12.656 1.874-3.094 1.874-5.907.341-7.875-1.703-1.969-4.769-2.953-9.027-2.672-4.258.281-9.026 1.969-13.114 4.219z" fill="#F4A856"/><path d="M101.991 145.6c-3.747 6.469-13.966 12.234-22.652 12.656-8.686.563-12.603-4.359-8.856-10.828 3.747-6.468 13.965-12.234 22.651-12.656 8.687-.422 12.604 4.359 8.857 10.828z" fill="url(#paint1_radial_3016_72)"/><path d="M70.994 148.131c3.746-6.468 13.965-12.234 22.651-12.656 4.088-.281 7.154.704 8.857 2.391-1.533-2.109-4.77-3.375-9.368-3.094-8.686.563-18.904 6.188-22.651 12.656-2.044 3.375-1.874 6.328 0 8.297-1.363-1.828-1.363-4.5.51-7.594z" fill="#F4A856"/><path d="M104.546 144.897c-4.599 7.734-16.52 14.484-26.91 15.187-4.939.282-8.686-.843-10.56-2.953 1.874 2.531 5.621 3.938 11.071 3.656 10.39-.562 22.482-7.453 26.91-15.187 2.384-4.078 2.214-7.453 0-9.843 1.703 2.109 1.533 5.343-.511 9.14z" fill="#FCE586"/><path d="M101.82 154.6c2.385-1.969 4.258-4.078 5.45-6.328 2.214-3.797 2.214-7.172.341-9.562l-2.384-2.813s0-.14-.171-.14l-.17-.141c-2.044-2.109-5.62-3.375-10.73-3.094-5.79.422-12.263 2.672-17.542 6.047L95.348 154.6h6.472z" fill="#F4A856"/><path d="M162.282 85.414L29.266 21.994c-1.021-.563-2.043-.563-2.725-.141l-2.043.984s.51 0 .851.14c-.17.423-.34.985-.34 1.688v75.655c0 2.531 1.873 5.484 4.087 6.609l133.016 63.421c.17.14.511.14.681.281v.844l2.044-.985c.851-.421 1.362-1.406 1.362-2.812V91.883c.17-2.532-1.703-5.485-3.917-6.469z" fill="#fff"/><path d="M160.238 171.054L27.223 107.633c-2.214-1.125-4.088-4.078-4.088-6.609V25.369c0-2.531 1.874-3.656 4.088-2.531l133.015 63.42c2.214 1.125 4.088 4.078 4.088 6.61v75.654c.17 2.532-1.703 3.657-4.088 2.532z" fill="#2ECC71"/><path d="M59.923 107.492L34.716 95.539v-2.813l25.207 11.953v2.813zm30.997 14.765l-25.206-11.953v-2.812l25.207 12.093v2.672zm30.997 14.906l-25.206-12.094v-2.812l25.206 12.094v2.812zm30.998 14.765l-25.207-12.093v-2.813l25.207 12.094v2.812z" fill="#fff"/><path opacity=".2" d="M160.239 86.258L27.393 22.978c-2.214-1.124-4.087 0-4.087 2.532v75.654c0 .422 0 .985.17 1.407 7.153-4.22 35.766-17.297 90.778 7.734 19.926 9.14 36.788 7.875 50.242 1.968V92.868c0-2.531-1.873-5.485-4.257-6.61z" fill="#00FF67"/><path opacity=".2" d="M78.317 82.462c18.735-1.97 34.234-6.75 47.177-12.656l-98.1-46.827c-2.215-1.125-4.088 0-4.088 2.53V97.93c9.708-6.469 26.569-12.375 55.011-15.468z" fill="#1D723F"/><path d="M108.463 265.551l-1.192 1.547c-1.022-1.547-2.896-2.953-5.45-4.219-9.027-4.359-23.504-4.359-32.53-.141-2.555 1.125-4.258 2.532-5.45 4.079l-1.363-1.407v3.375c-.17 2.813 2.044 5.766 6.642 8.016 9.027 4.359 23.504 4.359 32.53.14 4.428-2.109 6.813-4.921 6.813-7.734v-3.656z" fill="#F4A856"/><path d="M101.65 273.285c-9.026 4.219-23.673 4.219-32.53-.141-9.026-4.359-8.856-11.249 0-15.609 9.027-4.218 23.674-4.218 32.53.141 9.197 4.359 9.027 11.25 0 15.609z" fill="#FCCC6B"/><path d="M101.65 273.285c-9.026 4.219-23.673 4.219-32.53-.141-9.026-4.359-8.856-11.249 0-15.609 9.027-4.218 23.674-4.218 32.53.141 9.197 4.359 9.027 11.25 0 15.609z" fill="url(#paint2_radial_3016_72)"/><path d="M85.64 274.832c-5.109 0-10.048-.984-13.965-2.813-3.747-1.828-5.79-4.218-5.79-6.749 0-2.532 2.043-4.922 5.79-6.61 7.664-3.656 19.927-3.515 27.59.141 3.748 1.828 5.791 4.219 5.791 6.75 0 2.531-2.043 4.922-5.79 6.609-3.747 1.688-8.686 2.672-13.625 2.672zm-.34-18.421c-4.94 0-9.708.843-13.455 2.671-3.576 1.688-5.62 3.938-5.62 6.328 0 2.391 1.873 4.641 5.45 6.469 7.494 3.656 19.586 3.656 27.25.14 3.577-1.687 5.62-3.937 5.62-6.327 0-2.391-1.873-4.641-5.45-6.469-3.746-1.969-8.686-2.812-13.795-2.812z" fill="#F4A856"/><path d="M99.096 272.019c-7.494 3.516-19.757 3.516-27.421-.14-7.494-3.656-7.494-9.422 0-13.078 7.494-3.516 19.756-3.516 27.42.14 7.665 3.657 7.665 9.422 0 13.078z" fill="url(#paint3_radial_3016_72)"/><path d="M71.845 259.645c7.494-3.516 19.756-3.516 27.42.14 3.577 1.688 5.451 3.938 5.621 6.188.17-2.531-1.703-5.063-5.62-6.891-7.494-3.656-19.757-3.656-27.421-.14-3.917 1.828-5.961 4.359-5.62 6.89.17-2.39 2.043-4.5 5.62-6.187z" fill="#F4A856"/><path d="M101.65 272.441c-9.026 4.219-23.673 4.219-32.53-.14-4.258-2.11-6.472-4.781-6.642-7.453-.17 2.953 2.044 5.906 6.642 8.156 9.027 4.359 23.504 4.359 32.53.14 4.769-2.249 6.983-5.203 6.813-8.156-.17 2.813-2.385 5.485-6.813 7.453z" fill="#FCE586"/><path d="M112.55 260.77l-1.192 1.547c-1.022-1.547-2.895-2.953-5.45-4.219-9.027-4.359-23.503-4.359-32.53-.141-2.555 1.125-4.258 2.531-5.45 4.078l-1.363-1.406v3.375c-.17 2.812 2.044 5.766 6.643 8.016 9.026 4.359 23.503 4.359 32.53.14 4.428-2.109 6.812-4.922 6.812-7.734v-3.656z" fill="#F4A856"/><path d="M105.738 268.504c-9.027 4.219-23.674 4.219-32.53-.141-9.027-4.359-8.857-11.249 0-15.609 9.026-4.218 23.673-4.218 32.53.141 9.026 4.5 9.026 11.39 0 15.609z" fill="#FCCC6B"/><path d="M105.738 268.504c-9.027 4.219-23.674 4.219-32.53-.141-9.027-4.359-8.857-11.249 0-15.609 9.026-4.218 23.673-4.218 32.53.141 9.026 4.5 9.026 11.39 0 15.609z" fill="url(#paint4_radial_3016_72)"/><path d="M89.558 270.051c-5.11 0-10.049-.985-13.966-2.813-3.747-1.828-5.79-4.218-5.79-6.75 0-2.531 2.043-4.921 5.79-6.609 7.664-3.656 19.927-3.515 27.591.141 3.747 1.828 5.791 4.218 5.791 6.75 0 2.531-2.044 4.921-5.791 6.609-3.747 1.828-8.686 2.672-13.625 2.672zm-.17-18.422c-4.94 0-9.709.844-13.455 2.672-3.577 1.687-5.62 3.937-5.62 6.328 0 2.391 1.873 4.641 5.45 6.469 7.493 3.656 19.585 3.656 27.25.14 3.576-1.687 5.62-3.937 5.62-6.328 0-2.39-1.873-4.64-5.45-6.468-3.917-1.828-8.856-2.813-13.796-2.813z" fill="#F4A856"/><path d="M103.013 267.379c-7.494 3.515-19.757 3.516-27.421-.141-7.494-3.656-7.494-9.421 0-13.078 7.494-3.515 19.756-3.515 27.421.141 7.664 3.656 7.664 9.422 0 13.078z" fill="url(#paint5_radial_3016_72)"/><path d="M75.763 254.864c7.493-3.516 19.756-3.516 27.42.14 3.577 1.688 5.45 3.938 5.621 6.188.17-2.532-1.703-5.063-5.621-6.891-7.494-3.656-19.756-3.656-27.42-.141-3.918 1.829-5.961 4.36-5.62 6.891.17-2.25 2.043-4.5 5.62-6.187z" fill="#F4A856"/><path d="M105.738 267.801c-9.027 4.219-23.674 4.219-32.53-.141-4.258-2.109-6.472-4.781-6.643-7.453-.17 2.953 2.044 5.906 6.643 8.156 9.026 4.36 23.503 4.36 32.53.141 4.768-2.25 6.983-5.203 6.812-8.156-.34 2.812-2.555 5.484-6.812 7.453z" fill="#FCE586"/><path d="M142.866 283.972l-1.192 1.547c-1.022-1.546-2.895-2.953-5.45-4.218-9.027-4.36-23.504-4.36-32.53-.141-2.555 1.125-4.258 2.531-5.45 4.078l-1.363-1.406v3.375c-.17 2.812 2.044 5.765 6.643 8.015 9.026 4.36 23.503 4.36 32.53.141 4.428-2.109 6.812-4.922 6.812-7.734v-3.657z" fill="#F4A856"/><path d="M136.053 291.707c-9.026 4.218-23.673 4.218-32.53-.141-9.026-4.359-8.856-11.25 0-15.609 9.027-4.219 23.674-4.219 32.53.141 9.027 4.5 9.027 11.39 0 15.609z" fill="#FCCC6B"/><path d="M136.053 291.707c-9.026 4.218-23.673 4.218-32.53-.141-9.026-4.359-8.856-11.25 0-15.609 9.027-4.219 23.674-4.219 32.53.141 9.027 4.5 9.027 11.39 0 15.609z" fill="url(#paint6_radial_3016_72)"/><path d="M119.873 293.254c-5.109 0-10.048-.985-13.965-2.813-3.747-1.828-5.791-4.219-5.791-6.75 0-2.531 2.044-4.922 5.791-6.609 7.664-3.656 19.926-3.516 27.591.141 3.747 1.828 5.79 4.218 5.79 6.749 0 2.532-2.043 4.922-5.79 6.61-3.747 1.828-8.686 2.672-13.626 2.672zm-.17-18.422c-4.939 0-9.708.844-13.455 2.672-3.576 1.687-5.62 3.937-5.62 6.328 0 2.39 1.873 4.64 5.45 6.468 7.494 3.657 19.586 3.657 27.25.141 3.577-1.687 5.621-3.937 5.621-6.328 0-2.39-1.874-4.64-5.45-6.468-3.918-1.829-8.857-2.813-13.796-2.813z" fill="#F4A856"/><path d="M133.499 290.441c-7.494 3.516-19.757 3.516-27.421-.14-7.493-3.657-7.493-9.422 0-13.078 7.494-3.516 19.757-3.516 27.421.14 7.494 3.656 7.494 9.563 0 13.078z" fill="url(#paint7_radial_3016_72)"/><path d="M106.078 278.066c7.494-3.515 19.757-3.515 27.421.141 3.577 1.687 5.45 3.937 5.62 6.187.171-2.531-1.703-5.062-5.62-6.89-7.494-3.656-19.757-3.656-27.421-.141-3.917 1.828-5.961 4.36-5.62 6.891.17-2.25 2.044-4.5 5.62-6.188z" fill="#F4A856"/><path d="M136.054 291.004c-9.027 4.218-23.674 4.218-32.53-.141-4.258-2.109-6.472-4.781-6.643-7.453-.17 2.953 2.044 5.906 6.643 8.156 9.026 4.359 23.503 4.359 32.53.141 4.768-2.25 6.982-5.203 6.812-8.156-.17 2.812-2.555 5.484-6.812 7.453z" fill="#FCE586"/><path d="M96.711 290.582l-1.192 1.546c-1.022-1.546-2.895-2.953-5.45-4.218-9.027-4.359-23.503-4.359-32.53-.141-2.555 1.125-4.258 2.531-5.45 4.078l-1.362-1.406v3.375c-.17 2.812 2.043 5.765 6.642 8.015 9.026 4.36 23.503 4.36 32.53.141 4.428-2.109 6.812-4.922 6.812-7.734v-3.656z" fill="#F4A856"/><path d="M89.899 298.316c-9.027 4.219-23.674 4.219-32.53-.141-9.027-4.359-8.856-11.249 0-15.609 9.026-4.218 23.674-4.218 32.53.141 9.197 4.359 9.026 11.39 0 15.609z" fill="#FCCC6B"/><path d="M89.899 298.316c-9.027 4.219-23.674 4.219-32.53-.141-9.027-4.359-8.856-11.249 0-15.609 9.026-4.218 23.674-4.218 32.53.141 9.197 4.359 9.026 11.39 0 15.609z" fill="url(#paint8_radial_3016_72)"/><path d="M73.89 299.863c-5.11 0-10.05-.985-13.967-2.813-3.746-1.828-5.79-4.218-5.79-6.75 0-2.531 2.044-4.921 5.79-6.609 7.665-3.656 19.927-3.515 27.591.141 3.747 1.828 5.791 4.218 5.791 6.75 0 2.531-2.044 4.921-5.79 6.609-3.918 1.828-8.687 2.672-13.626 2.672zm-.341-18.422c-4.94 0-9.708.844-13.455 2.672-3.577 1.688-5.62 3.938-5.62 6.328 0 2.391 1.873 4.641 5.45 6.469 7.493 3.656 19.586 3.656 27.25.14 3.576-1.687 5.62-3.937 5.62-6.328 0-2.39-1.873-4.64-5.62-6.468-3.577-1.828-8.686-2.813-13.625-2.813z" fill="#F4A856"/><path d="M87.344 297.05c-7.494 3.516-19.756 3.516-27.42-.14-7.494-3.656-7.494-9.422 0-13.078 7.493-3.516 19.756-3.516 27.42.14 7.664 3.657 7.664 9.563 0 13.078z" fill="url(#paint9_radial_3016_72)"/><path d="M60.093 284.676c7.494-3.516 19.757-3.516 27.421.14 3.577 1.688 5.45 3.938 5.62 6.188.17-2.532-1.703-5.063-5.62-6.891-7.494-3.656-19.756-3.656-27.42-.141-3.918 1.828-5.962 4.36-5.62 6.891.17-2.25 2.043-4.5 5.62-6.187z" fill="#F4A856"/><path d="M89.899 297.613c-9.027 4.218-23.674 4.218-32.53-.141-4.258-2.109-6.472-4.781-6.642-7.453-.17 2.953 2.043 5.906 6.642 8.156 9.026 4.36 23.503 4.36 32.53.141 4.769-2.25 6.983-5.203 6.812-8.156-.17 2.812-2.384 5.484-6.812 7.453z" fill="#FCE586"/><path d="M118.511 283.551l-1.192 1.546c-1.022-1.546-2.895-2.953-5.45-4.218-9.027-4.36-23.503-4.36-32.53-.141-2.555 1.125-4.258 2.531-5.45 4.078l-1.362-1.406v3.375c-.17 2.812 2.043 5.765 6.642 8.015 9.026 4.36 23.503 4.36 32.53.141 4.428-2.109 6.812-4.922 6.812-7.734v-3.656z" fill="#F4A856"/><path d="M111.699 291.285c-9.027 4.218-23.674 4.218-32.53-.141-9.027-4.359-9.027-11.25 0-15.609 9.026-4.218 23.673-4.218 32.53.141 9.196 4.5 9.026 11.39 0 15.609z" fill="#FCCC6B"/><path d="M111.699 291.285c-9.027 4.218-23.674 4.218-32.53-.141-9.027-4.359-9.027-11.25 0-15.609 9.026-4.218 23.673-4.218 32.53.141 9.196 4.5 9.026 11.39 0 15.609z" fill="url(#paint10_radial_3016_72)"/><path d="M95.69 292.832c-5.11 0-10.05-.985-13.967-2.813-3.746-1.828-5.79-4.218-5.79-6.75 0-2.531 2.043-4.921 5.79-6.609 7.665-3.656 19.927-3.515 27.591.141 3.747 1.828 5.791 4.218 5.791 6.75 0 2.531-2.044 4.921-5.791 6.609-3.747 1.828-8.686 2.672-13.625 2.672zm-.341-18.422c-4.94 0-9.708.844-13.455 2.672-3.577 1.687-5.62 3.937-5.62 6.328 0 2.391 1.873 4.64 5.45 6.468 7.493 3.657 19.586 3.657 27.25.141 3.576-1.687 5.62-3.937 5.62-6.328 0-2.39-1.873-4.64-5.45-6.468-3.747-1.828-8.686-2.813-13.795-2.813z" fill="#F4A856"/><path d="M109.144 290.16c-7.494 3.515-19.757 3.515-27.421-.141-7.494-3.656-7.494-9.421 0-13.078 7.494-3.515 19.756-3.515 27.421.141 7.664 3.656 7.664 9.422 0 13.078z" fill="url(#paint11_radial_3016_72)"/><path d="M81.894 277.644c7.493-3.515 19.756-3.515 27.42.141 3.577 1.688 5.45 3.938 5.62 6.188.171-2.532-1.703-5.063-5.62-6.891-7.494-3.656-19.756-3.656-27.42-.141-3.918 1.828-5.962 4.36-5.62 6.891.17-2.25 2.043-4.5 5.62-6.188z" fill="#F4A856"/><path d="M111.699 290.582c-9.027 4.218-23.674 4.218-32.53-.141-4.258-2.109-6.472-4.781-6.642-7.453-.17 2.953 2.043 5.906 6.642 8.156 9.026 4.359 23.503 4.359 32.53.141 4.769-2.25 6.983-5.203 6.812-8.156-.17 2.812-2.384 5.484-6.812 7.453z" fill="#FCE586"/><path d="M124.472 279.754l-1.192 1.547c-1.022-1.547-2.895-2.953-5.45-4.219-9.027-4.359-23.503-4.359-32.53-.141-2.555 1.125-4.258 2.532-5.45 4.078l-1.363-1.406v3.375c-.17 2.813 2.044 5.766 6.643 8.016 9.026 4.359 23.503 4.359 32.53.14 4.428-2.109 6.812-4.922 6.812-7.734v-3.656z" fill="#F4A856"/><path d="M117.66 287.488c-9.027 4.219-23.674 4.219-32.53-.141-9.027-4.359-9.027-11.249 0-15.609 9.026-4.218 23.673-4.218 32.53.141 9.196 4.5 9.026 11.39 0 15.609z" fill="#FCCC6B"/><path d="M117.66 287.488c-9.027 4.219-23.674 4.219-32.53-.141-9.027-4.359-9.027-11.249 0-15.609 9.026-4.218 23.673-4.218 32.53.141 9.196 4.5 9.026 11.39 0 15.609z" fill="url(#paint12_radial_3016_72)"/><path d="M101.65 289.035c-5.11 0-10.048-.984-13.966-2.813-3.746-1.828-5.79-4.218-5.79-6.749 0-2.532 2.043-4.922 5.79-6.61 7.665-3.656 19.927-3.515 27.591.141 3.747 1.828 5.791 4.219 5.791 6.75 0 2.531-2.044 4.922-5.791 6.609-3.747 1.828-8.686 2.672-13.625 2.672zm-.34-18.422c-4.94 0-9.708.844-13.455 2.672-3.577 1.688-5.62 3.938-5.62 6.328 0 2.391 1.873 4.641 5.45 6.469 7.493 3.656 19.586 3.656 27.25.14 3.576-1.687 5.62-3.937 5.62-6.328 0-2.39-1.873-4.64-5.45-6.468-3.747-1.828-8.686-2.813-13.795-2.813z" fill="#F4A856"/><path d="M115.105 286.223c-7.494 3.515-19.757 3.515-27.421-.141-7.494-3.656-7.494-9.422 0-13.078 7.494-3.516 19.756-3.516 27.421.141 7.664 3.796 7.664 9.562 0 13.078z" fill="url(#paint13_radial_3016_72)"/><path d="M87.854 273.848c7.494-3.516 19.757-3.516 27.421.14 3.577 1.688 5.45 3.938 5.62 6.188.171-2.532-1.703-5.063-5.62-6.891-7.494-3.656-19.757-3.656-27.42-.14-3.918 1.828-5.962 4.359-5.621 6.89.17-2.25 2.044-4.5 5.62-6.187z" fill="#F4A856"/><path d="M117.66 286.785c-9.027 4.219-23.674 4.219-32.53-.141-4.258-2.109-6.472-4.781-6.643-7.453-.17 2.953 2.044 5.906 6.643 8.156 9.026 4.36 23.503 4.36 32.53.141 4.768-2.25 6.983-5.203 6.812-8.156-.17 2.812-2.384 5.484-6.812 7.453z" fill="#FCE586"/><path d="M127.708 272.442l-1.192 1.546c-1.022-1.546-2.895-2.953-5.45-4.218-9.027-4.359-23.504-4.359-32.53-.141-2.555 1.125-4.258 2.531-5.45 4.078l-1.363-1.406v3.375c-.17 2.812 2.044 5.765 6.642 8.015 9.027 4.36 23.504 4.36 32.53.141 4.429-2.109 6.813-4.922 6.813-7.734v-3.656z" fill="#F4A856"/><path d="M120.896 280.176c-9.027 4.218-23.674 4.218-32.53-.141-9.027-4.359-8.857-11.25 0-15.609 9.026-4.219 23.673-4.219 32.53.141 9.026 4.5 9.026 11.39 0 15.609z" fill="#FCCC6B"/><path d="M120.896 280.176c-9.027 4.218-23.674 4.218-32.53-.141-9.027-4.359-8.857-11.25 0-15.609 9.026-4.219 23.673-4.219 32.53.141 9.026 4.5 9.026 11.39 0 15.609z" fill="url(#paint14_radial_3016_72)"/><path d="M104.715 281.723c-5.109 0-10.048-.985-13.965-2.813-3.747-1.828-5.791-4.219-5.791-6.75 0-2.531 2.044-4.922 5.79-6.609 7.665-3.656 19.927-3.516 27.592.14 3.747 1.829 5.79 4.219 5.79 6.75 0 2.532-2.043 4.922-5.79 6.61-3.747 1.828-8.686 2.672-13.626 2.672zm-.17-18.422c-4.939 0-9.708.844-13.455 2.672-3.576 1.687-5.62 3.937-5.62 6.328 0 2.39 1.873 4.64 5.45 6.468 7.494 3.657 19.586 3.657 27.25.141 3.577-1.687 5.621-3.937 5.621-6.328 0-2.391-1.874-4.641-5.45-6.469-3.918-1.828-8.857-2.812-13.796-2.812z" fill="#F4A856"/><path d="M118.341 278.91c-7.494 3.515-19.757 3.515-27.42-.141-7.495-3.656-7.495-9.421 0-13.077 7.493-3.516 19.756-3.516 27.42.14 7.494 3.656 7.494 9.562 0 13.078z" fill="url(#paint15_radial_3016_72)"/><path d="M90.92 266.535c7.494-3.515 19.757-3.515 27.421.141 3.577 1.687 5.45 3.937 5.62 6.187.171-2.531-1.703-5.062-5.62-6.89-7.494-3.656-19.756-3.656-27.42-.141-3.918 1.828-5.962 4.359-5.62 6.891.17-2.25 2.043-4.5 5.62-6.188z" fill="#F4A856"/><path d="M120.895 279.473c-9.026 4.218-23.673 4.218-32.53-.141-4.257-2.109-6.471-4.781-6.642-7.453-.17 2.953 2.044 5.906 6.642 8.156 9.027 4.359 23.504 4.359 32.53.141 4.769-2.25 6.983-5.203 6.813-8.156-.17 2.812-2.555 5.484-6.813 7.453z" fill="#FCE586"/><path d="M143.547 275.535l-1.703 1.266c-.681-1.688-2.044-3.375-4.258-5.063-7.664-5.765-21.97-8.296-31.848-5.625-2.725.703-4.769 1.828-6.302 3.094l-1.022-1.687-.852 3.234c-.851 2.812.682 6.047 4.599 8.859 7.664 5.766 21.971 8.297 31.849 5.625 4.939-1.266 7.834-3.656 8.515-6.469l1.022-3.234z" fill="#F4A856"/><path d="M135.032 282.004c-9.879 2.672-24.185.141-31.849-5.625-7.664-5.766-5.961-12.515 3.917-15.187 9.878-2.672 24.185-.141 31.849 5.625 7.664 5.625 5.961 12.515-3.917 15.187z" fill="#FCCC6B"/><path d="M135.032 282.004c-9.879 2.672-24.185.141-31.849-5.625-7.664-5.766-5.961-12.515 3.917-15.187 9.878-2.672 24.185-.141 31.849 5.625 7.664 5.625 5.961 12.515-3.917 15.187z" fill="url(#paint16_radial_3016_72)"/><path d="M118.852 280.738c-4.939-.844-9.708-2.672-12.944-5.062-3.236-2.391-4.599-5.063-3.917-7.453.681-2.532 3.236-4.36 7.323-5.485 8.345-2.25 20.438-.14 26.91 4.781 3.236 2.391 4.598 5.063 3.917 7.453-.681 2.532-3.236 4.36-7.324 5.485-4.087 1.125-9.197 1.125-13.965.281zm4.428-18.14c-4.769-.844-9.708-.844-13.796.281-3.917.984-6.472 2.953-6.983 5.344-.681 2.39.682 4.921 3.747 7.171 6.472 4.781 18.394 6.891 26.569 4.641 3.918-.985 6.472-2.953 6.983-5.344.681-2.39-.681-4.922-3.747-7.172-3.406-2.25-8.004-4.078-12.773-4.921z" fill="#F4A856"/><path d="M132.818 280.316c-8.346 2.25-20.268.141-26.74-4.781-6.472-4.781-4.939-10.547 3.236-12.797 8.346-2.25 20.268-.14 26.74 4.782 6.471 4.781 5.109 10.546-3.236 12.796z" fill="url(#paint17_radial_3016_72)"/><path d="M109.144 263.582c8.345-2.25 20.267-.141 26.739 4.781 3.066 2.25 4.428 4.781 3.917 7.031.852-2.39-.34-5.203-3.747-7.734-6.472-4.781-18.394-6.89-26.739-4.781-4.428 1.125-6.813 3.375-7.323 5.766.851-2.25 3.236-4.079 7.153-5.063z" fill="#F4A856"/><path d="M135.202 281.301c-9.879 2.672-24.185.14-31.849-5.625-3.747-2.813-5.28-5.766-4.769-8.438-1.022 2.813.511 6.047 4.599 9.141 7.664 5.765 21.97 8.297 31.848 5.625 5.11-1.406 8.175-3.938 8.686-6.75-.851 2.531-3.747 4.781-8.515 6.047z" fill="#FCE586"/><path d="M108.463 195.38l-2.044.844c0-1.828-.851-3.797-2.214-5.906-5.28-7.453-17.883-13.359-28.272-13.359-2.895 0-5.28.422-7.153 1.266l-.34-1.829-2.045 2.954c-1.873 2.39-1.532 5.906 1.022 9.702 5.28 7.453 17.883 13.359 28.272 13.359 5.28 0 8.857-1.546 10.56-3.937l2.214-3.094z" fill="#F4A856"/><path d="M97.904 199.458c-10.39 0-22.993-5.906-28.273-13.359C64.351 178.646 68.61 172.6 79 172.6c10.389 0 22.992 5.906 28.272 13.359 5.28 7.312 1.022 13.359-9.367 13.499z" fill="#FCCC6B"/><path d="M97.904 199.458c-10.39 0-22.993-5.906-28.273-13.359C64.351 178.646 68.61 172.6 79 172.6c10.389 0 22.992 5.906 28.272 13.359 5.28 7.312 1.022 13.359-9.367 13.499z" fill="url(#paint18_radial_3016_72)"/><path d="M82.916 194.115c-4.428-2.109-8.175-4.922-10.39-8.016-2.213-3.093-2.554-5.906-1.021-8.156 1.533-2.25 4.769-3.375 9.027-3.375 8.856 0 19.586 5.063 23.844 11.25 2.214 3.094 2.554 5.906 1.022 8.156-1.533 2.25-4.769 3.375-9.027 3.375-4.258 0-9.197-1.125-13.455-3.234zm10.9-16.031c-4.258-1.969-9.026-3.234-13.284-3.234-4.088 0-7.153 1.125-8.686 3.234-1.363 2.109-1.022 4.922 1.022 7.875 4.428 6.187 14.987 11.109 23.673 11.109 4.088 0 7.153-1.125 8.686-3.234 1.363-2.11 1.022-4.922-1.022-7.875-2.384-3.094-6.13-5.906-10.389-7.875z" fill="#F4A856"/><path d="M96.37 197.209c-8.686 0-19.415-4.922-23.844-11.25-4.428-6.188-.851-11.25 7.835-11.391 8.686 0 19.416 4.922 23.844 11.25 4.428 6.328.851 11.391-7.835 11.391z" fill="url(#paint19_radial_3016_72)"/><path d="M80.02 175.412c8.687 0 19.416 4.922 23.845 11.25 2.043 2.953 2.384 5.625 1.192 7.593 1.703-2.109 1.533-5.062-.681-8.296-4.429-6.188-14.988-11.25-23.844-11.25-4.599 0-7.664 1.406-9.027 3.656 1.363-1.828 4.428-2.953 8.516-2.953z" fill="#F4A856"/><path d="M98.415 198.755c-10.39 0-22.993-5.906-28.272-13.359-2.555-3.515-2.896-6.75-1.363-9.14-1.873 2.531-1.703 5.906 1.022 9.843 5.28 7.453 17.883 13.359 28.272 13.359 5.45 0 9.197-1.687 10.73-4.359-1.873 2.25-5.45 3.656-10.39 3.656z" fill="#FCE586"/><path d="M104.034 228.708l-.17 1.828c-1.873-.844-4.258-1.406-7.323-1.406-10.39-.141-23.163 5.765-28.443 13.218-1.533 2.11-2.214 3.938-2.384 5.766l-2.044-.703 2.044 2.953c1.703 2.531 5.28 4.078 10.56 4.219 10.388.14 23.162-5.766 28.442-13.219 2.725-3.656 2.895-7.031 1.362-9.562l-2.044-3.094z" fill="#F4A856"/><path d="M102.672 238.27c-5.28 7.313-18.053 13.219-28.443 13.219-10.389-.141-14.476-6.188-9.197-13.5 5.28-7.312 18.054-13.219 28.443-13.219 10.389 0 14.647 6.047 9.197 13.5z" fill="#FCCC6B"/><path d="M102.672 238.27c-5.28 7.313-18.053 13.219-28.443 13.219-10.389-.141-14.476-6.188-9.197-13.5 5.28-7.312 18.054-13.219 28.443-13.219 10.389 0 14.647 6.047 9.197 13.5z" fill="url(#paint20_radial_3016_72)"/><path d="M89.558 246.145c-4.428 2.109-9.367 3.234-13.796 3.234-4.257 0-7.493-1.265-9.026-3.515-1.533-2.25-1.192-5.063 1.022-8.156 4.428-6.188 15.328-11.25 24.014-11.109 4.258 0 7.494 1.265 9.027 3.515 1.533 2.25 1.192 5.063-1.022 8.156-2.044 3.094-5.961 5.906-10.219 7.875zm-11.07-16.031c-4.258 1.969-8.005 4.781-10.049 7.734-2.044 2.953-2.555 5.766-1.022 7.875 1.363 2.11 4.428 3.235 8.686 3.375 8.686.141 19.246-4.781 23.674-10.968 2.044-2.953 2.555-5.766 1.022-7.875-1.363-2.109-4.428-3.234-8.686-3.375-4.428 0-9.368 1.266-13.625 3.234z" fill="#F4A856"/><path d="M99.777 238.13c-4.429 6.187-15.158 11.109-23.844 11.109-8.686-.141-12.263-5.203-7.665-11.391 4.429-6.187 15.158-11.109 23.844-11.109 8.516.141 12.093 5.203 7.665 11.391z" fill="url(#paint21_radial_3016_72)"/><path d="M68.609 238.551c4.428-6.187 15.158-11.109 23.844-11.109 4.088 0 7.153 1.266 8.516 3.094-1.363-2.25-4.428-3.656-9.027-3.797-8.686-.14-19.416 4.922-23.844 11.109-2.384 3.235-2.555 6.188-.852 8.297-1.192-1.969-.851-4.641 1.363-7.594z" fill="#F4A856"/><path d="M102.331 237.567c-5.28 7.313-18.053 13.219-28.442 13.219-4.94 0-8.516-1.406-10.22-3.797 1.534 2.672 5.28 4.359 10.73 4.359 10.39.141 23.163-5.765 28.443-13.218 2.725-3.797 2.896-7.313 1.022-9.844 1.363 2.531 1.022 5.766-1.533 9.281z" fill="#FCE586"/><path d="M234.154 186.803l-55.522-49.218-55.523-3.656s-8.856 62.155 55.523 128.107c64.549-4.5 55.522-75.233 55.522-75.233z" fill="#17994C"/><path d="M123.11 133.929l-12.433 5.906 55.522 3.797 12.433-6.047-55.522-3.656z" fill="#1B5633"/><path d="M221.722 192.849l-55.523-49.217-22.822-1.969-32.7-1.828s-8.857 62.155 55.522 128.107c64.379-4.5 55.523-75.093 55.523-75.093z" fill="#2ECC71"/><path d="M221.722 192.849l-55.523-49.217-55.522-3.657 1.533-.703 56.374 3.797 55.522 49.218s7.494 59.061-40.535 72.701c45.304-15.046 38.151-72.139 38.151-72.139z" fill="#fff"/><path d="M214.909 193.552l-49.902-44.296-20.608-1.687-29.465-1.688s-8.004 55.968 49.902 115.17c58.248-3.938 50.073-67.499 50.073-67.499z" fill="#87E8AE"/><defs><radialGradient id="paint0_radial_3016_72" cx="0" cy="0" r="1" gradientUnits="userSpaceOnUse" gradientTransform="rotate(-46.085 208.965 -9.539) scale(29.5346 30.2937)"><stop stop-color="#FCE586"/><stop offset=".227" stop-color="#FCDB7B"/><stop offset=".616" stop-color="#FCD06F"/><stop offset="1" stop-color="#FCCC6B"/></radialGradient><radialGradient id="paint1_radial_3016_72" cx="0" cy="0" r="1" gradientUnits="userSpaceOnUse" gradientTransform="matrix(48.72967 -50.61162 51.91254 49.98221 103.899 152.431)"><stop stop-color="#FCE586"/><stop offset=".227" stop-color="#FCDB7B"/><stop offset=".616" stop-color="#FCD06F"/><stop offset="1" stop-color="#FCCC6B"/></radialGradient><radialGradient id="paint2_radial_3016_72" cx="0" cy="0" r="1" gradientUnits="userSpaceOnUse" gradientTransform="rotate(-14.23 1074.015 -159.359) scale(32.4635 27.56)"><stop stop-color="#FCE586"/><stop offset=".227" stop-color="#FCDB7B"/><stop offset=".616" stop-color="#FCD06F"/><stop offset="1" stop-color="#FCCC6B"/></radialGradient><radialGradient id="paint3_radial_3016_72" cx="0" cy="0" r="1" gradientUnits="userSpaceOnUse" gradientTransform="rotate(-14.23 1163.612 -245.44) scale(77.2259 65.5616)"><stop stop-color="#FCE586"/><stop offset=".227" stop-color="#FCDB7B"/><stop offset=".616" stop-color="#FCD06F"/><stop offset="1" stop-color="#FCCC6B"/></radialGradient><radialGradient id="paint4_radial_3016_72" cx="0" cy="0" r="1" gradientUnits="userSpaceOnUse" gradientTransform="matrix(31.4677 -7.98009 6.77473 26.71466 76.084 254.456)"><stop stop-color="#FCE586"/><stop offset=".227" stop-color="#FCDB7B"/><stop offset=".616" stop-color="#FCD06F"/><stop offset="1" stop-color="#FCCC6B"/></radialGradient><radialGradient id="paint5_radial_3016_72" cx="0" cy="0" r="1" gradientUnits="userSpaceOnUse" gradientTransform="rotate(-14.23 1146.92 -263.624) scale(77.2258 65.5612)"><stop stop-color="#FCE586"/><stop offset=".227" stop-color="#FCDB7B"/><stop offset=".616" stop-color="#FCD06F"/><stop offset="1" stop-color="#FCCC6B"/></radialGradient><radialGradient id="paint6_radial_3016_72" cx="0" cy="0" r="1" gradientUnits="userSpaceOnUse" gradientTransform="rotate(-14.23 1165.338 -287.626) scale(32.4635 27.56)"><stop stop-color="#FCE586"/><stop offset=".227" stop-color="#FCDB7B"/><stop offset=".616" stop-color="#FCD06F"/><stop offset="1" stop-color="#FCCC6B"/></radialGradient><radialGradient id="paint7_radial_3016_72" cx="0" cy="0" r="1" gradientUnits="userSpaceOnUse" gradientTransform="matrix(74.8562 -18.98352 16.11624 63.5499 130.371 297.02)"><stop stop-color="#FCE586"/><stop offset=".227" stop-color="#FCDB7B"/><stop offset=".616" stop-color="#FCD06F"/><stop offset="1" stop-color="#FCCC6B"/></radialGradient><radialGradient id="paint8_radial_3016_72" cx="0" cy="0" r="1" gradientUnits="userSpaceOnUse" gradientTransform="rotate(-14.23 1168.732 -99.684) scale(32.4635 27.56)"><stop stop-color="#FCE586"/><stop offset=".227" stop-color="#FCDB7B"/><stop offset=".616" stop-color="#FCD06F"/><stop offset="1" stop-color="#FCCC6B"/></radialGradient><radialGradient id="paint9_radial_3016_72" cx="0" cy="0" r="1" gradientUnits="userSpaceOnUse" gradientTransform="rotate(-14.23 1258.34 -185.769) scale(77.2258 65.5612)"><stop stop-color="#FCE586"/><stop offset=".227" stop-color="#FCDB7B"/><stop offset=".616" stop-color="#FCD06F"/><stop offset="1" stop-color="#FCCC6B"/></radialGradient><radialGradient id="paint10_radial_3016_72" cx="0" cy="0" r="1" gradientUnits="userSpaceOnUse" gradientTransform="rotate(-14.23 1151.612 -190.541) scale(32.4636 27.56)"><stop stop-color="#FCE586"/><stop offset=".227" stop-color="#FCDB7B"/><stop offset=".616" stop-color="#FCD06F"/><stop offset="1" stop-color="#FCCC6B"/></radialGradient><radialGradient id="paint11_radial_3016_72" cx="0" cy="0" r="1" gradientUnits="userSpaceOnUse" gradientTransform="matrix(74.85636 -18.98328 16.11597 63.54976 106.082 296.62)"><stop stop-color="#FCE586"/><stop offset=".227" stop-color="#FCDB7B"/><stop offset=".616" stop-color="#FCD06F"/><stop offset="1" stop-color="#FCCC6B"/></radialGradient><radialGradient id="paint12_radial_3016_72" cx="0" cy="0" r="1" gradientUnits="userSpaceOnUse" gradientTransform="matrix(31.46739 -7.98012 6.77483 26.71464 88.135 273.433)"><stop stop-color="#FCE586"/><stop offset=".227" stop-color="#FCDB7B"/><stop offset=".616" stop-color="#FCD06F"/><stop offset="1" stop-color="#FCCC6B"/></radialGradient><radialGradient id="paint13_radial_3016_72" cx="0" cy="0" r="1" gradientUnits="userSpaceOnUse" gradientTransform="matrix(74.8564 -18.98357 16.1163 63.5501 112.045 292.819)"><stop stop-color="#FCE586"/><stop offset=".227" stop-color="#FCDB7B"/><stop offset=".616" stop-color="#FCD06F"/><stop offset="1" stop-color="#FCCC6B"/></radialGradient><radialGradient id="paint14_radial_3016_72" cx="0" cy="0" r="1" gradientUnits="userSpaceOnUse" gradientTransform="rotate(-14.23 1111.613 -232.627) scale(32.4636 27.5603)"><stop stop-color="#FCE586"/><stop offset=".227" stop-color="#FCDB7B"/><stop offset=".616" stop-color="#FCD06F"/><stop offset="1" stop-color="#FCCC6B"/></radialGradient><radialGradient id="paint15_radial_3016_72" cx="0" cy="0" r="1" gradientUnits="userSpaceOnUse" gradientTransform="matrix(74.85617 -18.98323 16.11573 63.5488 115.204 285.504)"><stop stop-color="#FCE586"/><stop offset=".227" stop-color="#FCDB7B"/><stop offset=".616" stop-color="#FCD06F"/><stop offset="1" stop-color="#FCCC6B"/></radialGradient><radialGradient id="paint16_radial_3016_72" cx="0" cy="0" r="1" gradientUnits="userSpaceOnUse" gradientTransform="rotate(-4.348 3520.503 -1311.588) scale(32.8742 27.216)"><stop stop-color="#FCE586"/><stop offset=".227" stop-color="#FCDB7B"/><stop offset=".616" stop-color="#FCD06F"/><stop offset="1" stop-color="#FCCC6B"/></radialGradient><radialGradient id="paint17_radial_3016_72" cx="0" cy="0" r="1" gradientUnits="userSpaceOnUse" gradientTransform="rotate(-4.348 3832.915 -1545.022) scale(78.2027 64.7431)"><stop stop-color="#FCE586"/><stop offset=".227" stop-color="#FCDB7B"/><stop offset=".616" stop-color="#FCD06F"/><stop offset="1" stop-color="#FCCC6B"/></radialGradient><radialGradient id="paint18_radial_3016_72" cx="0" cy="0" r="1" gradientUnits="userSpaceOnUse" gradientTransform="matrix(32.14784 5.84625 -4.89919 26.94005 80.59 175.076)"><stop stop-color="#FCE586"/><stop offset=".227" stop-color="#FCDB7B"/><stop offset=".616" stop-color="#FCD06F"/><stop offset="1" stop-color="#FCCC6B"/></radialGradient><radialGradient id="paint19_radial_3016_72" cx="0" cy="0" r="1" gradientUnits="userSpaceOnUse" gradientTransform="matrix(76.47453 13.9073 -11.65432 64.08572 89.842 201.67)"><stop stop-color="#FCE586"/><stop offset=".227" stop-color="#FCDB7B"/><stop offset=".616" stop-color="#FCD06F"/><stop offset="1" stop-color="#FCCC6B"/></radialGradient><radialGradient id="paint20_radial_3016_72" cx="0" cy="0" r="1" gradientUnits="userSpaceOnUse" gradientTransform="matrix(22.61087 -19.7535 19.6058 22.4418 68.554 237.982)"><stop stop-color="#FCE586"/><stop offset=".227" stop-color="#FCDB7B"/><stop offset=".616" stop-color="#FCD06F"/><stop offset="1" stop-color="#FCCC6B"/></radialGradient><radialGradient id="paint21_radial_3016_72" cx="0" cy="0" r="1" gradientUnits="userSpaceOnUse" gradientTransform="matrix(53.7873 -46.98981 46.63842 53.38508 100.933 245.113)"><stop stop-color="#FCE586"/><stop offset=".227" stop-color="#FCDB7B"/><stop offset=".616" stop-color="#FCD06F"/><stop offset="1" stop-color="#FCCC6B"/></radialGradient></defs></svg>