<svg width="313" height="335" fill="none" xmlns="http://www.w3.org/2000/svg"><path d="M137.72 131.831c-.181 0-.272 0-.454-.097l-38.467-23.805c-.363-.291-.544-.777-.272-1.263.272-.389.726-.583 1.18-.291l38.467 23.804c.363.292.544.778.272 1.264-.091.194-.363.388-.726.388zm-70.312 54.022c-.181 0-.272 0-.453-.097L.454 144.268a1.038 1.038 0 01-.454-.875c0-.388.181-.68.454-.874l60.966-35.464c.454-.292.998-.097 1.27.388.273.486.091 1.069-.362 1.361L2.722 143.393l65.14 40.614c.454.292.544.875.363 1.361-.272.388-.544.485-.817.485z" fill="#2ECC71"/><path d="M148.607 62.263l72.126 44.597c1.996 1.264 3.538-.097 3.538-2.914V60.708c0-2.817-1.633-6.121-3.538-7.287L148.607 8.823c-1.996-1.263-3.538.098-3.538 2.915v43.238c0 2.817 1.633 6.12 3.538 7.287z" fill="url(#paint0_linear_3016_262)"/><path d="M212.93 234.046l-106.057-65.585c-.816-.485-1.27-1.36-1.27-2.331 0-.972.454-1.847 1.27-2.332l65.866-40.711.545-.292 111.047 68.694c.816.486 1.27 1.36 1.27 2.332 0 .972-.454 1.846-1.27 2.332l-61.33 37.893a9.338 9.338 0 01-4.99 1.458 9.646 9.646 0 01-5.081-1.458zm-104.968-68.305c-.181.097-.181.291-.181.389 0 .097 0 .291.181.388l106.057 65.585a7.415 7.415 0 007.984 0l61.421-37.991c.181-.097.181-.291.181-.388 0-.097 0-.292-.181-.389l-110.049-68.014-65.413 40.42z" fill="#2ECC71"/><path d="M173.193 95.687l14.788-93.86-1.179-.582 1.814-1.069c.363-.291.817-.194 1.361.097l118.124 72.97c.998.582 1.723 2.137 1.542 3.206l-14.879 94.636c-.091.486-.272.777-.635.971l-1.724 1.069-.272-1.749h.091l-117.398-72.58c-1.088-.486-1.814-2.04-1.633-3.11z" fill="#1E7742"/><path d="M307.375 75.865l1.905-.874c.182.486.363 1.069.272 1.555l-14.878 94.636c-.091.486-.273.777-.636.972l-1.723 1.068-.273-1.749h.091l-5.897-3.692 21.139-91.916z" fill="#0F632D"/><path d="M172.83 100.06l118.124 72.969c.907.583 1.723.194 1.814-.777l14.879-94.637c.181-1.068-.544-2.623-1.542-3.206L188.072 1.44c-.907-.583-1.724-.194-1.814.777l-14.879 94.637c-.182 1.068.544 2.623 1.451 3.206z" fill="#38E57E"/><path opacity=".51" d="M189.614 7.463l113.86 70.346-14.153 89.195-113.769-70.346 14.062-89.195z" fill="#041860"/><path d="M98.617 144.851l6.442 3.595 64.596-39.934c1.088-.68 2.993-.583 4.173.194l111.41 68.889c1.088-.68 5.897-3.109 5.897-3.109l-2.359 6.607a1.28 1.28 0 01-.635.777l-68.044 42.071c-1.088.68-2.993.583-4.173-.194l-114.041-70.54a2.2 2.2 0 01-.998-1.069l-2.268-7.287z" fill="#1E7742"/><path d="M99.615 146.017l116.945 72.289c1.27.777 3.175.874 4.354.194l69.768-43.14c1.088-.68.998-1.846-.273-2.721L173.556 100.35c-1.27-.777-3.175-.874-4.355-.194l-69.767 43.14c-1.18.68-1.089 1.944.181 2.721z" fill="#2A9E59"/><path d="M99.615 145.24l116.945 72.289c1.27.777 3.175.874 4.354.194l69.768-43.14c.362-.195.544-.486.635-.778.181.583 0 1.166-.635 1.555l-69.768 43.14c-1.088.68-3.084.583-4.354-.194L99.706 146.017c-.816-.486-1.18-1.263-.998-1.846.091.388.363.777.907 1.069z" fill="#DDD"/><path d="M251.761 202.663v-1.361c0-.097-.091-.194-.182-.097l-4.536 2.818c-.091.097-.181.194-.181.291v1.361c0 .097.09.194.181.097l4.536-2.818c.091-.097.182-.194.182-.291zm-6.714 4.178v-1.361c0-.097-.091-.194-.181-.097l-4.537 2.818c-.09.097-.181.194-.181.291v1.361c0 .097.091.194.181.097l4.537-2.818c.09 0 .181-.194.181-.291z" fill="#1C7540"/><path d="M272.446 171.279l-97.166-60.046a2.012 2.012 0 00-2.087 0l-34.566 21.473c-.454.291-.454 1.068 0 1.36l97.075 60.046a2.012 2.012 0 002.087 0l34.657-21.375c.453-.389.453-1.166 0-1.458z" fill="#2ECC71"/><path d="M272.446 172.639l-.363.195-96.803-59.852a2.012 2.012 0 00-2.087 0l-34.203 21.181-.363-.194c-.454-.292-.454-1.069 0-1.361l34.566-21.472a2.012 2.012 0 012.087 0l97.166 60.046c.453.389.453 1.166 0 1.457z" fill="#1E7742"/><path d="M170.562 116.674l84.374 52.176 3.72-2.332-84.374-52.176-3.72 2.332zm-9.163 5.635l79.112 48.97 3.72-2.332-79.112-48.97-3.72 2.332zm-5.988 3.692l93.174 57.618 3.72-2.235-93.174-57.617-3.72 2.234zm-5.988 3.79l93.174 57.617 3.72-2.332-93.174-57.617-3.72 2.332zm-5.988 3.692L236.61 191.1l3.719-2.332-93.174-57.617-3.72 2.332zm116.582 38.476l3.81 2.332 3.72-2.332-3.72-2.332-3.81 2.332zm-13.246 3.207l7.802 4.858 3.811-2.332-7.803-4.858-3.81 2.332z" fill="#1C7540"/><path d="M171.56 185.853l-26.219-16.226c-.998-.68-.998-1.651 0-2.332l17.872-11.076c.998-.68 2.722-.68 3.72 0l26.22 16.226c.998.68.998 1.652 0 2.332l-17.873 11.076c-1.089.583-2.722.583-3.72 0z" fill="#3EED85"/><path d="M193.153 173.417l-26.22-16.226c-.998-.681-2.722-.681-3.72 0l-17.872 11.076c-.272.195-.545.389-.635.68-.273-.583-.091-1.166.635-1.651l17.872-11.077c.998-.68 2.722-.68 3.72 0l26.22 16.226c.725.486.907 1.069.635 1.652-.091-.291-.363-.486-.635-.68z" fill="#1E7742"/><g opacity=".2"><path d="M173.284 100.253l116.853 72.289c1.27.777 3.176.875 4.355.194l7.802-50.427c1.815-10.688 4.083-24.776 4.99-30.12l-60.15-37.602c-1.27-.777-3.176-.875-4.355-.194l-69.767 43.14c-1.18.68-.998 1.943.272 2.72z" fill="url(#paint1_linear_3016_262)"/><path d="M290.5 113.176L264.281 96.95c-.998-.68-.998-1.652 0-2.332l17.872-11.077c.998-.68 2.722-.68 3.72 0l15.06 9.134c-.907 6.801-2.268 15.06-2.721 17.975l-3.992 2.526c-.998.68-2.722.68-3.72 0z" fill="url(#paint2_linear_3016_262)"/><path d="M300.933 93.646l-15.06-9.133c-.998-.68-2.722-.68-3.72 0l-17.872 11.076c-.272.195-.545.389-.635.68-.273-.582-.091-1.165.635-1.651l17.872-11.077c.998-.68 2.722-.68 3.72 0l15.514 9.62s-.181-.098-.454.485c-.09-.194.363.195 0 0z" fill="#9198DB"/><path d="M295.944 123.281l-69.405-44.89a2.012 2.012 0 00-2.086 0l-34.566 21.474c-.454.291-.454 1.068 0 1.36l97.075 60.046a2.012 2.012 0 002.087 0l6.441-32.16c.454-.292 0-3.887.454-5.83z" fill="#ADB1F2"/><path d="M296.397 122.309v.972l-69.858-43.043a2.012 2.012 0 00-2.086 0l-34.204 21.181-.362-.194c-.454-.292-.454-1.069 0-1.36l34.566-21.473a2.012 2.012 0 012.086 0l69.858 42.946c.545.291.545.68 0 .971z" fill="#9198DB"/><path d="M198.868 98.407l84.646 52.274-3.357 2.137-84.646-52.37 3.357-2.04zm8.891-5.538l80.473 49.747-3.357 2.041-80.473-49.65 3.357-2.138zm5.625-3.401l80.291 49.845-.453 3.886-83.195-51.69 3.357-2.04zm5.625-3.498l75.574 47.027-.454 3.887-78.477-48.873 3.357-2.04zm5.897-3.176l71.037 43.888-.907 3.886-73.487-45.733 3.357-2.04z" fill="#24126A"/></g><path d="M292.95 83.153l2.268 1.554.181-1.846-2.177-1.555-.272 1.847zm-1.905 12.048l2.268 1.555 1.633-10.494-2.268-1.458-1.633 10.397zm-.817 5.732l2.268 1.555.544-4.08-2.177-1.555-.635 4.08zm-.907 6.024l2.177 1.555.635-4.178-2.177-1.554-.635 4.177zm-.635-20.307l2.268 1.458.635-4.08-2.268-1.556-.635 4.178zm-1.18 7.87l2.268 1.555.908-6.121-2.269-1.555-.907 6.122zm-1.088 7.288l2.177 1.554.817-5.246-2.269-1.555-.725 5.247zm1.995 11.076l2.178 1.555.635-4.081-2.177-1.554-.636 4.08zm1.18-32.064l2.268 1.555.272-1.749-2.268-1.554-.272 1.749zm-3.81 36.728l3.991 2.721.273-1.749-3.992-2.623-.272 1.651z" fill="#1D723F"/><path d="M147.337 251.147l-91.36-56.452c-.726-.485-1.089-1.166-1.089-1.846 0-.874.545-1.651 1.452-2.234l18.96-11.757c1.452-.875 3.539-.972 4.809-.194l91.269 56.451c.725.486 1.088 1.166 1.088 1.846 0 .875-.544 1.652-1.451 2.235l-18.871 11.756c-.816.486-1.724.681-2.722.681-.725.097-1.542-.098-2.086-.486zm-71.128-70.54l-19.053 11.659c-.453.292-.544.486-.544.583 0 0 .09.097.272.195l91.269 56.451c.726.486 2.178.389 3.085-.194l18.961-11.757c.454-.291.545-.486.545-.583 0 0-.091-.097-.273-.194l-91.269-56.452c-.362-.194-.816-.291-1.27-.291-.635.097-1.27.194-1.723.583z" fill="#2ECC71"/><path d="M93.083 146.211c2.36 1.457 4.627 3.595 6.714 6.024 2.812-9.619 11.341-12.631 21.502-6.413 8.346 5.15 15.695 15.352 19.506 26.137 1.27 0 2.721.486 4.173 1.457 5.443 3.401 9.889 11.563 9.889 18.364v.389c1.542.097 3.266.68 5.08 1.846 6.986 4.275 12.611 14.865 12.611 23.416 0 8.647-5.625 12.145-12.611 7.773L93.083 183.91c-8.437-5.247-15.241-17.878-15.241-28.372 0-10.299 6.804-14.477 15.241-9.327z" fill="url(#paint3_linear_3016_262)"/><path d="M93.083 146.211a29.962 29.962 0 013.992 3.109l7.44-4.663c4.082-3.11 10.07-2.915 16.693 1.166 8.347 5.149 15.695 15.351 19.506 26.136 1.27 0 2.722.486 4.173 1.458 5.444 3.4 9.889 11.562 9.889 18.363v.389c1.542.097 3.266.68 5.081 1.846 6.985 4.275 12.61 14.866 12.61 23.416 0 4.275-1.36 7.287-3.629 8.745h-.09l-18.327 11.368-3.992-20.599-53.527-33.035c-8.438-5.247-15.242-17.878-15.242-28.371.182-10.299 6.986-14.477 15.423-9.328z" fill="url(#paint4_radial_3016_262)"/><path d="M63.688 156.705l18.6-11.563c2.812-1.748 6.622-1.554 10.886 1.069a29.95 29.95 0 013.992 3.109l7.439-4.663c4.083-3.11 10.071-2.915 16.694 1.166 8.346 5.149 15.695 15.351 19.505 26.136 1.271 0 2.722.486 4.174 1.458 5.443 3.4 9.889 11.562 9.889 18.363v.389c1.542.097 3.266.68 5.08 1.846 6.986 4.275 12.611 14.866 12.611 23.416 0 4.275-1.361 7.287-3.629 8.745h-.091l-18.326 11.368-3.992-20.599-53.527-33.035c-6.805-4.275-12.611-13.408-14.607-22.25l-14.697-4.955z" fill="#2ECC71"/><path d="M74.757 157.677c2.359 1.457 4.627 3.595 6.714 6.024 2.812-9.619 11.34-12.632 21.501-6.413 8.347 5.149 15.696 15.352 19.506 26.137 1.27 0 2.722.485 4.173 1.457 5.444 3.401 9.889 11.562 9.889 18.364v.388c1.543.097 3.267.68 5.081 1.846 6.986 4.275 12.611 14.866 12.611 23.416 0 8.648-5.625 12.146-12.611 7.773l-66.864-41.294c-8.437-5.246-15.242-17.877-15.242-28.371 0-10.299 6.805-14.574 15.242-9.327z" fill="#87E8AE"/><path d="M80.836 164.089c-1.996-2.429-4.264-4.567-6.714-6.024-4.083-2.526-7.893-2.818-10.615-1.263 2.813-2.04 6.805-1.846 11.25.874 2.268 1.361 4.446 3.304 6.35 5.636-.09.291-.18.486-.271.777zm72.851 65.293c0-8.647-5.625-19.141-12.61-23.416-1.815-1.166-3.539-1.749-5.081-1.846v-.389c0-6.801-4.445-14.963-9.889-18.363-1.542-.972-2.903-1.361-4.173-1.458-3.901-10.785-11.159-20.987-19.506-26.137-6.079-3.789-11.703-4.178-15.695-1.748 4.082-2.818 9.889-2.624 16.33 1.36 8.347 5.149 15.695 15.352 19.506 26.137 1.27 0 2.722.485 4.173 1.457 5.444 3.401 9.889 11.562 9.889 18.364v.388c1.542.098 3.266.681 5.081 1.846 6.986 4.276 12.61 14.866 12.61 23.417 0 4.469-1.451 7.481-3.901 8.841 1.996-1.554 3.266-4.469 3.266-8.453z" fill="#DDD"/><path d="M205.4 274.174l1.633-1.166-45.725-29.537-.907 1.652 44.999 29.051zm66.411-1.652c-.363 0-.635-.194-.817-.485-.272-.486-.09-1.069.363-1.361l38.921-22.639-56.431-35.172c-.453-.292-.544-.875-.362-1.361.272-.485.816-.583 1.27-.388l57.791 36.047c.272.194.454.486.454.874 0 .389-.182.681-.454.875l-40.372 23.416c-.091.097-.272.194-.363.194z" fill="#2ECC71"/><path d="M240.42 334.706c-.181 0-.272 0-.453-.097l-65.957-40.808a1.038 1.038 0 01-.454-.874c0-.389.182-.681.454-.875l65.957-40.808a.78.78 0 01.907 0l65.957 40.808c.272.194.453.486.453.875 0 .388-.181.68-.453.874l-65.957 40.808c-.091 0-.272.097-.454.097zm-64.142-41.779l64.142 39.642 64.142-39.642-64.142-39.643-64.142 39.643z" fill="#2ECC71"/><path d="M240.42 320.035l43.82-27.108-43.82-27.109-43.729 27.109 43.729 27.108z" fill="#2ECC71"/><path d="M229.261 277.672s-.726.777-1.542 1.749c-.817.972-2.904 2.235-3.902 2.818-.997.583-5.08 3.789-5.987 7.093-.908 3.303 1.996 3.789 4.99 3.303 2.993-.486 5.897-3.401 6.713-4.469.817-1.069 3.72-3.401 7.44-5.344 3.719-1.944 1.542-4.761 1.542-4.761l-9.254-.389zm27.127 10.494s.544 1.457.726 3.4c.09 1.944.272 6.024.362 7.19.091 1.166 0 4.178-1.996 6.899-2.086 2.72-3.084 3.886-5.715 2.72s-2.45-5.927-1.905-8.356c.544-2.429 1.088-7.87 1.088-8.453 0-.583.182-.971.182-.971l7.258-2.429z" fill="#160A5B"/><path d="M221.459 221.706s.09 21.668 4.536 33.327c0 0 3.175 10.202 3.266 22.25 0 0-.817 2.041.272 3.79s7.984 3.4 9.254-2.041c1.27-5.538 1.089-15.934-.091-20.307-1.179-4.372.817-16.226.817-16.226s1.905 1.36 4.173 10.008c2.268 8.647 3.992 11.951 4.809 14.38.816 2.429 1.27 16.906.544 23.999 0 0 5.625.972 7.258-1.846 1.724-2.818 2.54-17.684 2.268-22.445-.272-4.76-1.814-20.015-1.452-24.679.363-4.664 1.361-8.453.454-13.214-.907-4.761-30.211-15.935-30.211-15.935l-5.897 8.939z" fill="#24126A"/><path d="M257.113 241.916c.363-4.664 1.361-8.453.454-13.214-.363-1.749-4.718-4.469-9.98-7.093-9.072-1.166-20.503-2.429-21.32-2.332-.726.097-2.631.778-4.173 1.458l-.635.971s0 1.361.09 3.498c2.087.777 6.17.097 6.17.097.544 1.555 3.901 6.996 8.256 9.522 4.354 2.429 17.237 1.944 17.963 2.915.726.875.544 12.826.454 14.283-.091 1.555.998 11.077 1.996 19.433.998 8.258-.998 18.266-1.089 18.655.454-.292.816-.583 1.089-1.069 1.723-2.818 2.54-17.684 2.268-22.445-.363-4.761-1.905-20.015-1.543-24.679z" fill="#160A5B"/><path d="M233.071 151.069s-6.622 1.458-8.8 1.944c-.363.097-.635.388-.816.68-.635 1.749-2.359 6.995-1.361 14.963 1.27 9.716.635 16.129.635 16.129l-3.448 16.809s-4.173 16.032-3.901 16.517c.363.486 8.619 7.579 11.25 6.705 2.631-.875 1.815-2.527 1.815-2.527s1.905 11.757 11.34 11.854c9.526.097 17.238.389 18.962-3.692 1.723-4.081.09-21.376-1.452-28.274-1.542-6.899-5.171-20.599-5.171-20.599l14.243-16.129-11.612-10.007s-2.722-5.733-3.811-6.51c-1.179-.778-1.814-.195-1.814-.195l-16.059 2.332z" fill="#453C9E"/><path d="M226.902 221.026c0 .583-.363 1.458-2.087 2.041-1.814.583-6.26-2.429-9.253-4.761 1.451 1.36 8.618 7.19 11.068 6.412.544-.194.907-.388 1.179-.583-.453-1.263-.725-2.429-.907-3.109zm31.845 8.065c-1.815 4.275-9.98 4.08-19.96 3.886-2.54 0-4.536-.874-6.169-2.04 1.724 1.846 3.992 3.206 7.258 3.206 9.526.097 17.237.389 18.961-3.692.545-1.36.726-4.081.726-7.482-.091 2.721-.363 4.956-.816 6.122z" fill="#0F632D"/><path d="M250.672 148.835s2.359 3.206-1.27 7.384c-2.177 2.526-6.079 8.064-9.345 13.894-2.086 3.595-3.901 5.538-4.99 8.647 0 0-.09-3.692-.09-9.521 0-5.441.09-11.077.363-12.534.544-3.012 12.701-9.425 15.332-7.87z" fill="#F0F6FF"/><path d="M241.418 158.065s-1.27.777-1.724.68c-.453-.097-1.814-1.554-1.814-1.554s-3.448-.195-3.811-1.749c-.362-1.555-.544-3.207-.907-3.984-.363-.874-1.724-4.858-1.724-6.413 0-1.554.182-4.469-.453-6.024-.635-1.554-1.089-16.712 12.52-15.935 13.608.778 9.072 15.838 9.072 15.838s.998.486.363 2.429c-.635 1.943-.816 2.138-1.089 3.109-.362.972-.453 1.555-1.36 2.332l-.273 1.749s.545 2.721-1.179 5.344c-1.724 2.721-7.621 4.178-7.621 4.178z" fill="#FCD1C5"/><path d="M223.818 153.11s-1.452.194-6.442 12.825c-2.812 6.996-7.076 14.283-7.984 19.53-.998 5.247-.635 10.882.363 11.368.907.389 17.691 7.676 22.954 9.911.272.097.635-.098.635-.389l1.633-8.745-10.434-4.664s-1.905-2.72-3.81-3.692c0 0 2.177-4.081 2.087-5.246-.091-1.166.453-12.923-.636-17.684-1.088-4.858 1.634-13.214 1.634-13.214z" fill="#24126A"/><path d="M229.261 186.922s-1.452-1.069-1.815-1.263c-.362-.194-2.268-.874-2.631-1.069-.272-.097-1.36-.097-1.995 0a.495.495 0 00-.454.292c-.454.874-1.815 3.401-1.633 4.469 0 0 3.447 2.429 3.81 3.498l.545.097s2.449-5.344 4.173-6.024z" fill="#FCD1C5"/><path d="M257.295 202.177a180.891 180.891 0 00-1.361-5.83l-21.502 9.23s6.17 8.551 17.419 8.356c3.085-.097 5.353-1.166 6.986-2.137-.453-3.887-.998-7.385-1.542-9.619z" fill="#24126A"/><path d="M266.458 165.449s-5.625.681-10.342 8.259c-4.718 7.579-8.256 16.421-8.256 16.421l-.182.971c-.454 2.624-3.085 4.081-5.353 2.915-4.717-2.429-11.794-6.121-13.064-7.19 0 0-4.264 2.429-5.625 8.356-.998 4.761-.816 4.761-.816 4.761s18.689 10.008 26.038 10.105c7.348.097 17.146-25.359 18.326-30.703 1.179-5.344 2.449-12.34-.726-13.895z" fill="#24126A"/><path d="M266.458 165.449s-5.625.681-10.342 8.259c-4.718 7.579-8.256 16.421-8.256 16.421l-.182.971c-.454 2.624-3.085 4.081-5.353 2.915-4.717-2.429-11.794-6.121-13.064-7.19 0 0-4.264 2.429-5.625 8.356-.998 4.761-.816 4.761-.816 4.761s18.689 10.008 26.038 10.105c7.348.097 17.146-25.359 18.326-30.703 1.179-5.344 2.449-12.34-.726-13.895z" fill="#4846A5"/><path d="M244.956 195.278s2.359 2.429 3.448 1.166.726-1.457.726-1.457 2.177 0 2.449-1.361c.272-1.457 1.361-.68 1.452-2.234.091-1.652-1.724-1.361-1.724-1.361l-6.351 5.247z" fill="#453C9E"/><path d="M242.144 193.918s.635-.68 1.542-1.36c.907-.778 2.268-3.887 2.54-4.178.273-.292 3.176-2.527 4.537-2.527 1.361 0 .272 1.652 0 1.847-.363.194-1.724.874-1.724.874s-1.452 1.166-1.542 1.36c-.182.195 3.81-.194 4.445.195.635.388.454 1.554 0 1.846-.453.291-.816.291-.816.291s.453 1.263-.817 1.846c-1.179.583-1.451.195-1.451.195s-.182 2.234-2.087 1.749l-4.627-2.138z" fill="#FCD1C5"/><path d="M230.985 131.248s-1.905 6.024 2.812 4.47c4.718-1.555 9.073-4.373 10.524-3.207 1.089.875.998 3.401.908 4.567 0 .389.09.777.272 1.166l1.361 2.235c.181.291.272.583.272.874l.091 1.555c0 .388.272.68.635.68h.362c.363 0 .636-.194.726-.583l.454-2.235s1.179-2.915 3.447-1.749c0 0 1.633-2.234 1.18-6.995-.363-4.859-2.268-9.814-11.069-10.883-8.981-1.068-11.975 10.105-11.975 10.105z" fill="#AA8383"/><path d="M243.686 163.409l-1.27-1.166s-1.27 1.069-1.724 2.235c-.544 1.166-.09 4.761-.09 4.761l-.454.68-.454-.972-.272-4.372s.544-3.206.544-3.304c.091-.097 2.541.389 2.541.389s.726.875 1.179 1.749zm-6.26-4.469s-1.451.097-2.086.583c0 0 1.451.097 1.723.194.272 0 .363-.777.363-.777z" fill="#C4CCD6"/><path d="M240.148 159.425l2.268 2.429s-2.087.972-2.722 2.915c0 0-2.54.486-2.812-.583-.182-.971.091-3.498-.182-4.664-.272-1.068 3.448-.097 3.448-.097z" fill="#24126A"/><path d="M236.973 164.089s-.454 2.041-.998 2.915c-.545.874-.998 1.749-.998 1.749l-.182 12.145s4.355-9.036 5.353-10.882c0 0 0-4.469-.454-5.247-.363-.874-2.721-.68-2.721-.68z" fill="#24126A"/><path d="M248.585 146.503c-2.903 8.356-10.705 10.688-10.705 10.688s1.361 1.457 1.814 1.554c.454.097 1.724-.68 1.724-.68s5.897-1.36 7.712-3.984c1.723-2.623 1.179-5.344 1.179-5.344l.272-1.748c-1.361.291-1.996-.486-1.996-.486z" fill="#E2B1A6"/><path d="M254.664 156.608s-1.18 3.983-1.27 4.08c-.182.195-2.722-.194-2.722-.194l1.179 2.526s-13.336 14.575-16.149 22.445c0 0 6.351-10.008 17.42-21.765l-1.452-2.526 2.631.583.363-5.149zm-21.23-4.178l-.725.777.816.874-2.449 2.235s-1.089 16.226 1.542 27.109c0 0-3.72-10.008-2.45-27.595l2.631-1.846-.816-.874 1.451-.68z" fill="#24126A"/><path d="M239.513 242.499l-3.176-3.789c1.452 2.429-.544 13.02-.816 15.449-.272 2.429 1.633 7.578 2.177 13.505.635 5.927-1.088 14.38-1.088 14.38.998-.583 1.723-1.554 2.086-3.109 1.271-5.538 1.089-15.935-.09-20.307-1.089-4.275.907-16.129.907-16.129z" fill="#160A5B"/><path d="M248.858 210.047c7.348.097 17.146-25.359 18.326-30.703.181-.875.363-1.846.544-2.721 0 .097-2.086 5.538-3.992 10.494-1.996 4.955-12.066 19.723-17.056 20.501-4.536.777-20.504-7.773-23.588-9.425-.363 1.846-.182 1.846-.182 1.846s18.599 9.911 25.948 10.008z" fill="#0F632D"/><path d="M248.041 143.491c.363 0 .635-.195.726-.583l.453-2.235s1.18-2.915 3.448-1.749c0 0 1.542-2.138 1.27-6.607-2.722 4.081-8.528 5.83-8.528 5.83l1.361 2.234c.181.292.272.583.272.875l.091 1.554c0 .389.272.681.635.681h.272z" fill="#936D6D"/><path d="M185.532 33.406L227.9 59.639c1.996 1.264 3.538 4.47 3.538 7.288v43.237c0 2.818-1.633 4.081-3.538 2.915l-50.08-30.898 7.712-48.775z" fill="#0F632D"/><path d="M146.157 8.726l2.087-1.554c.635-.486 1.542-.583 2.54.097l72.126 44.598c1.996 1.263 3.539 4.469 3.539 7.287v43.237c0 1.457-.454 2.526-1.18 3.012l-2.177 1.652-.091-1.652c-.091 0-.091-.097-.181-.097l-72.126-44.598c-1.996-1.263-3.539-4.47-3.539-7.287V10.087c0-.389 0-.778.091-1.166l-1.089-.195z" fill="#1E7742"/><path d="M226.267 57.308l-19.052 11.756-4.808-2.915 21.592-13.408c1.089 1.166 1.905 2.915 2.268 4.567z" fill="#34E27A"/><path d="M148.607 62.263l72.126 44.597c1.996 1.264 3.538-.097 3.538-2.914V60.708c0-2.817-1.633-6.121-3.538-7.287L148.607 8.823c-1.996-1.263-3.538.098-3.538 2.915v43.238c0 2.817 1.633 6.12 3.538 7.287z" fill="#2ECC71"/><path d="M223.908 104.237V61c0-2.818-1.633-6.122-3.538-7.288L148.244 9.115c-.817-.486-1.452-.583-2.087-.292.635-.485 1.543-.485 2.45.098l72.126 44.597c1.996 1.263 3.538 4.47 3.538 7.287v43.238c0 1.748-.544 2.817-1.451 3.206.635-.583 1.088-1.555 1.088-3.012z" fill="#fff"/><path d="M155.321 35.057l58.88 36.34c.453.29.816.388 1.089 0v-9.814c0-.778-.454-1.652-.908-1.944l-59.334-36.63c-.09 0-.09-.097-.181-.097-.454.097-.454.486-.454 1.166l-.181 9.133c.091.778.544 1.555 1.089 1.846zm-.091 20.793l58.971 36.339c.453.291.998.583 1.089 0v-9.814c0-.777-.454-1.651-.908-1.943l-59.334-36.63c-.09 0-.09-.097-.181-.097-.454-.194-.544.486-.544 1.166v9.036c0 .777.362 1.555.907 1.943z" fill="#fff"/><path d="M154.867 22.912v9.813c0 .778.454 1.652.907 1.944l59.334 36.63c.091 0 .091 0 .182.097-.091.583-.454.777-.908.486l-59.334-36.63c-.544-.292-.907-1.166-.907-1.944v-9.521c0-.68.272-1.07.726-.875zm0 20.793v9.813c0 .778.454 1.652.907 1.944l59.334 36.63c.091 0 .091 0 .182.097-.091.583-.454.777-.908.486l-59.334-36.63c-.544-.292-.907-1.166-.907-1.944V44.58c0-.68.272-.971.726-.874z" fill="#DDD"/><path d="M198.324 57.113l-.726 1.458-1.361-1.846 1.089-1.166-1.542-1.75.544-1.457 1.452 1.846-.182-2.234 1.724 1.068-.181 1.944 1.451-.098.545 2.04-1.543-.194.998 2.43-1.361.194-.907-2.235zm-6.804-4.178l-.726 1.458-1.361-1.846 1.089-1.166-1.543-1.75.545-1.457 1.451 1.846-.181-2.234 1.724 1.068-.182 1.944 1.452-.098.544 2.041-1.542-.194.998 2.429-1.361.194-.907-2.235zm-6.805-4.178l-.725 1.458-1.361-1.847 1.088-1.165-1.542-1.75.544-1.457 1.452 1.846-.181-2.234 1.723 1.068-.181 1.944 1.452-.097.544 2.04-1.542-.195.998 2.43-1.361.194-.908-2.235zm-6.804-4.275l-.726 1.458-1.361-1.847 1.089-1.166-1.542-1.748.544-1.458 1.452 1.846-.182-2.235 1.724 1.07-.181 1.942 1.451-.097.545 2.04-1.543-.194.998 2.43-1.361.194-.907-2.235zm-6.804-4.178l-.726 1.458-1.361-1.846 1.089-1.166-1.543-1.75.545-1.457 1.451 1.846-.181-2.235 1.724 1.07-.182 1.943 1.452-.098.544 2.04-1.542-.194.998 2.43-1.361.194-.907-2.235zm27.217 37.699l-.726 1.458-1.361-1.846 1.089-1.166-1.633-1.75.544-1.457 1.452 1.846-.181-2.234 1.723 1.068-.181 1.944 1.452-.097.544 2.04-1.542-.194.998 2.429-1.361.194-.817-2.235zm-6.804-4.275l-.726 1.458-1.361-1.847 1.089-1.166-1.543-1.749.545-1.457 1.451 1.846-.181-2.235 1.724 1.07-.182 1.942 1.452-.097.544 2.04-1.542-.194.998 2.43-1.361.194-.907-2.235zm-6.805-4.178l-.725 1.457-1.361-1.846 1.088-1.166-1.542-1.749.544-1.457 1.452 1.846-.181-2.235 1.723 1.07-.181 1.942 1.452-.097.544 2.04-1.542-.194.998 2.43-1.361.194-.908-2.235zm-6.804-4.178l-.726 1.457-1.361-1.846 1.089-1.166-1.542-1.749.544-1.457 1.452 1.846-.182-2.235 1.724 1.07-.181 1.942 1.451-.097.545 2.04-1.543-.194.998 2.43-1.361.194-.907-2.235zm-6.804-4.275l-.726 1.457-1.361-1.846 1.089-1.166-1.543-1.749.545-1.457 1.451 1.846-.181-2.235 1.724 1.069-.182 1.943 1.452-.097.544 2.04-1.542-.194.998 2.43-1.361.193-.907-2.234zM80.02 119.783c-.273 0-.545-.097-.817-.194L41.28 96.075c-.545-.291-.817-.874-.817-1.554 0-.583.272-1.166.817-1.555L79.202 69.55c.545-.291 1.18-.291 1.634 0l37.922 23.416c.545.292.817.875.817 1.555a1.9 1.9 0 01-.817 1.554l-37.922 23.416c-.273.195-.545.292-.817.292zM42.46 94.618l37.56 23.222 37.559-23.222-37.56-23.222-37.56 23.222z" fill="#2ECC71"/><path d="M114.131 86.068v-7.385l-34.112 20.21-34.112-20.21v7.385l34.112 21.084 34.112-21.084z" fill="#1D5D61"/><path d="M80.02 99.865L45.906 78.683 80.019 57.6l34.112 21.084-34.112 21.182z" fill="#2ECC71"/><path opacity=".5" d="M80.02 99.185L46.36 78.392l-.453.291 34.112 21.182 34.112-21.182-.453-.291-33.659 20.793z" fill="#fff"/><path d="M80.02 91.8L58.88 78.683l21.14-13.02 21.047 13.02L80.019 91.8z" fill="#0F054C"/><path opacity=".5" d="M80.02 91.8L58.88 78.683l21.14-13.02 21.047 13.02L80.019 91.8z" fill="url(#paint5_linear_3016_262)"/><path opacity=".5" d="M80.02 47.397l21.047 13.117v18.17l-21.048-13.02V47.396z" fill="url(#paint6_linear_3016_262)"/><path opacity=".5" d="M80.02 65.663l-21.14 13.02v-18.17l21.14-13.116v18.266z" fill="url(#paint7_linear_3016_262)"/><path opacity=".5" d="M80.02 73.534l-21.14-13.02 21.14-13.117 21.047 13.117-21.048 13.02z" fill="#0D562C"/><path opacity=".5" d="M80.02 73.534V91.8l21.047-13.117V60.514l-21.048 13.02z" fill="#06A549"/><path opacity=".5" d="M58.88 60.514v18.17L80.02 91.8V73.534l-21.14-13.02z" fill="#2ECC71"/><defs><linearGradient id="paint0_linear_3016_262" x1="184.691" y1="84.584" x2="208.608" y2="45.904" gradientUnits="userSpaceOnUse"><stop stop-color="#C0BFF6"/><stop offset=".294" stop-color="#C5C4F7"/><stop offset=".64" stop-color="#D3D2F9"/><stop offset="1" stop-color="#E9E9FD"/></linearGradient><linearGradient id="paint1_linear_3016_262" x1="300.213" y1="113.556" x2="107.444" y2="113.556" gradientUnits="userSpaceOnUse"><stop stop-color="#C0BFF6"/><stop offset=".294" stop-color="#C5C4F7"/><stop offset=".64" stop-color="#D3D2F9"/><stop offset="1" stop-color="#E9E9FD"/></linearGradient><linearGradient id="paint2_linear_3016_262" x1="312.901" y1="98.402" x2="263.557" y2="98.402" gradientUnits="userSpaceOnUse"><stop stop-color="#C0BFF6"/><stop offset=".294" stop-color="#C5C4F7"/><stop offset=".64" stop-color="#D3D2F9"/><stop offset="1" stop-color="#E9E9FD"/></linearGradient><linearGradient id="paint3_linear_3016_262" x1="172.635" y1="205.424" x2="77.853" y2="205.424" gradientUnits="userSpaceOnUse"><stop stop-color="#5761D7"/><stop offset=".178" stop-color="#5C66D9"/><stop offset=".388" stop-color="#6A73DF"/><stop offset=".613" stop-color="#8289E8"/><stop offset=".849" stop-color="#A3A7F5"/><stop offset="1" stop-color="#BCBEFF"/></linearGradient><linearGradient id="paint5_linear_3016_262" x1="58.898" y1="78.717" x2="101.097" y2="78.717" gradientUnits="userSpaceOnUse"><stop stop-color="#42E8E0"/><stop offset=".151" stop-color="#43E3E0"/><stop offset=".329" stop-color="#45D5DF"/><stop offset=".52" stop-color="#49BDDD"/><stop offset=".721" stop-color="#4E9CDB"/><stop offset=".927" stop-color="#5472D8"/><stop offset="1" stop-color="#5761D7"/></linearGradient><linearGradient id="paint6_linear_3016_262" x1="79.997" y1="63.068" x2="101.097" y2="63.068" gradientUnits="userSpaceOnUse"><stop stop-color="#42E8E0"/><stop offset=".151" stop-color="#43E3E0"/><stop offset=".329" stop-color="#45D5DF"/><stop offset=".52" stop-color="#49BDDD"/><stop offset=".721" stop-color="#4E9CDB"/><stop offset=".927" stop-color="#5472D8"/><stop offset="1" stop-color="#5761D7"/></linearGradient><linearGradient id="paint7_linear_3016_262" x1="58.898" y1="63.068" x2="79.998" y2="63.068" gradientUnits="userSpaceOnUse"><stop stop-color="#42E8E0"/><stop offset=".151" stop-color="#43E3E0"/><stop offset=".329" stop-color="#45D5DF"/><stop offset=".52" stop-color="#49BDDD"/><stop offset=".721" stop-color="#4E9CDB"/><stop offset=".927" stop-color="#5472D8"/><stop offset="1" stop-color="#5761D7"/></linearGradient><radialGradient id="paint4_radial_3016_262" cx="0" cy="0" r="1" gradientUnits="userSpaceOnUse" gradientTransform="matrix(-45.2126 0 0 -48.4209 150.36 174.956)"><stop stop-color="#2B237C"/><stop offset="1" stop-color="#180D5B"/></radialGradient></defs></svg>