<svg width="307" height="340" fill="none" xmlns="http://www.w3.org/2000/svg"><path d="M302.911 284.889l-89.924 52.407c-4.023 2.358-10.122 2.62-13.625.524L2.384 222.919c-3.503-1.965-2.984-5.503 1.038-7.861l89.925-52.406c4.022-2.359 10.121-2.621 13.625-.524l196.977 114.9c3.504 1.966 2.985 5.503-1.038 7.861z" fill="#0F632D"/><path d="M306.285 252.004l-18.556-3.275-180.757-105.467c-3.504-1.966-9.602-1.835-13.625.524L9.521 192.654.05 190.951v9.695c0 1.31.778 2.49 2.335 3.407l196.978 114.9c3.503 1.966 9.602 1.835 13.625-.524l89.924-52.406c2.206-1.31 3.374-3.013 3.374-4.585v-9.434z" fill="#1E7742"/><path d="M302.912 256.459l-89.925 52.406c-4.022 2.358-10.121 2.621-13.625.524L2.385 194.488c-3.504-1.965-2.985-5.502 1.038-7.86l89.924-52.407c4.023-2.358 10.122-2.62 13.625-.524L303.95 248.598c3.503 1.965 2.984 5.503-1.038 7.861z" fill="#38E57E"/><path d="M302.911 255.28l-89.924 52.406c-4.023 2.358-10.122 2.62-13.625.524L2.384 193.309c-1.297-.786-2.076-1.703-2.335-2.751-.26 1.441.519 3.013 2.335 4.062l196.978 114.9c3.503 1.965 9.602 1.834 13.625-.524l89.924-52.406c2.466-1.441 3.634-3.406 3.244-5.11-.129 1.31-1.297 2.621-3.244 3.8z" fill="#fff"/><path d="M303.041 248.074l-104.328 60.922L3.293 195.144l104.458-60.923 195.29 113.853z" fill="#2ECC71"/><path d="M61.815 158.066l-13.885 8.123c-.648.393-1.557.393-2.076.131l-.13-.131c-.519-.262-.519-.786.13-1.179l13.885-8.123c.648-.393 1.557-.393 2.076-.131l.13.131c.648.262.519.786-.13 1.179z" fill="#1C7540"/><path d="M28.726 196.061l-1.687 1.048-4.152-2.49 1.687-.917 4.152 2.359zm3.244-1.835l-1.687 1.049-4.152-2.49 1.687-1.048 4.152 2.489zm3.244-1.965l-1.816 1.048-4.153-2.358 1.817-1.048 4.152 2.358zm3.244-1.834l-1.816 1.048-4.153-2.489 1.817-.917 4.152 2.358z" fill="#fff"/><path opacity=".6" d="M156.8 222.264c-13.625 7.992-35.684 7.992-49.309 0s-13.625-20.832 0-28.824c13.625-7.992 35.684-7.992 49.309 0s13.625 20.832 0 28.824z" fill="#17994C"/><path d="M132.146 239.689c-13.885 0-27.769-3.144-38.28-9.302-10.38-6.027-15.96-14.019-15.96-22.666 0-8.516 5.709-16.639 15.96-22.666 21.151-12.315 55.538-12.315 76.689 0 10.381 6.027 15.961 14.019 15.961 22.666 0 8.516-5.71 16.639-15.961 22.666-10.64 6.289-24.525 9.302-38.409 9.302zm0-62.757c-13.755 0-27.38 3.014-37.89 9.171-9.992 5.896-15.572 13.626-15.572 21.749 0 8.254 5.58 15.984 15.572 21.749 20.891 12.184 54.888 12.184 75.65 0 9.992-5.896 15.572-13.626 15.572-21.749 0-8.254-5.58-15.984-15.572-21.749-10.381-6.157-24.006-9.171-37.76-9.171z" fill="#fff"/><path d="M273.326 87.973L123.582.585c-1.168-.655-2.206-.786-3.115-.262l-2.206 1.31s.519.132 1.038.132c-.259.655-.389 1.44-.389 2.358V108.41c0 3.538 2.076 7.468 4.672 9.04l149.874 87.388.778.393v1.179l2.206-1.31c1.038-.524 1.557-1.965 1.557-3.8V97.013c0-3.538-2.076-7.599-4.671-9.04z" fill="#EFEFEF"/><path d="M271.25 206.019l-149.875-87.388c-2.595-1.441-4.671-5.502-4.671-9.04V5.434c0-3.537 2.076-5.11 4.671-3.537L271.25 89.284c2.595 1.441 4.671 5.503 4.671 9.04v104.288c0 3.276-2.206 4.848-4.671 3.407z" fill="#2ECC71"/><path d="M158.098 118.5l-28.418-16.639v-3.8l28.418 16.508v3.931zm34.906 20.307l-28.418-16.508v-3.931l28.418 16.639v3.8zm35.035 20.438l-28.548-16.639v-3.799l28.548 16.508v3.93zm34.906 20.308l-28.418-16.508v-3.931l28.418 16.639v3.8z" fill="#fff"/><path d="M150.442 42.903l-33.738-2.751v69.569c0 3.538 2.076 7.468 4.671 9.04l64.881 37.733c16.739-23.976 12.976-60.66 12.976-60.66l-48.79-52.93z" fill="#1E773E"/><path d="M187.684 103.826l-48.791-52.93-48.79-3.931s-7.786 66.818 48.79 137.566c56.576-4.716 48.791-80.705 48.791-80.705z" fill="#17994C"/><path d="M90.103 46.965l-11.03 6.42 48.79 4.061 11.03-6.42-48.79-4.061z" fill="#1B5633"/><path d="M176.654 110.245l-48.791-52.93-20.113-2.096-28.677-1.965s-7.785 66.818 48.79 137.566c56.706-4.585 48.791-80.575 48.791-80.575z" fill="#2ECC71"/><path d="M176.654 110.245l-48.791-52.93-48.79-3.93 1.428-.786 49.439 4.061 48.79 52.93s6.488 63.412-35.555 77.955c39.837-15.853 33.479-77.3 33.479-77.3z" fill="#fff"/><path d="M170.684 111.031l-43.859-47.558-18.037-1.834-25.822-1.704s-7.007 60.006 43.859 123.679c50.996-4.323 43.859-72.583 43.859-72.583z" fill="#87E8AE"/><path d="M205.461 276.504c-.39 0-.649-.262-.649-.655s.259-.655.649-.786c10.251-.786 20.632-3.93 29.066-8.909 9.083-5.372 14.663-10.612 16.22-15.722.13-.393.519-.524.909-.393.389.131.519.524.389.917-1.817 5.503-7.396 11.006-16.869 16.508-8.694 4.979-19.075 8.254-29.715 9.04zm46.454-28.823c-.389 0-.649-.262-.649-.655-.129-4.062-3.114-7.861-8.564-11.137-11.938-6.943-27.639-6.943-43.989.131-.389.131-.778 0-.908-.393s0-.786.389-.917c16.869-7.206 32.83-7.206 45.287 0 5.839 3.407 9.083 7.599 9.213 12.185-.13.524-.389.786-.779.786z" fill="#fff"/><path d="M195.08 276.504c-5.839-.524-10.9-1.965-14.663-4.192-4.282-2.49-6.877-5.765-7.656-9.695-.13-.524 0-1.049.389-1.573.649-.786 1.947-1.179 3.374-1.179 1.557.131 2.855.786 3.114 1.835.779 2.62 2.725 4.978 5.71 6.681 10.64 6.158 31.142 4.324 45.676-4.192 9.343-5.503 14.403-11.005 14.403-16.115 0-3.538-2.465-6.944-7.266-9.695-12.328-7.206-28.937-5.634-45.676 4.192-6.099 3.538-10.381 7.861-12.198 12.185-.389.917-1.557 1.441-2.984 1.572-1.428 0-2.596-.524-3.115-1.31-.259-.524-.389-1.048-.129-1.572 2.465-5.11 7.396-9.827 14.403-13.888.389-.131.779-.131.908.262.13.393.13.786-.259.917-6.748 3.931-11.549 8.516-13.885 13.364v.262c.26.393.909.655 1.947.655s1.557-.393 1.687-.655c1.946-4.586 6.488-9.171 12.846-12.84 17.258-10.088 34.387-11.529 47.103-4.192 5.191 3.013 7.916 6.812 7.916 10.874 0 5.634-5.061 11.529-15.052 17.294-14.923 8.647-36.074 10.612-47.104 4.192-3.374-1.965-5.58-4.585-6.358-7.467-.13-.393-.908-.786-1.947-.786-1.038 0-1.946.262-2.205.655-.13.131-.13.262-.13.393.649 3.406 3.114 6.419 7.007 8.647 3.633 2.096 8.434 3.537 14.014 4.061.389 0 .649.393.649.786.13.262-.13.524-.519.524z" fill="#fff"/><path d="M212.208 269.429c-1.038 0-2.205-.393-2.725-1.048-.389-.524-.519-1.048-.389-1.572.26-.786 1.038-1.31 2.076-1.572a42.882 42.882 0 0012.976-4.848c6.359-3.668 9.862-7.337 10.381-10.612.26-1.572-.389-3.144-1.687-4.585-.519-.524-.648-1.049-.519-1.573.13-.786.779-1.31 1.817-1.703 1.687-.655 3.763-.262 4.671.786 1.817 1.966 2.725 4.193 2.596 6.551-.26 3.406-2.725 6.944-7.267 10.481-.259.262-.779.131-.908-.131-.26-.262-.13-.786.129-.917 4.283-3.275 6.489-6.42 6.748-9.433.13-1.965-.519-3.799-2.206-5.503-.519-.524-2.076-.917-3.244-.393-.649.262-.908.524-.908.655 0 0 0 .131.13.394 1.686 1.703 2.335 3.668 2.076 5.633-.519 3.8-4.282 7.73-11.03 11.66-4.023 2.359-8.564 4.062-13.365 4.979-.649.131-1.038.393-1.038.655 0 0 0 .131.129.262.39.393 1.428.655 2.466.524 5.32-1.179 10.381-3.144 14.663-5.633.389-.131.778-.131.908.262s.13.786-.259.917c-4.412 2.62-9.732 4.585-15.053 5.764-.389-.131-.778 0-1.168 0z" fill="#fff"/><path d="M201.438 270.478h-.13c-5.06-.131-9.343-1.18-12.457-3.014-3.633-2.096-5.45-4.978-5.45-8.385 0-5.24 4.542-11.005 12.068-15.46 12.068-6.944 24.006-9.302 33.868-6.288 1.038.262 1.816.917 1.946 1.703.13.524 0 1.179-.389 1.703-.909 1.048-2.855 1.441-4.542.917-7.007-2.096-15.831-.655-24.784 4.193-.39.131-.519.393-.519.524s.13.262.389.393c.779.393 2.076.393 2.855 0 8.953-4.848 17.388-5.634 22.967-2.359 2.206 1.311 3.504 3.014 3.504 4.979 0 3.144-3.114 6.682-9.213 10.219-8.435 4.848-19.464 6.42-24.655 3.407-1.686-.917-2.595-2.228-2.854-3.931-.26-2.096.648-4.454 2.854-6.813.13-.131.13-.262.13-.262 0-.131-.259-.393-.649-.524-1.038-.393-2.465-.131-2.854.393-2.336 2.621-3.504 5.241-3.115 7.599.26 1.834 1.428 3.407 3.504 4.586 2.076 1.179 4.931 1.965 8.175 2.096 1.687.131 2.984.917 3.114 2.096 0 .524-.13.917-.519 1.31-1.038.524-2.076.918-3.244.918zm18.945-33.147c-7.526 0-15.831 2.489-24.265 7.336-7.137 4.193-11.419 9.434-11.419 14.15 0 2.882 1.687 5.372 4.801 7.206 2.985 1.703 7.007 2.751 11.808 2.882.909 0 1.557-.262 1.817-.524.13-.131.13-.131.13-.262 0-.393-.649-.786-1.817-.917-3.504-.262-6.488-1.048-8.824-2.358-2.335-1.441-3.763-3.276-4.152-5.503-.389-2.751.779-5.765 3.504-8.647.908-1.048 2.984-1.31 4.411-.655.779.393 1.298.917 1.428 1.441.129.524 0 1.048-.39 1.441-1.816 1.966-2.725 4.062-2.465 5.634.13 1.179.908 2.096 2.206 2.882 4.801 2.883 15.312 1.311 23.357-3.406 5.58-3.275 8.564-6.42 8.564-9.04 0-1.441-.908-2.751-2.725-3.8-5.19-3.013-13.106-2.096-21.67 2.49-1.168.655-2.984.655-4.152 0-.649-.393-1.038-1.048-1.038-1.703 0-.656.389-1.311 1.167-1.704 9.343-4.978 18.556-6.55 25.823-4.323 1.297.393 2.595 0 3.114-.524.13-.262.13-.262.13-.393-.13-.262-.389-.524-1.038-.786-2.466-.524-5.32-.917-8.305-.917z" fill="#fff"/><path d="M204.682 261.306c-1.687 0-2.984-.262-4.022-.917-1.038-.655-1.687-1.572-1.687-2.751 0-2.489 2.595-5.503 7.007-7.992 7.137-4.192 13.365-5.241 17.128-3.144 1.557.917 1.946 2.096 1.946 2.882 0 1.965-1.816 4.324-5.449 6.682-1.168.786-3.115.786-4.283.131-.648-.393-1.038-.917-1.038-1.572s.26-1.18.909-1.573c2.984-1.965 2.984-2.751 2.984-2.751-.778-.524-3.374-.131-7.915 2.62-3.114 1.835-4.412 3.407-4.412 3.8 0 .393-.26.655-.649.655s-.649-.262-.649-.655c0-1.834 3.893-4.324 5.191-5.11 3.114-1.834 7.266-3.799 9.213-2.62.519.262.778.655.778 1.179 0 .655-.389 1.834-3.633 3.931-.26.131-.26.262-.26.393s.13.262.39.393c.778.524 2.206.393 2.854 0 4.283-2.883 4.931-4.717 4.931-5.503 0-.655-.519-1.31-1.297-1.834-1.557-.917-6.229-2.489-15.701 3.144-3.893 2.227-6.358 4.979-6.358 6.813 0 .655.259 1.179 1.038 1.572 1.687.917 4.931.917 8.694-.131.389-.131.778.131.778.524.13.393-.13.786-.519.786-2.336.786-4.282 1.048-5.969 1.048zm-11.289-23.713h-.259l-17.908-10.482c-.259-.131-.259-.393-.129-.655.129-.262.389-.262.649-.131l17.907 10.481c.259.131.259.393.129.656-.129.131-.259.131-.389.131zm-63.28-21.765l-9.502 4.776-1.699-.854-.048-3.681a16.575 16.575 0 00-.115-1.804c-.07-.492-.23-.91-.48-1.254-.243-.348-.64-.66-1.19-.936a4.364 4.364 0 00-2.121-.478 4.843 4.843 0 00-2.073.511c-.608.306-1.05.65-1.325 1.033a3.44 3.44 0 00-.576 1.312l-2.726-.125c.058-.364.17-.726.336-1.086.173-.363.455-.723.845-1.08.384-.361.928-.718 1.632-1.071a9.795 9.795 0 012.783-.917 9.606 9.606 0 012.803-.087 7.393 7.393 0 012.495.724c.755.379 1.302.805 1.641 1.278.339.473.544 1.007.615 1.602.064.592.076 1.264.038 2.016l-.058 2.413.106.053 6.642-3.339 1.977.994zm8.676-7.458l-1.9.955 3.081 1.548-2.227 1.12-3.081-1.549-6.382 3.208-1.709-.858-2.869-7.888 2.197-1.105 9.118 4.583 1.901-.955 1.871.941zm-5.998 1.133l-3.484-1.751a58.942 58.942 0 01-.864-.444l-.826-.453a83.344 83.344 0 01-.719-.401 63.01 63.01 0 00-.557-.308l-.077.038c.135.19.262.389.384.598.115.206.214.414.298.623l1.554 4.255 4.291-2.157zm2.918-10.594l8.801 9.683-2.112 1.061-8.801-9.683 2.112-1.061zm16.681 5.722l-6.546-8.829-7.285 3.662-1.977-.994 9.713-4.882 1.545.776 6.978 9.046-2.428 1.221z" fill="#fff"/></svg>