<svg width="179" height="51" fill="none" xmlns="http://www.w3.org/2000/svg"><path d="M25.692 0l-.627 4.532H9.819L8.155 16.49h13.446l-.6 4.533H7.473L5.646 33.608h20.046l-.682 4.532H0L5.537 0h20.155zm25.447 12.259L45.739 51h-4.746l1.882-13.596c-2.055 1.019-3.782 1.528-5.182 1.528-2.855 0-5.173-1.037-6.955-3.112-1.782-2.093-2.673-4.823-2.673-8.19 0-4.387 1.546-8.045 4.637-10.976 3.109-2.93 7.491-4.395 13.146-4.395h5.291zm-7.746 21.623l2.455-17.72c-4.055-.2-7.219.783-9.492 2.95-2.273 2.147-3.409 5.078-3.409 8.79 0 2.148.591 3.868 1.773 5.16 1.2 1.293 2.782 1.94 4.746 1.94 1.036 0 2.345-.374 3.927-1.12zm33.684-20.859l-3.573 25.118h-4.691l.436-4.26c-2.891 3.095-5.646 4.642-8.264 4.642-1.691 0-3.127-.6-4.31-1.802-1.163-1.22-1.745-2.948-1.745-5.187 0-.637.045-1.284.136-1.939l2.346-16.572h4.746l-2.346 16.572a11.58 11.58 0 00-.109 1.53c0 2.511.927 3.767 2.782 3.767 1.945 0 4.464-1.848 7.555-5.542l2.29-16.327h4.747zM84.14 5.16c0-.764.264-1.41.792-1.938.545-.546 1.19-.82 1.936-.82s1.382.274 1.91.82c.545.527.817 1.174.817 1.938 0 .746-.272 1.392-.818 1.938a2.6 2.6 0 01-1.909.792c-.745 0-1.39-.264-1.936-.792a2.697 2.697 0 01-.791-1.938zm4.228 7.863L84.85 38.141h-4.746l3.518-25.118h4.746zm16.91 0l-.518 3.713h-5.019l-2.4 13.733c-.127.692-.19 1.274-.19 1.747 0 1.638.881 2.457 2.645 2.457 1.309 0 2.836-.5 4.582-1.501l-.273 4.641c-1.745.746-3.482 1.12-5.21 1.12-2.054 0-3.681-.52-4.881-1.557-1.182-1.055-1.773-2.439-1.773-4.15 0-.418.046-.846.136-1.283l2.619-15.207h-4.419l.573-3.713h4.555l.954-5.133h4.692l-.873 5.133h4.8zm21.465 18.565l-.682 4.532c-2.546 1.875-5.337 2.813-8.373 2.813-3.164 0-5.71-1.102-7.637-3.304-1.909-2.22-2.864-5.17-2.864-8.846 0-4.095 1.146-7.535 3.437-10.32 2.309-2.803 5.127-4.204 8.455-4.204 2.545 0 4.664.982 6.355 2.948 1.691 1.948 2.536 4.469 2.536 7.563 0 .764-.054 1.547-.164 2.348h-15.655a14.09 14.09 0 00-.218 2.402c0 2.312.627 4.141 1.882 5.488 1.273 1.329 2.864 1.993 4.773 1.993 2.327 0 5.046-1.137 8.155-3.413zm-13.855-9.774h10.5c0-1.747-.4-3.121-1.2-4.122-.782-1.02-1.891-1.53-3.327-1.53-2.728 0-4.719 1.885-5.973 5.652zm38.347 9.774l-.682 4.532c-2.545 1.875-5.337 2.813-8.373 2.813-3.164 0-5.709-1.102-7.637-3.304-1.909-2.22-2.864-5.17-2.864-8.846 0-4.095 1.146-7.535 3.437-10.32 2.309-2.803 5.127-4.204 8.455-4.204 2.546 0 4.664.982 6.355 2.948 1.691 1.948 2.536 4.469 2.536 7.563 0 .764-.054 1.547-.163 2.348h-15.656a14.09 14.09 0 00-.218 2.402c0 2.312.627 4.141 1.882 5.488 1.273 1.329 2.864 1.993 4.773 1.993 2.327 0 5.046-1.137 8.155-3.413zm-13.855-9.774h10.5c0-1.747-.4-3.121-1.2-4.122-.782-1.02-1.891-1.53-3.327-1.53-2.728 0-4.719 1.885-5.973 5.652zM179 13.023l-16.637 20.913h14.591l-.9 4.205h-22.746l16.364-20.913h-12.655l.546-4.205H179z" fill="#2ECC71"/></svg>