<svg width="30" height="31" fill="none" xmlns="http://www.w3.org/2000/svg"><path fill-rule="evenodd" clip-rule="evenodd" d="M14.164.028c-.016.015-.173.034-.35.042a9.299 9.299 0 00-1.033.106l-.352.06a10.01 10.01 0 00-.322.058l-.293.059c-.13.026-.22.047-.498.119l-.227.056c-.291.068-1.231.384-1.612.542-.741.307-1.856.872-2.36 1.195a44.32 44.32 0 01-.345.22 1.823 1.823 0 00-.19.132c-.019.018-.12.092-.225.163a2.676 2.676 0 00-.205.147c-.008.01-.06.05-.117.09-.056.04-.11.08-.117.089-.008.01-.06.05-.117.089a1.108 1.108 0 00-.147.118c-.024.026-.09.08-.146.118-.057.04-.136.106-.176.148-.04.042-.12.109-.176.149-.133.095-1.37 1.343-1.464 1.478a1.49 1.49 0 01-.147.177 1.335 1.335 0 00-.146.178 1.184 1.184 0 01-.118.148 1.168 1.168 0 00-.117.148c-.039.057-.078.11-.088.118a.97.97 0 00-.088.118c-.039.057-.079.11-.089.119a2.85 2.85 0 00-.146.207c-.07.106-.143.207-.161.226a1.845 1.845 0 00-.131.193c-.053.087-.151.243-.217.348-.197.311-.322.546-.644 1.2-.288.586-.397.826-.542 1.19a35.16 35.16 0 01-.12.296c-.08.196-.363 1.098-.416 1.324l-.053.222a8.45 8.45 0 00-.12.518l-.059.295a11.16 11.16 0 00-.057.318l-.059.355a9.567 9.567 0 00-.104 1.043c-.008.179-.028.338-.043.354-.036.037-.036 1.651 0 1.689.015.015.035.174.043.353.016.356.056.755.104 1.043l.059.355c.015.093.041.236.057.318l.059.296c.026.137.046.225.118.51.016.06.04.164.055.23.054.232.337 1.13.42 1.33l.12.296c.267.679.858 1.87 1.182 2.383l.217.349c.053.086.112.173.13.192.02.019.092.12.162.226.07.106.136.2.146.207.01.009.05.062.09.119.038.057.077.11.087.118a.97.97 0 01.088.118c.039.057.091.124.117.148.026.025.079.091.118.148.038.057.104.137.146.178.041.04.108.12.147.177.094.135 1.33 1.384 1.464 1.478.057.04.136.107.176.15.04.041.12.108.176.147.056.039.122.092.146.118.024.026.09.08.147.119.056.039.109.079.117.088.008.01.06.05.117.09.056.038.11.078.117.089.008.01.1.076.205.147.105.071.206.145.225.163.018.019.104.078.19.132l.345.22c.308.198.54.325 1.189.65.89.446 1.203.578 2.006.848.403.135.624.203.762.237l.476.118c.182.046.605.131.88.177l.35.06c.286.048.68.088 1.034.105.177.008.334.027.35.043.015.015.33.027.724.027.658 0 .697-.003.726-.057.02-.039.03-1.8.03-5.483 0-5.203-.002-5.427-.053-5.474-.047-.042-.18-.049-1.135-.056l-1.082-.008v-3.816l1.098-.007c.708-.005 1.108-.019 1.128-.039.02-.02.037-.595.049-1.648.017-1.503.031-1.785.11-2.18a4.695 4.695 0 01.684-1.698c.351-.525.994-1.03 1.602-1.26l.244-.093a1.9 1.9 0 01.227-.073l.234-.057c.591-.147.73-.155 2.813-.159l1.977-.003v3.816l-1.216.017c-.731.01-1.262.03-1.333.048-.311.086-.4.13-.528.259-.248.25-.281.477-.288 1.998l-.004 1.05 1.674.008c1.292.005 1.68.016 1.701.044.028.037.01.382-.05.939a50.86 50.86 0 00-.058.562l-.059.562a89.2 89.2 0 00-.059.562c-.042.424-.083.793-.108.99l-.023.178-1.51.015-1.508.015-.007 5.027c-.006 3.657.001 5.032.025 5.047.03.02.115-.008.473-.153.084-.034.203-.08.263-.103a33.408 33.408 0 001.577-.804c.106-.06.284-.169.396-.24.507-.326.668-.433.698-.462a1.5 1.5 0 01.135-.103c.056-.04.109-.08.117-.09.008-.009.06-.049.117-.088.056-.039.11-.079.117-.089.008-.01.061-.05.117-.088a1.15 1.15 0 00.147-.119c.024-.026.09-.079.146-.118.057-.04.136-.106.176-.148.04-.042.12-.109.176-.149.133-.094 1.37-1.343 1.464-1.478.04-.057.106-.137.147-.177.042-.041.108-.12.147-.178a1.12 1.12 0 01.117-.148c.026-.024.078-.09.117-.148.039-.057.078-.11.088-.118a.97.97 0 00.088-.118c.039-.057.078-.11.089-.119.01-.008.076-.1.146-.207.07-.105.143-.207.161-.226a2.05 2.05 0 00.131-.192l.217-.349c.197-.311.322-.546.644-1.2.442-.9.573-1.215.84-2.026.134-.407.202-.63.235-.77l.117-.48a6.7 6.7 0 00.059-.266c.015-.077.04-.21.058-.296.016-.085.043-.232.058-.325l.059-.355c.05-.302.088-.695.104-1.072.008-.196.027-.368.043-.384.036-.037.036-1.592 0-1.63-.015-.015-.034-.174-.043-.353a9.581 9.581 0 00-.104-1.043l-.059-.355c-.015-.093-.042-.24-.058-.325l-.058-.296a5.995 5.995 0 00-.058-.259c-.055-.22-.088-.354-.115-.473a17.631 17.631 0 00-.537-1.627c-.305-.749-.864-1.875-1.185-2.383a45.084 45.084 0 01-.217-.348 1.843 1.843 0 00-.13-.193 2.957 2.957 0 01-.162-.226 2.71 2.71 0 00-.146-.207 1.05 1.05 0 01-.09-.119 1.158 1.158 0 00-.087-.118 1.157 1.157 0 01-.088-.118 1.165 1.165 0 00-.117-.148 1.182 1.182 0 01-.117-.148 1.419 1.419 0 00-.147-.178 1.487 1.487 0 01-.147-.177c-.094-.135-1.33-1.383-1.464-1.478a1.484 1.484 0 01-.176-.149 1.416 1.416 0 00-.176-.148 1.179 1.179 0 01-.146-.118 1.155 1.155 0 00-.147-.118 1.216 1.216 0 01-.117-.09 1.193 1.193 0 00-.117-.088 1.145 1.145 0 01-.117-.089 1.109 1.109 0 00-.117-.089 1.564 1.564 0 01-.135-.103c-.03-.029-.191-.135-.698-.461a9.99 9.99 0 00-.396-.24 33.875 33.875 0 00-1.577-.805 21.1 21.1 0 01-.57-.228c-.266-.108-1.21-.42-1.436-.473a21.311 21.311 0 01-.47-.117 6.304 6.304 0 00-.27-.06L17.9.296a9.128 9.128 0 00-.659-.121A11.32 11.32 0 0016.187.07c-.178-.008-.335-.027-.35-.042-.037-.037-1.637-.037-1.673 0z" fill="#000"/></svg>