<svg width="30" height="31" fill="none" xmlns="http://www.w3.org/2000/svg"><path fill-rule="evenodd" clip-rule="evenodd" d="M14.046.028c-.015.015-.172.034-.35.042a7.928 7.928 0 00-.974.106l-.351.06a10.61 10.61 0 00-.323.058l-.293.059a5.88 5.88 0 00-.256.058l-.234.057c-.229.054-1.452.45-1.663.538-.077.033-.208.087-.293.12-.164.067-.983.452-1.106.52-.04.023-.179.096-.308.163-.398.206-1.617.973-1.684 1.059-.008.01-.06.05-.117.09-.057.039-.11.079-.118.089a.928.928 0 01-.117.088c-.056.04-.122.093-.146.119-.024.026-.09.079-.147.118-.056.04-.135.106-.175.148-.04.042-.12.109-.176.149-.057.04-.236.207-.4.372a3.75 3.75 0 01-.384.352.469.469 0 00-.139.14c-.028.048-.171.21-.319.358-.147.149-.3.317-.34.374a1.422 1.422 0 01-.147.178 1.42 1.42 0 00-.146.177 1.183 1.183 0 01-.117.148 1.17 1.17 0 00-.118.148.97.97 0 01-.088.118c-.01.008-.049.062-.087.119-.04.057-.08.11-.09.118-.034.027-.492.73-.677 1.04A16.24 16.24 0 00.997 9.695a27.1 27.1 0 00-.533 1.679c-.015.065-.04.171-.057.236a6.009 6.009 0 00-.057.259l-.058.296a14.943 14.943 0 00-.118.68c-.056.342-.09.656-.104.984-.008.179-.027.338-.043.353-.036.037-.036 1.889 0 1.926.016.015.035.174.043.353.014.328.048.643.104.984l.059.355c.015.093.042.24.059.325l.058.296c.015.077.041.197.058.266l.057.237c.054.229.447 1.465.532 1.671l.119.296c.146.368.428.963.7 1.472.262.494.94 1.59 1.025 1.656.01.008.05.062.089.119.038.056.078.11.087.118a.97.97 0 01.088.118c.04.057.092.124.118.148.025.024.078.091.117.148.039.057.105.137.146.177.042.041.108.12.147.177.147.212 1.373 1.45 1.583 1.598.056.04.134.106.175.148.04.042.119.108.175.148.057.04.123.092.147.118.024.026.09.08.146.119.057.039.11.079.117.088.009.01.061.05.118.09a.854.854 0 01.117.09c.03.037.728.498 1.084.714.354.215 1.673.898 1.897.982.06.023.182.07.27.107a29.56 29.56 0 001.795.594l.235.058a8.803 8.803 0 00.556.118c.085.017.23.043.323.059l.351.059c.338.057.65.09.974.106.178.008.335.027.35.042.037.037 1.87.037 1.908 0 .015-.015.172-.034.35-.042.324-.015.636-.049.974-.106l.351-.06a14.222 14.222 0 001.106-.232c.229-.054 1.452-.45 1.663-.538a16.44 16.44 0 001.75-.826c.49-.266 1.575-.95 1.641-1.036.008-.01.06-.05.117-.09a.918.918 0 00.117-.089c.009-.01.061-.05.118-.088.056-.04.122-.093.146-.119.024-.026.09-.079.147-.118.056-.04.135-.106.175-.148.04-.042.12-.109.176-.149.057-.04.223-.194.37-.343.148-.148.308-.293.356-.322a.469.469 0 00.138-.14c.028-.048.185-.223.348-.388.164-.165.33-.346.37-.403.039-.057.105-.137.147-.178.041-.04.107-.12.146-.177a1.23 1.23 0 01.117-.148c.026-.024.079-.09.118-.148a1.17 1.17 0 01.088-.118c.01-.008.049-.062.087-.119.04-.056.08-.11.09-.118.085-.068.844-1.299 1.048-1.7.066-.13.139-.27.161-.311.068-.124.45-.951.515-1.117.034-.085.087-.218.12-.296.084-.206.477-1.442.53-1.671.015-.061.04-.168.058-.237.017-.069.044-.192.06-.273l.057-.296c.017-.081.043-.224.058-.318l.059-.355c.056-.341.09-.656.104-.984.009-.179.027-.338.043-.353.036-.037.036-1.889 0-1.926-.015-.015-.034-.174-.043-.353a8.162 8.162 0 00-.104-.984l-.059-.355c-.015-.093-.042-.24-.058-.325l-.059-.296a5.99 5.99 0 00-.057-.259 14.764 14.764 0 01-.057-.236 27.036 27.036 0 00-.533-1.68c-.032-.076-.085-.21-.12-.295a16.7 16.7 0 00-.698-1.472c-.263-.494-.941-1.59-1.025-1.656a1.009 1.009 0 01-.09-.118 1.158 1.158 0 00-.087-.119 1.157 1.157 0 01-.088-.118 1.165 1.165 0 00-.118-.148 1.182 1.182 0 01-.117-.148 1.428 1.428 0 00-.146-.177 1.458 1.458 0 01-.147-.178 4.056 4.056 0 00-.322-.355 4.08 4.08 0 01-.322-.355.694.694 0 00-.235-.237 4.075 4.075 0 01-.351-.325 4.052 4.052 0 00-.352-.325 1.465 1.465 0 01-.176-.148 1.406 1.406 0 00-.175-.148 1.17 1.17 0 01-.147-.118 1.165 1.165 0 00-.146-.119 1.16 1.16 0 01-.117-.088 1.285 1.285 0 00-.118-.09.98.98 0 01-.117-.089c-.027-.035-.724-.497-1.03-.684a15.965 15.965 0 00-2.361-1.178A27.283 27.283 0 0018.743.47l-.235-.058a14.659 14.659 0 00-.879-.177l-.351-.059a7.928 7.928 0 00-.974-.106c-.177-.008-.335-.027-.35-.042-.037-.037-1.87-.037-1.908 0zM10.241 7.42c.476.167.847.53.966.95l.077.268c.033.115.018.51-.026.695-.085.357-.433.79-.777.965-.32.163-.532.21-.93.21-.317 0-.53-.033-.665-.105a.446.446 0 00-.127-.05c-.06 0-.304-.187-.476-.364a1.271 1.271 0 01-.338-.575l-.067-.239c-.033-.114-.023-.342.025-.612.031-.177.233-.589.349-.712.163-.175.642-.456.778-.456a.243.243 0 00.11-.03c.025-.015.23-.028.455-.028.373 0 .43.007.646.083zm9.168 4.229c.435.094.5.116.835.286.372.19.496.278.779.564.526.531.881 1.258 1.012 2.07.082.51.09.829.095 3.593l.004 2.884h-3.018l-.019-2.558c-.018-2.401-.035-2.919-.106-3.21-.172-.698-.43-1.008-1.008-1.212-.15-.053-.686-.06-.842-.013l-.19.058c-.27.083-.644.405-.827.71-.247.411-.229.158-.245 3.37l-.015 2.855h-3.076l.008-.828c.004-.455.015-2.465.023-4.466.012-2.785.007-3.665-.02-3.75-.03-.096-.028-.118.018-.17.052-.058.09-.06 1.504-.06 1.309 0 1.456.006 1.504.05.049.044.054.103.054.592 0 .442.007.542.04.542.023 0 .065-.037.093-.081a.793.793 0 01.1-.126c.027-.024.08-.09.12-.148.089-.13.161-.204.291-.296a1.59 1.59 0 00.171-.14c.154-.154.968-.51 1.168-.51a.279.279 0 00.126-.03c.058-.039 1.225-.019 1.421.024zm-8.325.178c.045.05.048.404.042 4.637l-.008 4.582H8.042l-.008-4.6a391.6 391.6 0 01.007-4.636c.01-.029.339-.037 1.504-.037 1.408 0 1.494.003 1.54.054z" fill="#2ECC71"/></svg>