<svg width="30" height="31" fill="none" xmlns="http://www.w3.org/2000/svg"><path fill-rule="evenodd" clip-rule="evenodd" d="M15.32 30.29c7.953 0 14.4-6.78 14.4-15.145C29.72 6.781 23.273 0 15.32 0S.92 6.78.92 15.145c0 8.364 6.447 15.145 14.4 15.145z" fill="#000"/><path d="M7.997 10.289a.834.834 0 00-.242-.676L5.962 7.29v-.35h5.566l4.303 10.157L19.613 6.94h5.307v.348L23.387 8.87a.5.5 0 00-.17.463v11.622a.5.5 0 00.17.463L24.884 23v.348h-7.53V23l1.551-1.62c.153-.164.153-.212.153-.463v-9.395L14.746 23.31h-.582l-5.02-11.787v7.9c-.042.332.06.666.278.907l2.017 2.633v.347H5.72v-.347l2.017-2.634c.215-.24.312-.577.26-.906v-9.134z" fill="#2ECC71"/></svg>