<svg width="30" height="31" fill="none" xmlns="http://www.w3.org/2000/svg"><path fill-rule="evenodd" clip-rule="evenodd" d="M15 30.29c8.284 0 15-6.78 15-15.145C30 6.781 23.284 0 15 0 6.716 0 0 6.78 0 15.145 0 23.51 6.716 30.29 15 30.29z" fill="#2ECC71"/><path d="M7.372 10.289a.815.815 0 00-.252-.676L5.252 7.29v-.35h5.798l4.482 10.157 3.94-10.156H25v.347L23.403 8.87a.49.49 0 00-.177.463v11.622a.49.49 0 00.177.463L24.963 23v.348h-7.844V23l1.616-1.62c.159-.164.159-.212.159-.463v-9.395L14.402 23.31h-.606l-5.23-11.787v7.9c-.043.332.064.666.29.907l2.101 2.633v.347H5v-.347l2.1-2.633c.225-.241.326-.578.272-.907v-9.134z" fill="#fff"/></svg>