<svg width="30" height="31" fill="none" xmlns="http://www.w3.org/2000/svg"><path fill-rule="evenodd" clip-rule="evenodd" d="M14.046.028c-.015.015-.172.034-.35.042a7.928 7.928 0 00-.974.106l-.351.06a10.61 10.61 0 00-.323.058l-.293.059a5.88 5.88 0 00-.256.058l-.234.057c-.229.054-1.452.45-1.663.538a15.965 15.965 0 00-2.36 1.177c-.307.188-1.004.65-1.031.685-.008.01-.06.05-.117.09-.057.039-.11.079-.118.089a.928.928 0 01-.117.088c-.056.04-.122.093-.146.119-.024.026-.09.079-.147.118-.056.04-.135.106-.175.148a1.4 1.4 0 01-.176.148c-.057.04-.215.186-.352.325a4.071 4.071 0 01-.351.325.693.693 0 00-.235.237c-.04.057-.184.217-.322.355a4.059 4.059 0 00-.322.355 1.422 1.422 0 01-.147.178 1.42 1.42 0 00-.146.177 1.183 1.183 0 01-.117.148 1.17 1.17 0 00-.118.148.97.97 0 01-.088.118c-.01.008-.049.062-.087.119-.04.057-.08.11-.09.118-.074.059-.755 1.156-1.063 1.716a17.55 17.55 0 00-.78 1.708 27.1 27.1 0 00-.533 1.679c-.015.065-.04.171-.057.236a6.009 6.009 0 00-.057.259l-.058.296a14.943 14.943 0 00-.118.68c-.056.342-.09.656-.104.984-.008.179-.027.338-.043.353-.036.037-.036 1.889 0 1.926.016.015.035.174.043.353.014.328.048.643.104.984l.059.355c.015.093.042.24.059.325l.058.296c.015.077.041.197.058.266l.057.237c.054.229.447 1.465.532 1.671l.12.296a16.078 16.078 0 001.724 3.128c.01.008.05.062.089.119.038.056.078.11.087.118a.97.97 0 01.088.118c.04.057.092.124.118.148.025.024.078.091.117.148.039.057.105.137.146.177.042.041.108.121.148.178.04.057.192.225.34.374.146.149.29.31.318.358a.47.47 0 00.139.14c.048.029.22.187.384.352.164.165.343.332.4.372.056.04.135.107.176.15.04.041.119.107.175.147.057.04.123.092.147.118.024.026.09.08.146.119.057.039.11.079.117.088.009.01.061.05.118.09a.854.854 0 01.117.09c.03.037.728.498 1.084.714.354.215 1.673.898 1.897.982.06.023.182.07.27.107a29.56 29.56 0 001.795.594l.235.058a8.803 8.803 0 00.556.118c.085.017.23.043.323.059l.351.059c.338.057.65.09.974.106.178.008.335.027.35.042.037.037 1.87.037 1.908 0 .015-.015.172-.034.35-.042.324-.015.636-.049.974-.106l.351-.06a14.222 14.222 0 001.106-.232c.229-.054 1.452-.45 1.663-.538a15.97 15.97 0 002.36-1.177c.307-.188 1.004-.65 1.031-.685.008-.01.06-.05.117-.09a.918.918 0 00.117-.089c.009-.01.061-.05.118-.088.056-.04.122-.093.146-.119.024-.026.09-.079.147-.118.056-.04.135-.106.175-.148a1.4 1.4 0 01.176-.148c.057-.04.215-.186.352-.325.137-.139.295-.285.351-.325a.693.693 0 00.235-.237c.04-.057.184-.217.322-.355.138-.138.282-.298.322-.355.039-.057.105-.137.147-.178.041-.04.107-.12.146-.177a1.23 1.23 0 01.117-.148c.026-.024.079-.09.118-.148a1.17 1.17 0 01.088-.118c.01-.008.049-.062.087-.119.04-.056.08-.11.09-.118.085-.068.844-1.299 1.048-1.7.066-.13.139-.27.161-.311.068-.124.45-.951.515-1.117.034-.085.087-.218.12-.296.084-.206.477-1.442.53-1.671.015-.061.04-.168.058-.237.017-.069.044-.192.06-.273l.057-.296c.017-.081.043-.224.058-.318l.059-.355c.056-.341.09-.656.104-.984.009-.179.027-.338.043-.353.036-.037.036-1.889 0-1.926-.015-.015-.034-.174-.043-.353a8.162 8.162 0 00-.104-.984l-.059-.355c-.015-.093-.042-.24-.058-.325l-.059-.296a5.99 5.99 0 00-.057-.259 14.764 14.764 0 01-.057-.236 27.036 27.036 0 00-.533-1.68c-.032-.076-.085-.21-.12-.295a16.248 16.248 0 00-1.046-2.088c-.185-.31-.643-1.013-.677-1.04a1.009 1.009 0 01-.09-.118 1.158 1.158 0 00-.087-.119 1.157 1.157 0 01-.088-.118 1.165 1.165 0 00-.118-.148 1.182 1.182 0 01-.117-.148 1.428 1.428 0 00-.146-.177 1.458 1.458 0 01-.147-.178 4.056 4.056 0 00-.322-.355 4.08 4.08 0 01-.322-.355.694.694 0 00-.235-.237 4.075 4.075 0 01-.351-.325 4.052 4.052 0 00-.352-.325 1.465 1.465 0 01-.176-.148 1.406 1.406 0 00-.175-.148 1.17 1.17 0 01-.147-.118 1.165 1.165 0 00-.146-.119 1.16 1.16 0 01-.117-.088 1.285 1.285 0 00-.118-.09.98.98 0 01-.117-.089c-.027-.035-.724-.497-1.03-.684a15.965 15.965 0 00-2.361-1.178A27.283 27.283 0 0018.743.47l-.235-.058a14.659 14.659 0 00-.879-.177l-.351-.059a7.928 7.928 0 00-.974-.106c-.177-.008-.335-.027-.35-.042-.037-.037-1.87-.037-1.908 0zm4.645 8.252c.154.014.332.038.396.054.272.065 1.338.673 1.58.9.031.03.084.054.117.053.034 0 .324-.092.647-.204.752-.26.8-.279 1.034-.398.108-.055.241-.11.296-.121.09-.02.097-.016.077.033-.012.03-.029.082-.037.114-.018.07-.354.648-.419.72a2.011 2.011 0 00-.117.153c-.04.057-.141.173-.226.259-.14.142-.271.345-.271.42 0 .017.065.03.148.03.104 0 .306-.052.672-.177.522-.177.645-.205.645-.146 0 .075-.131.277-.272.42a2.654 2.654 0 00-.227.259 8.28 8.28 0 01-.49.524c-.228.232-.446.478-.482.547-.051.097-.072.201-.089.437-.044.63-.104 1.156-.166 1.465l-.059.296a6.434 6.434 0 01-.06.273l-.06.244-.055.23c-.052.22-.283.96-.356 1.138l-.12.296c-.147.373-.275.623-.562 1.102-.235.393-.323.534-.341.547a2.265 2.265 0 00-.148.207c-.07.106-.136.2-.146.207-.01.008-.05.062-.088.119a1.17 1.17 0 01-.117.148c-.026.024-.08.09-.118.147-.04.057-.145.177-.234.267a2.65 2.65 0 00-.235.266 3.373 3.373 0 01-.527.532c-.056.04-.162.133-.234.207a2.111 2.111 0 01-.235.207c-.056.04-.109.08-.117.09-.008.009-.06.049-.117.088a.997.997 0 00-.117.09c-.1.128-1.265.79-1.633.927a11.4 11.4 0 01-1.363.465c-.06.015-.166.04-.234.058-.594.15-1.617.267-2.336.267-.495 0-1.368-.075-1.714-.148l-.293-.059c-.08-.016-.2-.042-.264-.059l-.234-.057a13.073 13.073 0 01-1.16-.399 27.18 27.18 0 00-.378-.168c-.625-.272-1.084-.52-1.084-.588 0-.043.186-.067.732-.094.813-.04 1.452-.125 1.846-.248l.263-.08c.057-.015.165-.055.242-.086l.293-.12c.31-.125.542-.243.886-.448.385-.23.46-.285.447-.326-.005-.015-.134-.071-.287-.125a11.49 11.49 0 01-.438-.162 12.01 12.01 0 00-.275-.108c-.174-.066-.271-.121-.597-.342-.662-.448-1.09-.953-1.28-1.508-.037-.11-.038-.134-.002-.17.091-.092.261-.12.726-.12.281 0 .461-.012.461-.03 0-.033-.182-.13-.293-.158-.071-.018-.615-.332-.644-.372a.892.892 0 00-.118-.092 1.166 1.166 0 01-.146-.118 1.186 1.186 0 00-.147-.12 1.466 1.466 0 01-.161-.13 1.473 1.473 0 01-.13-.164 1.15 1.15 0 00-.12-.148 3.31 3.31 0 01-.376-.592c-.233-.605-.346-1.008-.375-1.341-.017-.202.004-.236.124-.199.22.07.86.267.97.3.066.019.135.026.153.015.049-.03.04-.117-.02-.182a1.957 1.957 0 01-.123-.16 1.784 1.784 0 00-.176-.207 1.772 1.772 0 01-.176-.207 1.52 1.52 0 00-.11-.145c-.113-.117-.404-.79-.481-1.113a3.95 3.95 0 01.004-1.7l.057-.237a2.41 2.41 0 01.075-.237c.134-.355.149-.384.193-.384.015 0 .189.163.387.362.197.2.405.396.461.436.057.04.188.16.293.266.105.107.237.226.293.266.057.04.122.093.147.119.024.026.09.08.146.118.057.04.11.08.117.09.008.01.1.076.205.147.105.07.197.138.206.149.038.053.793.488 1.143.659.7.34.78.372 1.698.658.089.028.22.061.293.074.073.013.191.04.264.058.275.07.845.15 1.113.157l.22.005.017-.665c.01-.367.032-.72.05-.784.018-.066.045-.172.06-.237.07-.293.271-.719.51-1.076.152-.228.489-.587.667-.713.056-.04.109-.08.117-.09.09-.112.657-.405.967-.499.12-.037.26-.08.31-.094a1.57 1.57 0 01.322-.028c.127 0 .252-.014.276-.03.024-.017.115-.023.205-.014l.44.042z" fill="#2ECC71"/></svg>